<svg width="61" height="50" viewBox="0 0 61 50" fill="none" xmlns="http://www.w3.org/2000/svg">
<path d="M53.9336 37.9336C51.8711 37.3828 49.8125 36.8359 47.5898 36.2422C52.1641 33.6719 56.5781 31.1875 60.9961 28.7031C60.9766 28.6562 60.9609 28.6094 60.9414 28.5625C57.8828 28.3789 54.8242 28.1914 51.5938 27.9961C53.4844 26.2891 55.2422 24.7031 57.1094 23.0156C52.8789 23.3398 48.8438 23.6523 44.7852 23.9609C43.5039 20.0586 40.6758 17.9453 36.9336 16.9375C37.0234 13.6992 36.4336 10.4844 35.207 7.48828C34.3516 5.38281 33.0898 3.64062 30.9492 2.69922C29.9023 2.23828 28.8438 1.77734 27.7539 1.4375C26.0586 0.914062 24.3359 0.496094 22.5039 0C23.9922 4.61328 25.293 9.10547 24.6172 14.0039C24.2773 13.8086 24.1289 13.4648 23.8789 13.2227C21.6953 11.1133 19.2891 9.32422 16.4297 8.22656C15.0117 7.67969 13.5781 7.33984 12.0352 7.73438C7.67188 8.84375 3.82031 11.0117 0.00390625 13.4023C0.113281 13.5312 0.140625 13.582 0.179688 13.6016C0.445312 13.7578 0.710938 13.9063 0.980469 14.0547C4.73438 16.1211 8.23438 18.5313 11.1406 21.7227C12.6016 23.332 13.8359 25.1055 14.5391 27.2383C9.70703 28.1055 5.5 30.3477 1.125 32.7773C6.07031 33.8711 10.7891 34.9063 15.1992 37.3477C13.2148 38.4961 11.3516 39.5703 9.34766 40.7305C10.1289 40.8125 10.7266 40.875 11.3281 40.9375C14.1914 41.2266 17.0664 41.4648 19.918 41.8477C20.6914 41.9531 21.4648 42.3945 21.7539 43.3203C21.8789 43.7344 22.1016 44.1133 22.4062 44.4219C23.7891 45.7773 25.1875 47.1211 26.6289 48.4102C28.4805 50.0586 30.7266 50.3711 32.9375 49.5977C34.2773 49.1328 35.4961 48.1289 36.5781 47.1523C37.8125 46.0352 38.8281 44.6758 39.957 43.4414C40.1367 43.2773 40.3633 43.1836 40.6055 43.1719C42.1836 43.0977 43.7656 43.0469 45.3477 43C45.9844 42.9805 46.625 42.9961 47.2656 42.9961C47.2656 42.9258 47.2695 42.8555 47.2734 42.7812C46.1953 42.2539 45.1172 41.7266 43.8828 41.1211C47.3516 40.0781 50.6484 39.0937 53.9414 38.1055L53.9336 37.9336ZM40.1445 30.1953C40.2344 30.5117 40.4453 30.8516 40.3945 31.1445C40.1641 32.3945 39.8633 33.6367 39.5781 34.8789C39.5391 35.0508 39.4844 35.2227 39.418 35.4414L38.9961 34.7617L35.8789 36.5078C37.4922 34.5391 38.9219 32.4258 40.1445 30.1953ZM26.5469 29.5703V37.0156L23.6055 35.3672C23.6211 31.6445 24.25 30.4844 26.5469 29.5703ZM42.25 39.1406C41.7461 39.9023 41.125 40.5859 40.5508 41.3008C40.5039 41.3594 40.4453 41.4492 40.3867 41.4531C39.2383 41.543 39.3008 42.5625 38.9453 43.2773C38.7461 43.6641 38.4766 44.0078 38.1484 44.2969C36.5859 45.6719 35.1055 47.1914 33.3789 48.332C31.7852 49.3789 29.8867 49.2852 28.2148 48.3047C26.2187 47.1289 24.5703 45.5039 23.0938 43.7305C22.6602 43.2109 22.5039 42.4609 22.1836 41.7305C19.9297 41.0742 17.9023 37.5039 19.582 34.4258C20.2383 35.1563 20.875 35.8711 21.6875 36.7734C21.625 35.9219 21.5742 35.2891 21.5117 34.457C21.7812 34.6953 22.0352 34.9219 22.2852 35.1406L21.7383 36.0195L29.7305 39.7891L29.5742 38.7109L26.8672 37.1953C29.1445 33.7188 31.6562 30.4609 35.3398 28.043C35.9883 31.1875 35.332 34.0977 34.918 37.0469L31.9453 38.7109L31.7891 39.7891L39.7812 36.0195L39.6055 35.7383C40.1016 35.4219 40.5312 35.1484 41.0859 34.7969C40.75 35.5859 40.4883 36.1992 40.2266 36.8086C40.2617 36.8437 40.293 36.8789 40.3281 36.9141C41.043 36.4297 41.7578 35.9492 42.6367 35.3555C42.6523 36.7461 43.0039 38.0039 42.25 39.1406Z" fill="#00C5A1"/>
</svg>
