<?xml version="1.0" encoding="UTF-8"?>
<svg xmlns="http://www.w3.org/2000/svg" xmlns:xlink="http://www.w3.org/1999/xlink" width="50pt" height="50pt" viewBox="0 0 50 50" version="1.1">
<g id="surface1">
<path style=" stroke:none;fill-rule:nonzero;fill:rgb(0%,0%,0%);fill-opacity:1;" d="M 48.261719 30.875 C 47.886719 30.898438 47.511719 30.882812 47.136719 30.882812 C 47.132812 30.851562 47.132812 30.824219 47.128906 30.796875 C 47.703125 30.632812 48.273438 30.46875 48.902344 30.285156 C 48.410156 29.8125 47.964844 29.386719 47.527344 28.964844 C 47.398438 29.046875 47.402344 29.148438 47.375 29.238281 C 47.355469 29.308594 47.417969 29.453125 47.261719 29.425781 C 47.148438 29.40625 47.0625 29.328125 47.105469 29.191406 C 47.230469 28.820312 47.328125 28.441406 47.496094 28.09375 C 47.636719 27.796875 47.90625 27.648438 48.261719 27.578125 C 48.890625 27.445312 49.007812 27.003906 48.570312 26.578125 C 48.371094 26.378906 48.175781 26.175781 47.984375 25.96875 C 47.90625 25.882812 47.816406 25.800781 47.988281 25.679688 C 48.617188 25.234375 48.585938 24.601562 48.433594 23.953125 C 48.332031 23.515625 48.03125 23.246094 47.585938 23.199219 C 47.164062 23.152344 46.839844 23.355469 46.59375 23.699219 C 46.515625 23.808594 46.539062 24.03125 46.289062 24 C 46.277344 23.941406 46.265625 23.882812 46.265625 23.828125 C 46.257812 23.75 46.257812 23.671875 46.261719 23.59375 C 46.273438 23.335938 46.183594 23.15625 45.898438 23.160156 C 45.636719 23.160156 45.46875 23.308594 45.5 23.570312 C 45.554688 23.996094 45.347656 24.082031 44.988281 24.03125 C 44.914062 24.019531 44.832031 24.019531 44.753906 24.03125 C 44.472656 24.070312 44.4375 23.921875 44.496094 23.699219 C 44.59375 23.304688 44.703125 22.914062 44.875 22.546875 C 45.421875 21.386719 46.300781 20.550781 47.445312 19.910156 C 47.457031 20.125 47.46875 20.277344 47.484375 20.519531 C 47.953125 20 48.367188 19.539062 48.828125 19.03125 C 48.085938 18.835938 47.425781 18.660156 46.675781 18.464844 C 46.851562 18.707031 46.960938 18.859375 47.082031 19.027344 C 45.050781 19.648438 43.710938 20.964844 43.011719 22.949219 C 42.976562 22.621094 42.984375 22.324219 42.976562 22.03125 C 42.957031 21.5625 43.050781 21.085938 42.921875 20.632812 C 42.636719 19.625 41.871094 19.210938 40.914062 19.070312 C 39.992188 18.9375 39 19.433594 38.558594 20.203125 C 38.484375 20.332031 38.484375 20.507812 38.285156 20.613281 C 38.285156 20.1875 38.273438 19.789062 38.289062 19.394531 C 38.300781 19.132812 38.21875 19.042969 37.949219 19.046875 C 36.417969 19.058594 34.886719 19.050781 33.355469 19.054688 C 33.316406 19.054688 33.28125 19.09375 33.230469 19.121094 C 33.4375 19.328125 33.695312 19.480469 33.679688 19.808594 C 33.933594 20.445312 33.902344 21.128906 33.917969 21.785156 C 33.957031 23.832031 33.9375 25.878906 33.9375 27.921875 C 33.9375 28.042969 33.898438 28.164062 33.878906 28.289062 C 33.738281 28.21875 33.675781 28.117188 33.652344 28.003906 C 33.648438 28.042969 33.640625 28.082031 33.636719 28.125 C 33.652344 28.757812 33.574219 29.367188 33.253906 29.9375 C 33.234375 29.972656 33.214844 30.011719 33.199219 30.050781 C 33.171875 29.949219 33.109375 29.851562 33.015625 29.761719 C 32.8125 29.574219 32.644531 29.339844 32.699219 29.0625 C 32.8125 28.496094 32.566406 27.816406 33.179688 27.390625 C 33.226562 27.355469 33.265625 27.273438 33.246094 27.222656 C 33.003906 26.550781 33.46875 25.972656 33.484375 25.335938 C 33.492188 25.09375 33.378906 24.847656 33.558594 24.613281 C 33.613281 24.542969 33.65625 24.46875 33.691406 24.394531 C 33.714844 24.179688 33.746094 23.964844 33.789062 23.753906 C 33.859375 23.089844 33.816406 22.453125 33.332031 21.925781 C 33.085938 21.65625 32.804688 21.433594 32.453125 21.335938 C 32.050781 21.222656 32.179688 21.113281 32.34375 20.832031 C 32.640625 20.320312 33.085938 20.085938 33.59375 19.902344 C 33.144531 19.820312 32.691406 19.808594 32.375 19.351562 C 32.140625 19.011719 31.507812 18.976562 31.242188 19.289062 C 30.921875 19.671875 30.519531 19.839844 30.035156 19.933594 C 30.296875 20.179688 30.710938 20.007812 30.84375 20.328125 C 30.949219 20.585938 31.089844 20.785156 31.304688 20.953125 C 31.472656 21.082031 31.464844 21.230469 31.25 21.292969 C 30.503906 21.515625 30.03125 21.988281 29.800781 22.738281 C 29.765625 22.839844 29.769531 22.648438 29.71875 22.628906 C 29.722656 22.175781 29.761719 21.722656 29.726562 21.273438 C 29.636719 20.0625 29.113281 18.941406 27.378906 19.046875 C 26.910156 19.074219 26.441406 19.050781 25.972656 19.050781 C 25.246094 19.050781 25.246094 19.050781 25.390625 19.777344 C 25.402344 19.835938 25.410156 19.898438 25.414062 19.960938 C 25.585938 22.773438 25.574219 25.585938 25.382812 28.390625 C 25.335938 29.078125 25.449219 29.851562 24.8125 30.453125 C 25.339844 30.453125 25.867188 30.453125 26.4375 30.453125 C 26.167969 30.824219 25.867188 30.894531 25.5 30.886719 C 24.453125 30.867188 23.402344 30.867188 22.355469 30.890625 C 21.992188 30.898438 21.75 30.761719 21.480469 30.4375 C 22.257812 30.4375 22.96875 30.441406 23.683594 30.433594 C 23.824219 30.433594 24.027344 30.496094 24.03125 30.246094 C 24.035156 29.492188 24.03125 28.738281 24.03125 27.875 C 23.859375 28.078125 23.777344 28.1875 23.683594 28.285156 C 23.289062 28.714844 22.664062 28.847656 22.089844 28.632812 C 21.5 28.414062 21.269531 28.070312 21.265625 27.375 C 21.265625 26.671875 21.292969 25.96875 21.277344 25.265625 C 21.273438 24.921875 21.417969 24.875 21.710938 24.933594 C 22.136719 25.015625 22.441406 25.265625 22.695312 25.59375 C 22.757812 25.671875 22.78125 25.796875 22.9375 25.753906 C 23.109375 25.710938 23.097656 25.59375 23.097656 25.464844 C 23.09375 24.855469 23.089844 24.246094 23.085938 23.636719 C 23.082031 23.511719 23.109375 23.371094 22.960938 23.3125 C 22.777344 23.238281 22.714844 23.398438 22.632812 23.503906 C 22.394531 23.816406 22.066406 23.980469 21.710938 24.113281 C 21.367188 24.246094 21.203125 24.1875 21.230469 23.765625 C 21.277344 23.078125 21.269531 22.390625 21.292969 21.703125 C 21.3125 21.070312 21.625 20.695312 22.246094 20.554688 C 22.882812 20.410156 23.433594 20.644531 23.699219 21.191406 C 23.753906 21.304688 23.757812 21.429688 23.9375 21.40625 C 24.128906 21.378906 24.085938 21.238281 24.089844 21.121094 C 24.09375 20.558594 24.074219 19.996094 24.097656 19.433594 C 24.113281 19.121094 24.007812 19.042969 23.707031 19.042969 C 21.625 19.054688 19.546875 19.0625 17.46875 19.039062 C 17.074219 19.035156 17.027344 19.1875 17.070312 19.503906 C 17.125 19.914062 17.222656 20.328125 17.023438 20.773438 C 16.90625 20.300781 16.851562 19.867188 16.886719 19.429688 C 16.914062 19.113281 16.792969 19.023438 16.492188 19.042969 C 16.339844 19.050781 16.070312 19.164062 16.066406 18.847656 C 16.066406 18.582031 15.90625 18.394531 15.75 18.132812 C 16.105469 18.132812 16.398438 18.132812 16.691406 18.132812 C 18.191406 18.132812 19.691406 18.132812 21.191406 18.132812 C 21.542969 18.132812 21.765625 17.96875 21.769531 17.605469 C 21.769531 17.238281 21.550781 17.078125 21.195312 17.078125 C 21.117188 17.078125 21.039062 17.078125 20.960938 17.078125 C 15.226562 17.078125 9.488281 17.082031 3.75 17.070312 C 3.289062 17.070312 2.898438 17.292969 2.457031 17.355469 C 2.171875 17.394531 2.03125 17.65625 1.96875 17.929688 C 1.945312 18.039062 1.945312 18.167969 1.808594 18.179688 C 1.414062 18.210938 1.265625 18.550781 1.027344 18.78125 C 1.027344 18.9375 1.027344 19.09375 1.027344 19.25 C 1.273438 20.0625 1.273438 20.0625 2.140625 20.136719 C 2.1875 20.140625 2.234375 20.144531 2.28125 20.152344 C 3.019531 20.292969 3.394531 21.058594 3.015625 21.679688 C 2.648438 22.277344 2.425781 22.921875 2.277344 23.597656 C 2.210938 23.890625 2.097656 24.144531 1.832031 24.332031 C 1.507812 24.5625 1.515625 24.773438 1.832031 24.992188 C 2.046875 25.140625 2.160156 25.332031 2.179688 25.574219 C 2.265625 26.542969 2.601562 27.425781 3.089844 28.257812 C 3.179688 28.410156 3.242188 28.566406 3.179688 28.746094 C 3.058594 29.085938 2.476562 29.507812 2.09375 29.53125 C 1.292969 29.574219 1.210938 29.640625 1.027344 30.414062 C 1.027344 30.570312 1.027344 30.726562 1.027344 30.882812 C 1.328125 31.425781 2.007812 31.628906 2.234375 32.246094 C 2.257812 32.308594 2.394531 32.328125 2.472656 32.375 C 2.792969 32.570312 3.386719 32.351562 3.421875 32.992188 C 3.421875 33 3.535156 33.019531 3.585938 33 C 3.738281 32.945312 3.820312 33.039062 3.8125 33.148438 C 3.785156 33.582031 4.125 33.476562 4.316406 33.453125 C 4.617188 33.417969 4.496094 33.136719 4.484375 32.957031 C 4.449219 32.417969 4.957031 31.835938 5.503906 31.832031 C 7.394531 31.832031 9.285156 31.839844 11.175781 31.828125 C 11.449219 31.824219 11.652344 31.929688 11.867188 32.0625 C 12.5625 32.5 13.304688 32.800781 14.148438 32.769531 C 14.878906 32.742188 15.511719 32.449219 16.109375 32.078125 C 16.417969 31.890625 16.722656 31.824219 17.078125 31.828125 C 18.34375 31.84375 19.609375 31.84375 20.878906 31.828125 C 21.296875 31.820312 21.652344 31.914062 22.019531 32.128906 C 23.042969 32.714844 24.152344 32.984375 25.21875 32.351562 C 25.992188 31.890625 26.769531 31.789062 27.617188 31.828125 C 28.085938 31.851562 28.558594 31.84375 29.023438 31.828125 C 29.320312 31.816406 29.558594 31.890625 29.800781 32.070312 C 30.78125 32.789062 31.875 33.046875 32.945312 32.394531 C 33.847656 31.84375 34.777344 31.789062 35.761719 31.832031 C 36.121094 31.84375 36.484375 31.863281 36.839844 31.824219 C 37.390625 31.765625 37.808594 31.953125 38.238281 32.296875 C 40.3125 33.945312 42.144531 34.164062 44.234375 32.699219 C 45.300781 31.949219 46.332031 31.757812 47.527344 31.832031 C 47.792969 31.847656 48.058594 31.816406 48.324219 31.835938 C 48.625 31.859375 48.875 31.78125 49.0625 31.539062 C 49.0625 31.414062 49.0625 31.289062 49.0625 31.164062 C 48.839844 30.941406 48.582031 30.855469 48.261719 30.875 Z M 3.640625 18.335938 C 3.703125 18.03125 3.917969 18.136719 4.078125 18.136719 C 7.089844 18.132812 10.101562 18.140625 13.113281 18.121094 C 13.472656 18.121094 13.566406 18.296875 13.652344 18.601562 C 13.640625 18.625 13.617188 18.679688 13.582031 18.722656 C 13.535156 18.785156 13.476562 18.835938 13.417969 18.890625 C 13.070312 19.226562 12.777344 19.703125 12.363281 19.863281 C 11.917969 20.035156 11.558594 19.484375 11.132812 19.304688 C 9.039062 18.425781 7.035156 18.546875 5.128906 19.78125 C 4.832031 19.972656 4.664062 19.976562 4.441406 19.710938 C 4.234375 19.460938 4.003906 19.214844 3.742188 19.023438 C 3.449219 18.804688 3.59375 18.589844 3.640625 18.335938 Z M 11.894531 23.007812 C 9.632812 22.601562 7.386719 22.617188 5.132812 22.933594 C 5.417969 21.976562 6.855469 21.003906 8.054688 20.941406 C 9.808594 20.847656 11.332031 21.652344 11.894531 23.007812 Z M 2.871094 19.726562 C 2.679688 19.515625 2.527344 19.402344 2.207031 19.5625 C 1.804688 19.761719 1.394531 19.453125 1.40625 18.964844 C 1.433594 18.722656 1.585938 18.527344 1.894531 18.5 C 2.140625 18.476562 2.304688 18.4375 2.269531 18.121094 C 2.242188 17.890625 2.375 17.710938 2.609375 17.621094 C 2.847656 17.53125 3.046875 17.613281 3.207031 17.773438 C 3.371094 17.9375 3.4375 18.167969 3.292969 18.371094 C 3.015625 18.757812 3.191406 19 3.5 19.246094 C 3.730469 19.429688 3.929688 19.652344 4.144531 19.859375 C 4.5 20.203125 4.457031 20.457031 4.015625 20.710938 C 3.84375 20.8125 3.789062 20.679688 3.710938 20.601562 C 3.425781 20.3125 3.140625 20.023438 2.871094 19.726562 Z M 2.671875 24.554688 C 5.515625 23.429688 8.453125 23.355469 11.4375 23.769531 C 12.410156 23.875 13.34375 24.140625 14.335938 24.492188 C 13.957031 24.710938 13.601562 24.746094 13.273438 24.84375 C 12.96875 24.933594 12.742188 24.996094 12.613281 24.527344 C 12.484375 24.058594 11.9375 24.039062 11.515625 23.945312 C 11.320312 23.902344 11.109375 23.941406 10.917969 23.851562 C 9.28125 23.847656 7.640625 23.78125 6.003906 23.933594 C 5.550781 23.976562 5.109375 24.050781 4.703125 24.273438 C 4.675781 24.289062 4.640625 24.304688 4.628906 24.328125 C 4.082031 25.328125 3.328125 24.539062 2.671875 24.554688 Z M 14.875 24.363281 C 14.71875 24.347656 14.660156 24.222656 14.632812 24.027344 C 14.503906 23.019531 14.125 22.105469 13.523438 21.289062 C 13.386719 21.101562 13.367188 20.992188 13.542969 20.824219 C 13.851562 20.539062 14.132812 20.222656 14.429688 19.921875 C 14.511719 19.835938 14.585938 19.683594 14.722656 19.734375 C 14.878906 19.785156 14.871094 19.964844 14.871094 20.09375 C 14.878906 21.511719 14.875 22.929688 14.875 24.363281 Z M 14.875 24.714844 C 15.042969 24.714844 14.992188 24.875 14.988281 24.96875 C 14.949219 26.582031 14.871094 28.195312 14.59375 29.828125 C 14.21875 29.464844 13.878906 29.128906 13.53125 28.804688 C 13.398438 28.679688 13.480469 28.585938 13.550781 28.488281 C 14.3125 27.449219 14.644531 26.269531 14.722656 25 C 14.730469 24.882812 14.695312 24.71875 14.875 24.714844 Z M 13.121094 30.46875 C 13.230469 30.574219 13.375 30.644531 13.453125 30.800781 C 12.734375 30.816406 11.972656 31.148438 11.484375 30.355469 C 12.363281 29.730469 12.363281 29.734375 13.121094 30.46875 Z M 3.523438 30.382812 C 3.242188 30.644531 2.929688 30.84375 3.242188 31.339844 C 3.449219 31.671875 3.179688 32.035156 2.785156 32.078125 C 2.40625 32.117188 2.195312 31.902344 2.242188 31.554688 C 2.285156 31.1875 2.050781 31.246094 1.855469 31.203125 C 1.523438 31.128906 1.304688 30.929688 1.355469 30.582031 C 1.394531 30.285156 1.582031 30.074219 1.914062 30.050781 C 2.777344 30.480469 3.019531 29.648438 3.449219 29.261719 C 3.746094 28.992188 3.894531 28.914062 4.191406 29.253906 C 4.398438 29.492188 4.355469 29.589844 4.160156 29.761719 C 3.9375 29.957031 3.738281 30.175781 3.523438 30.382812 Z M 4.269531 32.242188 C 4.199219 32.273438 4.054688 32.128906 4.0625 32.042969 C 4.085938 31.859375 4.230469 31.707031 4.398438 31.652344 C 4.53125 31.609375 4.503906 31.804688 4.578125 31.878906 C 4.554688 32.0625 4.410156 32.175781 4.269531 32.242188 Z M 4.980469 31.558594 C 4.902344 31.628906 4.839844 31.667969 4.769531 31.539062 C 4.558594 31.144531 5.003906 31.105469 5.117188 30.800781 C 5.394531 31.1875 5.191406 31.375 4.980469 31.558594 Z M 3.542969 30.855469 C 3.839844 30.449219 4.222656 30.164062 4.550781 29.828125 C 4.652344 29.71875 4.734375 29.769531 4.828125 29.839844 C 4.976562 29.953125 5.136719 30.050781 5.324219 30.171875 C 4.644531 30.933594 4.644531 30.933594 3.542969 30.855469 Z M 4.6875 25.789062 C 4.460938 24.753906 4.652344 24.480469 5.707031 24.3125 C 6.742188 24.148438 7.785156 24.136719 8.832031 24.136719 C 9.816406 24.132812 10.796875 24.128906 11.769531 24.324219 C 12.214844 24.410156 12.414062 24.636719 12.390625 25.132812 C 12.3125 26.996094 10.808594 28.628906 8.960938 28.804688 C 6.855469 29.003906 5.128906 27.785156 4.6875 25.789062 Z M 10.09375 29.550781 C 9.960938 29.699219 9.820312 29.816406 9.5625 29.699219 C 9.722656 29.511719 9.917969 29.5625 10.09375 29.550781 Z M 9.8125 28.941406 C 9.96875 28.914062 9.9375 29.085938 10.011719 29.117188 C 10.039062 29.292969 9.925781 29.277344 9.839844 29.296875 C 9.6875 29.332031 9.65625 29.238281 9.644531 29.117188 C 9.632812 28.992188 9.722656 28.960938 9.8125 28.941406 Z M 9.429688 30.078125 C 9.429688 30.089844 9.292969 30.148438 9.234375 30.132812 C 9 30.070312 9.058594 29.875 9.023438 29.664062 C 9.257812 29.757812 9.402344 29.867188 9.429688 30.078125 Z M 8.910156 29.292969 C 8.898438 29.074219 9.0625 29.105469 9.207031 29.089844 C 9.339844 29.058594 9.402344 29.144531 9.394531 29.265625 C 9.375 29.457031 9.195312 29.417969 9.078125 29.449219 C 8.960938 29.476562 8.914062 29.402344 8.910156 29.292969 Z M 8.421875 29.679688 C 8.722656 29.679688 8.761719 29.878906 8.773438 30.066406 C 8.789062 30.339844 8.554688 30.214844 8.429688 30.21875 C 8.308594 30.222656 8.097656 30.3125 8.089844 30.066406 C 8.164062 29.886719 8.136719 29.683594 8.421875 29.679688 Z M 8.261719 29.3125 C 8.257812 29.183594 8.3125 29.109375 8.445312 29.109375 C 8.5625 29.105469 8.660156 29.125 8.664062 29.273438 C 8.664062 29.394531 8.617188 29.472656 8.480469 29.472656 C 8.367188 29.472656 8.265625 29.460938 8.261719 29.3125 Z M 7.832031 29.417969 C 7.726562 29.371094 7.515625 29.472656 7.519531 29.246094 C 7.523438 29.128906 7.601562 29.042969 7.738281 29.082031 C 7.859375 29.113281 8.042969 29.039062 8.046875 29.261719 C 8.039062 29.40625 7.957031 29.476562 7.832031 29.417969 Z M 7.851562 29.648438 C 7.8125 29.992188 7.800781 30.28125 7.355469 30.003906 C 7.464844 29.824219 7.632812 29.75 7.851562 29.648438 Z M 7.304688 29.105469 C 7.304688 29.238281 7.222656 29.296875 7.09375 29.285156 C 7.015625 29.28125 6.921875 29.261719 6.9375 29.164062 C 6.949219 29.058594 7.007812 28.949219 7.132812 28.941406 C 7.234375 28.929688 7.308594 28.988281 7.304688 29.105469 Z M 6.058594 30.570312 C 6.035156 30.609375 5.996094 30.636719 5.960938 30.664062 C 5.84375 30.761719 5.722656 30.855469 5.601562 30.957031 C 5.449219 30.605469 5.578125 30.265625 5.882812 30.144531 C 5.953125 30.117188 6.003906 30.109375 6.035156 30.175781 C 6.101562 30.300781 6.128906 30.433594 6.058594 30.570312 Z M 6.496094 30.304688 C 6.210938 29.917969 6.320312 29.722656 6.605469 29.550781 C 6.746094 29.464844 6.828125 29.464844 6.890625 29.613281 C 7.074219 30.035156 6.585938 29.992188 6.496094 30.304688 Z M 9.859375 30.804688 C 9.460938 31.167969 9.023438 31.449219 8.339844 31.453125 C 7.757812 31.460938 7.257812 31.066406 6.789062 30.621094 C 6.730469 30.570312 6.664062 30.496094 6.75 30.429688 C 6.851562 30.351562 6.933594 30.214844 7.109375 30.28125 C 7.9375 30.59375 8.78125 30.609375 9.628906 30.378906 C 9.816406 30.328125 9.890625 30.441406 9.972656 30.546875 C 10.074219 30.679688 9.929688 30.742188 9.859375 30.804688 Z M 9.972656 30.054688 C 10.378906 29.699219 10.601562 29.941406 10.808594 30.242188 C 10.375 30.535156 10.375 30.535156 9.972656 30.054688 Z M 11.378906 31.003906 C 10.984375 31.324219 10.921875 30.855469 10.691406 30.753906 C 10.988281 30.453125 11.226562 30.550781 11.449219 30.800781 C 11.550781 30.910156 11.449219 30.945312 11.378906 31.003906 Z M 11.464844 31.371094 C 11.800781 30.964844 12.019531 31.242188 12.25 31.433594 C 11.933594 31.769531 11.933594 31.769531 11.464844 31.371094 Z M 12.300781 31.933594 C 12.542969 31.53125 12.804688 31.6875 13.078125 31.871094 C 12.816406 32.339844 12.566406 32.09375 12.300781 31.933594 Z M 13.191406 32.34375 C 13.335938 31.949219 13.597656 31.972656 13.890625 32.035156 C 13.84375 32.597656 13.511719 32.394531 13.191406 32.34375 Z M 14.796875 32.203125 C 14.710938 32.546875 14.390625 32.359375 14.152344 32.554688 C 14.164062 32.101562 14.351562 31.988281 14.636719 31.980469 C 14.804688 31.976562 14.820312 32.109375 14.796875 32.203125 Z M 15.132812 32.167969 C 15.113281 32.164062 15.085938 32.035156 15.109375 32.003906 C 15.25 31.835938 15.421875 31.921875 15.644531 31.9375 C 15.46875 32.105469 15.328125 32.207031 15.132812 32.167969 Z M 15.207031 31.316406 C 14.867188 31.34375 14.753906 31.769531 14.394531 31.710938 C 14.316406 31.699219 14.238281 31.71875 14.085938 31.726562 C 13.792969 31.78125 13.71875 31.589844 13.898438 31.335938 C 14.125 31.019531 13.980469 30.851562 13.753906 30.648438 C 13.429688 30.359375 13.132812 30.039062 12.8125 29.742188 C 12.460938 29.417969 12.894531 29.347656 12.992188 29.175781 C 13.105469 28.976562 13.238281 28.945312 13.414062 29.148438 C 13.625 29.398438 13.871094 29.617188 14.101562 29.851562 C 14.132812 29.882812 14.191406 29.914062 14.195312 29.949219 C 14.234375 30.671875 14.78125 30.382812 15.15625 30.441406 C 15.371094 30.472656 15.699219 30.289062 15.75 30.691406 C 15.796875 31.085938 15.546875 31.289062 15.207031 31.316406 Z M 15.734375 18.953125 C 15.675781 19.113281 15.523438 19.042969 15.40625 19.046875 C 15.082031 19.054688 14.753906 19.050781 14.289062 19.050781 C 14.546875 19.289062 14.484375 19.4375 14.316406 19.59375 C 13.996094 19.894531 13.671875 20.195312 13.398438 20.53125 C 13.113281 20.886719 12.988281 20.601562 12.785156 20.449219 C 12.5 20.234375 12.609375 20.09375 12.8125 19.910156 C 13.136719 19.617188 13.433594 19.292969 13.757812 19.003906 C 13.992188 18.796875 14.113281 18.617188 13.898438 18.308594 C 13.746094 18.09375 13.746094 17.839844 13.960938 17.628906 C 14.136719 17.457031 14.351562 17.421875 14.570312 17.496094 C 14.777344 17.570312 14.914062 17.742188 14.890625 17.960938 C 14.859375 18.257812 14.96875 18.339844 15.246094 18.34375 C 15.371094 18.347656 15.507812 18.445312 15.613281 18.53125 C 15.738281 18.632812 15.796875 18.792969 15.734375 18.953125 Z M 16.789062 30.507812 C 16.632812 30.597656 16.476562 30.699219 16.3125 30.78125 C 16.242188 30.816406 16.15625 30.929688 16.078125 30.816406 C 16.039062 30.761719 16.050781 30.667969 16.046875 30.589844 C 16.042969 30.46875 16.121094 30.433594 16.226562 30.429688 C 16.410156 30.421875 16.597656 30.410156 16.785156 30.402344 C 16.664062 29.75 16.550781 29.097656 16.707031 28.363281 C 16.917969 28.976562 17.113281 29.511719 17.285156 30.058594 C 17.441406 30.542969 16.984375 30.386719 16.789062 30.507812 Z M 17.765625 30.792969 C 17.683594 30.804688 17.609375 30.800781 17.617188 30.6875 C 17.625 30.585938 17.683594 30.523438 17.789062 30.515625 C 17.875 30.511719 17.945312 30.535156 17.945312 30.632812 C 17.949219 30.75 17.863281 30.777344 17.765625 30.792969 Z M 18.4375 30.609375 C 18.351562 30.632812 18.28125 30.605469 18.28125 30.511719 C 18.28125 30.367188 18.410156 30.359375 18.511719 30.335938 C 18.601562 30.320312 18.660156 30.359375 18.664062 30.453125 C 18.671875 30.617188 18.546875 30.601562 18.4375 30.609375 Z M 19.285156 19.382812 C 19.960938 20.667969 19.875 29.15625 19.171875 29.996094 C 18.960938 26.441406 18.914062 22.972656 19.285156 19.382812 Z M 19.292969 30.453125 C 19.269531 30.546875 19.207031 30.582031 19.121094 30.574219 C 19.027344 30.5625 18.988281 30.5 19.003906 30.410156 C 19.019531 30.3125 19.101562 30.304688 19.164062 30.292969 C 19.273438 30.308594 19.316406 30.359375 19.292969 30.453125 Z M 19.824219 30.621094 C 19.730469 30.609375 19.597656 30.621094 19.609375 30.453125 C 19.617188 30.28125 19.738281 30.324219 19.84375 30.316406 C 19.914062 30.339844 20.054688 30.273438 20.035156 30.425781 C 20.023438 30.527344 19.953125 30.636719 19.824219 30.621094 Z M 20.410156 30.792969 C 20.332031 30.785156 20.242188 30.757812 20.292969 30.652344 C 20.34375 30.550781 20.382812 30.40625 20.542969 30.441406 C 20.621094 30.457031 20.6875 30.519531 20.761719 30.566406 C 20.65625 30.707031 20.566406 30.808594 20.410156 30.792969 Z M 21.042969 31.085938 C 20.976562 31.09375 20.863281 31.074219 20.867188 30.984375 C 20.875 30.824219 21.023438 30.765625 21.144531 30.722656 C 21.21875 30.699219 21.3125 30.769531 21.359375 30.863281 C 21.289062 30.988281 21.179688 31.0625 21.042969 31.085938 Z M 21.992188 31.53125 C 21.683594 31.773438 21.585938 31.417969 21.378906 31.347656 C 21.574219 31.011719 21.765625 31.105469 21.980469 31.285156 C 22.089844 31.378906 22.105469 31.445312 21.992188 31.53125 Z M 23.097656 32.082031 C 23.027344 32.179688 22.9375 32.21875 22.816406 32.160156 C 22.609375 32.0625 22.398438 31.96875 22.132812 31.847656 C 22.394531 31.667969 23.042969 31.757812 23.144531 31.921875 C 23.191406 32.003906 23.128906 32.035156 23.097656 32.082031 Z M 23.902344 32.164062 C 23.914062 32.367188 23.796875 32.382812 23.660156 32.371094 C 23.558594 32.359375 23.390625 32.367188 23.40625 32.246094 C 23.421875 32.128906 23.539062 32.003906 23.703125 32.003906 C 23.824219 32.007812 23.925781 32.03125 23.902344 32.164062 Z M 24.601562 32.089844 C 24.617188 32.257812 24.496094 32.3125 24.34375 32.332031 C 24.195312 32.355469 24.214844 32.242188 24.203125 32.152344 C 24.183594 31.960938 24.300781 31.917969 24.460938 31.902344 C 24.59375 31.894531 24.621094 31.960938 24.601562 32.089844 Z M 24.992188 32.09375 C 24.984375 32.09375 24.949219 31.96875 24.972656 31.9375 C 25.074219 31.789062 25.21875 31.847656 25.375 31.871094 C 25.277344 32.035156 25.144531 32.085938 24.992188 32.09375 Z M 32.492188 22.703125 C 33.0625 23.148438 33.0625 23.820312 32.492188 24.285156 C 32.492188 23.75 32.492188 23.238281 32.492188 22.703125 Z M 31.003906 22.71875 C 31.003906 23.246094 31.003906 23.722656 31.003906 24.25 C 30.550781 23.71875 30.546875 23.292969 31.003906 22.71875 Z M 27.183594 30.75 C 27.070312 30.988281 26.855469 30.800781 26.691406 30.832031 C 26.808594 30.65625 26.953125 30.558594 27.140625 30.550781 C 27.15625 30.550781 27.207031 30.699219 27.183594 30.75 Z M 27.285156 25.792969 C 27.078125 25.71875 27.183594 25.496094 27.179688 25.339844 C 27.171875 23.875 27.183594 22.40625 27.171875 20.9375 C 27.167969 20.570312 27.277344 20.5 27.601562 20.644531 C 27.941406 20.796875 28.113281 21.039062 28.109375 21.40625 C 28.109375 21.96875 28.109375 22.53125 28.109375 23.21875 C 28.074219 23.761719 28.167969 24.433594 28.0625 25.101562 C 28.03125 25.292969 27.976562 25.464844 27.832031 25.597656 C 27.675781 25.738281 27.488281 25.863281 27.285156 25.792969 Z M 27.625 30.78125 C 27.480469 30.804688 27.496094 30.683594 27.492188 30.597656 C 27.484375 30.457031 27.535156 30.351562 27.691406 30.328125 C 27.808594 30.3125 27.871094 30.359375 27.859375 30.472656 C 27.871094 30.648438 27.785156 30.75 27.625 30.78125 Z M 28.28125 30.707031 C 28.109375 30.625 28.125 30.488281 28.199219 30.410156 C 28.402344 30.195312 28.613281 30.351562 28.839844 30.425781 C 28.707031 30.6875 28.582031 30.84375 28.28125 30.707031 Z M 29.003906 31.042969 C 28.839844 30.878906 28.957031 30.792969 29.054688 30.714844 C 29.375 30.449219 29.472656 30.828125 29.703125 30.917969 C 29.476562 31.152344 29.292969 31.34375 29.003906 31.042969 Z M 30.25 31.703125 C 29.910156 32.007812 29.800781 31.574219 29.457031 31.519531 C 29.75 31.375 29.859375 31.003906 30.136719 31.351562 C 30.210938 31.445312 30.453125 31.519531 30.25 31.703125 Z M 30.882812 32.292969 C 30.730469 32.226562 30.480469 32.226562 30.425781 32.019531 C 30.394531 31.910156 30.59375 31.773438 30.726562 31.835938 C 30.882812 31.90625 31.140625 31.84375 31.183594 32.058594 C 31.203125 32.148438 31.097656 32.324219 30.882812 32.292969 Z M 31.675781 32.445312 C 31.574219 32.417969 31.402344 32.46875 31.445312 32.296875 C 31.484375 32.128906 31.59375 31.992188 31.808594 32.003906 C 31.953125 32.011719 32.058594 32.027344 32.050781 32.203125 C 32.039062 32.472656 31.8125 32.390625 31.675781 32.445312 Z M 32.519531 32.265625 C 32.34375 32.296875 32.367188 32.179688 32.359375 32.09375 C 32.351562 31.949219 32.398438 31.851562 32.5625 31.84375 C 32.710938 31.835938 32.757812 31.925781 32.757812 32.046875 C 32.761719 32.21875 32.59375 32.203125 32.519531 32.265625 Z M 30.769531 30.648438 C 30.457031 30.648438 30.136719 30.617188 29.886719 30.40625 C 29.359375 29.964844 28.746094 29.757812 28.078125 29.726562 C 27.6875 29.707031 27.503906 29.519531 27.460938 29.160156 C 27.417969 28.804688 27.414062 28.445312 27.371094 28.089844 C 27.335938 27.800781 27.484375 27.617188 27.769531 27.539062 C 27.96875 27.488281 28.164062 27.445312 28.359375 27.378906 C 29.230469 27.082031 29.84375 26.570312 29.925781 25.605469 C 29.941406 25.75 29.984375 25.882812 30.070312 25.980469 C 30.34375 26.285156 30.300781 26.566406 30.210938 26.886719 C 30.132812 27.171875 30.148438 27.410156 30.460938 27.554688 C 30.671875 27.648438 30.714844 27.855469 30.722656 28.066406 C 30.730469 28.332031 30.714844 28.597656 30.761719 28.863281 C 30.816406 29.144531 30.707031 29.351562 30.445312 29.472656 C 30.246094 29.566406 30.066406 29.695312 29.941406 29.878906 C 29.757812 30.15625 29.886719 30.453125 30.214844 30.515625 C 30.371094 30.546875 30.535156 30.546875 30.675781 30.480469 C 31.296875 30.179688 31.894531 30.050781 32.507812 30.519531 C 32.6875 30.65625 32.976562 30.695312 33.136719 30.4375 C 33.152344 30.410156 33.167969 30.382812 33.179688 30.355469 C 33.210938 30.460938 33.296875 30.5625 33.453125 30.644531 C 32.523438 30.65625 31.644531 30.652344 30.769531 30.648438 Z M 47.3125 27.765625 C 47.128906 27.8125 47.046875 27.675781 46.847656 27.5 C 47.105469 27.523438 47.289062 27.40625 47.390625 27.621094 C 47.414062 27.671875 47.382812 27.746094 47.3125 27.765625 Z M 46.621094 26.914062 C 46.625 26.828125 46.648438 26.746094 46.742188 26.78125 C 46.890625 26.835938 47.105469 26.800781 47.121094 27.046875 C 47.128906 27.195312 47.015625 27.15625 46.933594 27.152344 C 46.78125 27.140625 46.613281 27.144531 46.621094 26.914062 Z M 47.308594 25.703125 C 47.449219 25.773438 47.589844 25.835938 47.503906 26 C 47.484375 26.039062 47.378906 26.078125 47.347656 26.058594 C 47.191406 25.964844 47.324219 25.824219 47.308594 25.703125 Z M 47.703125 27.097656 C 47.996094 26.949219 48.175781 26.855469 48.460938 26.710938 C 48.277344 27.074219 48.085938 27.160156 47.703125 27.097656 Z M 47.625 26.300781 C 47.855469 26.277344 48.039062 26.398438 48.015625 26.523438 C 47.96875 26.761719 47.679688 26.761719 47.496094 26.804688 C 47.296875 26.851562 47.277344 26.628906 47.285156 26.484375 C 47.300781 26.210938 47.539062 26.351562 47.625 26.300781 Z M 47.253906 24.222656 C 47.449219 24.210938 47.496094 24.363281 47.523438 24.484375 C 47.558594 24.628906 47.464844 24.796875 47.335938 24.804688 C 47.195312 24.816406 47.039062 24.683594 47.003906 24.542969 C 46.960938 24.375 47.125 24.289062 47.253906 24.222656 Z M 46.808594 24.910156 C 46.960938 24.992188 47.128906 25.070312 47.15625 25.25 C 47.167969 25.328125 47.128906 25.507812 47.007812 25.488281 C 46.871094 25.464844 46.6875 25.390625 46.667969 25.226562 C 46.652344 25.132812 46.675781 24.980469 46.808594 24.910156 Z M 46.6875 25.707031 C 46.914062 25.738281 47.050781 25.914062 47 26.179688 C 46.972656 26.3125 47.0625 26.5 46.789062 26.472656 C 46.476562 26.441406 46.539062 26.222656 46.53125 26.023438 C 46.578125 25.917969 46.441406 25.671875 46.6875 25.707031 Z M 46.640625 28.570312 C 46.714844 28.535156 46.925781 28.664062 46.886719 28.828125 C 46.84375 29.027344 46.738281 29.210938 46.65625 29.410156 C 46.492188 29.320312 46.355469 29.222656 46.363281 29.09375 C 46.375 28.890625 46.449219 28.664062 46.640625 28.570312 Z M 45.21875 24.964844 C 45.460938 24.980469 45.488281 25.078125 45.496094 25.28125 C 45.519531 25.910156 45.597656 25.96875 46.230469 25.871094 C 46.222656 26.433594 46.257812 26.976562 46.476562 27.515625 C 46.617188 27.851562 46.375 28.214844 46.21875 28.523438 C 46.105469 28.75 45.988281 28.480469 45.921875 28.410156 C 45.246094 27.675781 44.816406 26.804688 44.566406 25.84375 C 44.558594 25.8125 44.5625 25.78125 44.554688 25.75 C 44.371094 24.941406 44.398438 24.917969 45.21875 24.964844 Z M 40.457031 21.289062 C 40.671875 21.183594 40.933594 21.175781 40.976562 21.464844 C 41.050781 21.953125 41.125 22.453125 40.992188 22.949219 C 40.9375 23.148438 40.777344 23.25 40.589844 23.484375 C 41.246094 23.484375 41.820312 23.503906 42.390625 23.476562 C 42.765625 23.457031 42.957031 23.5 42.878906 23.964844 C 42.808594 24.375 42.835938 24.808594 42.863281 25.226562 C 42.886719 25.523438 42.789062 25.605469 42.503906 25.597656 C 41.925781 25.578125 41.351562 25.589844 40.695312 25.589844 C 40.984375 26.199219 41.003906 26.796875 41.015625 27.394531 C 41.023438 27.710938 40.988281 28.042969 40.589844 28.046875 C 40.203125 28.050781 40.148438 27.726562 40.148438 27.410156 C 40.148438 25.582031 40.152344 23.753906 40.148438 21.925781 C 40.148438 21.65625 40.203125 21.417969 40.457031 21.289062 Z M 38.273438 28.496094 C 38.355469 28.707031 38.386719 28.789062 38.414062 28.871094 C 38.816406 30.015625 39.726562 30.636719 40.738281 30.46875 C 42.113281 30.238281 42.964844 29.328125 42.976562 28.078125 C 42.980469 27.53125 42.976562 26.984375 42.976562 26.433594 C 43.121094 26.417969 43.121094 26.523438 43.148438 26.605469 C 43.566406 27.792969 44.308594 28.730469 45.355469 29.425781 C 45.59375 29.582031 45.636719 29.6875 45.472656 29.957031 C 45.070312 30.625 44.585938 30.945312 43.742188 30.90625 C 42.011719 30.824219 40.273438 30.871094 38.539062 30.890625 C 38.152344 30.894531 37.851562 30.777344 37.582031 30.523438 C 37.605469 30.492188 37.621094 30.453125 37.640625 30.449219 C 38.273438 30.402344 38.273438 30.40625 38.273438 29.742188 C 38.273438 29.371094 38.273438 29.003906 38.273438 28.496094 Z M 43.460938 31.871094 C 42.371094 32.75 40.96875 32.769531 39.730469 31.871094 C 41.003906 31.871094 42.222656 31.871094 43.460938 31.871094 Z M 35.632812 30.585938 C 35.601562 30.679688 35.582031 30.808594 35.460938 30.824219 C 35.339844 30.839844 35.324219 30.726562 35.324219 30.632812 C 35.324219 30.511719 35.359375 30.421875 35.507812 30.429688 C 35.605469 30.4375 35.640625 30.488281 35.632812 30.585938 Z M 35.472656 27.554688 C 35.453125 26.808594 35.472656 26.054688 35.464844 25.308594 C 35.460938 25.042969 35.511719 24.9375 35.8125 25.027344 C 36.222656 25.15625 36.589844 25.339844 36.875 25.664062 C 36.972656 25.777344 37.0625 25.875 37.226562 25.816406 C 37.398438 25.757812 37.332031 25.609375 37.332031 25.5 C 37.339844 24.890625 37.339844 24.28125 37.335938 23.671875 C 37.335938 23.535156 37.375 23.375 37.199219 23.3125 C 37.003906 23.242188 36.949219 23.410156 36.882812 23.519531 C 36.636719 23.929688 36.25 24.09375 35.804688 24.183594 C 35.574219 24.230469 35.460938 24.1875 35.464844 23.914062 C 35.476562 23.164062 35.457031 22.414062 35.472656 21.664062 C 35.484375 21.09375 35.824219 20.710938 36.378906 20.566406 C 36.984375 20.410156 37.519531 20.675781 37.878906 21.058594 C 38.316406 21.519531 38.257812 22.03125 38.257812 22.558594 C 38.261719 23.261719 38.261719 23.964844 38.261719 24.667969 C 38.261719 25.605469 38.261719 26.542969 38.257812 27.480469 C 38.257812 28.148438 37.625 28.714844 36.886719 28.722656 C 36.070312 28.734375 35.488281 28.269531 35.472656 27.554688 Z M 36.140625 30.695312 C 36.0625 30.6875 35.925781 30.722656 35.964844 30.566406 C 36 30.433594 36.121094 30.433594 36.234375 30.433594 C 36.3125 30.4375 36.386719 30.441406 36.40625 30.527344 C 36.355469 30.664062 36.261719 30.707031 36.140625 30.695312 Z M 36.96875 30.964844 C 36.855469 30.949219 36.691406 30.925781 36.703125 30.777344 C 36.710938 30.675781 36.800781 30.535156 36.945312 30.570312 C 37.0625 30.601562 37.167969 30.691406 37.28125 30.753906 C 37.191406 30.902344 37.097656 30.988281 36.96875 30.964844 Z M 37.695312 31.429688 C 37.554688 31.433594 37.40625 31.328125 37.375 31.210938 C 37.339844 31.085938 37.507812 31.007812 37.617188 31 C 37.753906 30.984375 37.859375 31.097656 37.953125 31.203125 C 37.894531 31.308594 37.820312 31.425781 37.695312 31.429688 Z M 38.113281 31.8125 C 38.03125 31.722656 37.972656 31.664062 38.085938 31.546875 C 38.339844 31.28125 38.484375 31.546875 38.726562 31.675781 C 38.507812 31.84375 38.367188 32.066406 38.113281 31.8125 Z M 38.839844 32.355469 C 38.765625 32.285156 38.574219 32.253906 38.722656 32.09375 C 38.992188 31.796875 39.234375 31.941406 39.476562 32.171875 C 39.308594 32.398438 39.15625 32.648438 38.839844 32.355469 Z M 39.90625 32.949219 C 39.738281 32.933594 39.484375 32.867188 39.464844 32.683594 C 39.449219 32.542969 39.65625 32.382812 39.816406 32.363281 C 39.976562 32.347656 40.125 32.46875 40.253906 32.582031 C 40.148438 32.75 40.105469 32.972656 39.90625 32.949219 Z M 41.058594 32.921875 C 41.019531 33.101562 40.902344 33.300781 40.636719 33.226562 C 40.511719 33.195312 40.308594 33.199219 40.375 33.015625 C 40.425781 32.882812 40.496094 32.640625 40.757812 32.742188 C 40.863281 32.804688 41.101562 32.707031 41.058594 32.921875 Z M 42.007812 33.070312 C 41.871094 33.496094 41.542969 33.277344 41.265625 33.308594 C 41.359375 32.929688 41.574219 32.792969 41.925781 32.855469 C 42.070312 32.878906 42.03125 32.988281 42.007812 33.070312 Z M 42.335938 33.175781 C 42.316406 32.621094 42.789062 32.664062 43.113281 32.511719 C 43.160156 33.035156 43.113281 33.074219 42.335938 33.175781 Z M 44.148438 32.441406 C 43.933594 32.550781 43.75 32.734375 43.480469 32.753906 C 43.351562 32.238281 43.757812 32.152344 44.015625 31.964844 C 44.136719 31.875 44.164062 31.996094 44.195312 32.082031 C 44.246094 32.210938 44.328125 32.34375 44.148438 32.441406 Z M 44.691406 32.0625 C 44.582031 32.152344 44.527344 32.066406 44.484375 31.972656 C 44.390625 31.769531 44.390625 31.585938 44.605469 31.457031 C 44.726562 31.382812 44.769531 31.144531 44.949219 31.238281 C 45.054688 31.292969 45.101562 31.460938 45.1875 31.597656 C 45.074219 31.808594 44.863281 31.917969 44.691406 32.0625 Z M 45.472656 31.324219 C 45.023438 30.914062 45.296875 30.632812 45.601562 30.351562 C 45.984375 30.796875 45.984375 30.796875 45.472656 31.324219 Z M 46.0625 29.582031 C 46.15625 29.449219 46.203125 29.476562 46.300781 29.570312 C 46.671875 29.945312 46.1875 30.117188 46.164062 30.421875 C 45.734375 30.140625 45.847656 29.875 46.0625 29.582031 Z M 46.996094 30.488281 C 46.882812 30.816406 46.679688 30.972656 46.269531 30.839844 C 46.386719 30.632812 46.492188 30.445312 46.59375 30.253906 C 46.691406 30.070312 46.816406 30.164062 46.949219 30.207031 C 47.167969 30.277344 47.035156 30.382812 46.996094 30.488281 Z M 46.96875 28.355469 C 46.839844 28.308594 46.707031 28.257812 46.71875 28.082031 C 46.726562 27.996094 46.769531 27.914062 46.855469 27.949219 C 46.976562 27.992188 47.121094 28.042969 47.105469 28.164062 C 47.085938 28.300781 47.078125 28.390625 46.96875 28.355469 Z M 46.96875 28.355469 "/>
<path style=" stroke:none;fill-rule:nonzero;fill:rgb(0%,0%,0%);fill-opacity:1;" d="M 48.28125 17.0625 C 43.8125 17.070312 39.34375 17.066406 34.875 17.066406 C 34.78125 17.066406 34.6875 17.066406 34.59375 17.074219 C 34.269531 17.097656 34.121094 17.289062 34.125 17.601562 C 34.128906 18.074219 34.4375 18.140625 34.824219 18.140625 C 39.324219 18.136719 43.824219 18.136719 48.324219 18.144531 C 48.632812 18.144531 48.863281 18.054688 49.0625 17.839844 C 49.0625 17.683594 49.0625 17.527344 49.0625 17.371094 C 48.859375 17.125 48.601562 17.0625 48.28125 17.0625 Z M 48.28125 17.0625 "/>
<path style=" stroke:none;fill-rule:nonzero;fill:rgb(0%,0%,0%);fill-opacity:1;" d="M 24.847656 18.097656 C 24.542969 18.132812 24.554688 18.273438 24.542969 18.492188 C 24.53125 18.75 24.644531 18.804688 24.878906 18.800781 C 25.765625 18.78125 26.472656 18.476562 26.839844 17.578125 C 26.875 17.75 26.875 17.898438 26.878906 18.050781 C 26.886719 18.644531 27.042969 18.808594 27.621094 18.820312 C 28.027344 18.828125 28.433594 18.808594 28.839844 18.824219 C 29.113281 18.835938 29.179688 18.726562 29.179688 18.472656 C 29.183594 18.199219 29.085938 18.117188 28.828125 18.132812 C 28.53125 18.152344 28.234375 18.125 27.9375 18.140625 C 27.714844 18.148438 27.644531 18.0625 27.636719 17.84375 C 27.617188 17.515625 27.660156 17.296875 28.074219 17.351562 C 28.320312 17.386719 28.574219 17.359375 28.824219 17.359375 C 28.914062 17.363281 29.054688 17.347656 29.054688 17.457031 C 29.050781 17.863281 29.34375 17.738281 29.546875 17.746094 C 29.984375 17.753906 30.421875 17.75 30.859375 17.746094 C 31.480469 17.746094 31.480469 17.746094 31.433594 17.109375 C 31.824219 16.992188 32.238281 16.9375 32.59375 17.136719 C 32.742188 17.21875 32.105469 17.972656 31.742188 18.097656 C 31.714844 18.105469 31.679688 18.117188 31.652344 18.117188 C 31.21875 18.066406 31.328125 18.386719 31.335938 18.605469 C 31.34375 18.960938 31.613281 18.796875 31.789062 18.804688 C 31.980469 18.808594 32.191406 18.769531 32.316406 18.648438 C 32.679688 18.28125 32.980469 18.304688 33.308594 18.691406 C 33.394531 18.792969 33.554688 18.878906 33.777344 18.839844 C 33.675781 18.601562 33.898438 18.296875 33.628906 18.109375 C 33.25 17.847656 33.265625 17.546875 33.363281 17.144531 C 33.539062 16.421875 33.449219 16.339844 32.734375 16.339844 C 32.449219 16.339844 32.167969 16.351562 31.886719 16.335938 C 31.628906 16.320312 31.457031 16.363281 31.503906 16.683594 C 31.523438 16.8125 31.492188 16.941406 31.328125 16.9375 C 31.289062 16.925781 31.246094 16.929688 31.199219 16.9375 C 31.054688 16.933594 30.90625 16.9375 30.757812 16.941406 C 30.542969 16.9375 30.324219 16.949219 30.109375 16.957031 C 29.796875 16.957031 29.484375 16.941406 29.175781 16.878906 C 29.203125 16.589844 29.230469 16.277344 28.898438 16.160156 C 28.621094 16.0625 28.40625 16.164062 28.265625 16.472656 C 28.164062 16.699219 27.746094 16.65625 27.652344 16.414062 C 27.59375 16.269531 27.527344 16.234375 27.390625 16.207031 C 26.941406 16.121094 26.667969 16.648438 26.21875 16.53125 C 26.199219 16.605469 26.171875 16.675781 26.164062 16.753906 C 26.050781 17.746094 25.855469 17.976562 24.847656 18.097656 Z M 28.511719 16.53125 C 28.527344 16.402344 28.601562 16.335938 28.730469 16.339844 C 28.882812 16.347656 28.9375 16.449219 28.96875 16.566406 C 28.925781 16.710938 28.855469 16.8125 28.703125 16.796875 C 28.554688 16.777344 28.496094 16.671875 28.511719 16.53125 Z M 28.511719 16.53125 "/>
<path style=" stroke:none;fill-rule:nonzero;fill:rgb(0%,0%,0%);fill-opacity:1;" d="M 22.332031 17.460938 C 22.585938 17.476562 22.828125 17.546875 22.863281 17.109375 C 22.894531 16.734375 23.289062 16.945312 23.515625 16.925781 C 23.785156 16.902344 23.6875 17.105469 23.660156 17.253906 C 23.539062 17.839844 23.261719 18.0625 22.511719 18.113281 C 22.292969 18.128906 22.179688 18.195312 22.234375 18.410156 C 22.269531 18.5625 22.078125 18.804688 22.386719 18.867188 C 23.101562 19.003906 24.035156 18.433594 24.308594 17.738281 C 24.414062 17.46875 24.257812 17.0625 24.539062 16.941406 C 24.800781 16.824219 25.152344 16.90625 25.464844 16.902344 C 25.480469 16.902344 25.496094 16.902344 25.511719 16.902344 C 25.808594 16.949219 25.910156 16.835938 25.90625 16.523438 C 25.902344 16.226562 25.8125 16.152344 25.527344 16.164062 C 25.03125 16.1875 24.53125 16.171875 24.03125 16.171875 C 23.675781 16.171875 23.316406 16.171875 22.957031 16.171875 C 22.125 16.171875 22.113281 16.171875 22.136719 16.996094 C 22.140625 17.160156 21.980469 17.441406 22.332031 17.460938 Z M 22.332031 17.460938 "/>
<path style=" stroke:none;fill-rule:nonzero;fill:rgb(0%,0%,0%);fill-opacity:1;" d="M 6.660156 27.410156 C 7.347656 27.425781 7.957031 26.832031 7.957031 26.144531 C 7.957031 25.476562 7.378906 24.890625 6.707031 24.878906 C 6.015625 24.867188 5.445312 25.410156 5.425781 26.097656 C 5.410156 26.820312 5.945312 27.394531 6.660156 27.410156 Z M 6.660156 27.410156 "/>
<path style=" stroke:none;fill-rule:nonzero;fill:rgb(0%,0%,0%);fill-opacity:1;" d="M 10.269531 27.410156 C 10.96875 27.410156 11.546875 26.820312 11.535156 26.121094 C 11.523438 25.441406 10.949219 24.878906 10.273438 24.878906 C 9.601562 24.878906 9.015625 25.449219 9 26.121094 C 8.988281 26.808594 9.578125 27.410156 10.269531 27.410156 Z M 10.269531 27.410156 "/>
<path style=" stroke:none;fill-rule:nonzero;fill:rgb(0%,0%,0%);fill-opacity:1;" d="M 8.472656 28.242188 C 8.773438 28.253906 8.941406 28.042969 9 27.734375 C 8.953125 27.464844 8.816406 27.246094 8.507812 27.230469 C 8.199219 27.214844 8 27.394531 7.976562 27.695312 C 7.953125 28.027344 8.160156 28.230469 8.472656 28.242188 Z M 8.472656 28.242188 "/>
</g>
</svg>
