<?xml version="1.0" encoding="UTF-8"?>
<svg xmlns="http://www.w3.org/2000/svg" xmlns:xlink="http://www.w3.org/1999/xlink" width="50pt" height="50pt" viewBox="0 0 50 50" version="1.1">
<g id="surface1">
<path style=" stroke:none;fill-rule:nonzero;fill:rgb(0%,0%,0%);fill-opacity:1;" d="M 42.234375 27.765625 C 41.804688 27.4375 41.351562 27.140625 40.878906 26.878906 C 40.40625 26.613281 39.898438 26.414062 39.367188 26.167969 C 39.796875 26.105469 40.167969 26.050781 40.632812 25.980469 C 39.449219 24.871094 38 24.414062 36.648438 23.726562 C 38.382812 22.324219 40.421875 21.363281 42.03125 19.800781 C 41.167969 19.800781 40.367188 19.816406 39.570312 19.796875 C 38.789062 19.78125 38.011719 19.726562 37.230469 19.6875 C 39.089844 17.835938 40.855469 16.019531 42.472656 13.945312 C 41.0625 14.269531 39.761719 14.570312 38.460938 14.871094 C 39.035156 13.863281 39.941406 13.171875 40.445312 12.140625 C 39.441406 12.5 38.492188 12.839844 37.515625 13.1875 C 38.777344 10.828125 40.007812 8.527344 41.242188 6.21875 C 40.402344 6.335938 39.625 6.8125 38.644531 6.808594 C 39.46875 5.320312 40.671875 4.25 41.75 2.945312 C 38.957031 3.808594 36.269531 4.636719 33.582031 5.464844 C 33.570312 5.433594 33.558594 5.40625 33.546875 5.375 C 34.980469 4.375 36.414062 3.371094 37.84375 2.371094 C 37.835938 2.335938 37.824219 2.300781 37.816406 2.269531 C 34.03125 3.597656 30.09375 3.691406 26.136719 3.75 C 27.300781 2.855469 28.464844 1.960938 29.628906 1.066406 C 29.617188 1.042969 29.605469 1.023438 29.59375 1 C 27.769531 1.800781 25.941406 2.601562 24.117188 3.402344 C 24.09375 3.367188 24.070312 3.335938 24.050781 3.300781 C 24.554688 2.773438 25.0625 2.242188 25.636719 1.640625 C 25.214844 1.824219 24.886719 1.992188 24.542969 2.109375 C 23.097656 2.59375 21.644531 3.054688 20.203125 3.542969 C 18.84375 4 17.449219 4.378906 16.242188 5.195312 C 13.320312 7.164062 10.835938 9.609375 8.570312 12.285156 C 8.21875 12.699219 7.933594 13.210938 7.761719 13.722656 C 7.5625 14.3125 7.523438 14.957031 7.421875 15.578125 C 7.160156 17.160156 7.289062 18.746094 7.484375 20.320312 C 7.59375 21.21875 7.789062 22.109375 7.964844 22.996094 C 8.164062 23.996094 8.367188 24.996094 8.605469 25.988281 C 8.972656 27.53125 9.371094 29.066406 9.75 30.609375 C 9.847656 31 9.933594 31.398438 10.027344 31.792969 C 10.054688 31.789062 10.082031 31.785156 10.109375 31.78125 C 10.109375 30.652344 10.109375 29.527344 10.109375 28.398438 C 10.195312 28.496094 10.242188 28.601562 10.269531 28.710938 C 10.464844 29.464844 10.628906 30.234375 10.855469 30.980469 C 11.324219 32.535156 11.789062 34.09375 12.320312 35.628906 C 12.898438 37.289062 13.550781 38.921875 14.152344 40.574219 C 14.207031 40.71875 14.179688 40.941406 14.101562 41.078125 C 13.621094 41.90625 13.050781 42.679688 12.789062 43.625 C 12.613281 44.257812 12.609375 44.835938 13.066406 45.328125 C 13.488281 45.785156 13.9375 46.21875 14.398438 46.632812 C 15.199219 47.355469 16.03125 48.042969 16.824219 48.769531 C 17.019531 48.945312 17.171875 49.027344 17.410156 48.921875 C 17.515625 48.875 17.628906 48.851562 17.734375 48.8125 C 21.21875 47.59375 24.703125 46.367188 28.191406 45.160156 C 31.421875 44.039062 34.664062 42.960938 37.789062 41.554688 C 38.789062 41.101562 39.703125 40.519531 40.515625 39.78125 C 40.960938 39.378906 41.203125 38.90625 41.179688 38.273438 C 41.160156 37.757812 41.160156 37.21875 41.285156 36.726562 C 41.917969 34.226562 42.320312 31.6875 42.679688 29.140625 C 42.757812 28.605469 42.6875 28.105469 42.234375 27.765625 Z M 26.015625 32.90625 C 26.03125 32.902344 26.046875 32.898438 26.0625 32.894531 C 26.175781 33.855469 26.292969 34.816406 26.390625 35.78125 C 26.402344 35.898438 26.34375 36.058594 26.257812 36.136719 C 26.042969 36.34375 25.792969 36.515625 25.535156 36.71875 C 25.699219 35.421875 25.859375 34.164062 26.015625 32.90625 Z M 23.453125 39.410156 C 23.433594 39.410156 23.40625 39.414062 23.390625 39.402344 C 23.296875 39.339844 23.203125 39.273438 23.042969 39.160156 C 23.628906 38.601562 24.144531 38.109375 24.660156 37.621094 C 24.691406 37.652344 24.726562 37.6875 24.761719 37.71875 C 24.546875 37.925781 24.332031 38.136719 24.117188 38.339844 C 23.976562 38.472656 23.839844 38.605469 23.691406 38.722656 C 23.460938 38.902344 23.308594 39.101562 23.453125 39.410156 Z M 20.589844 19.839844 C 20.921875 20.574219 21.28125 21.335938 21.605469 22.109375 C 21.933594 22.898438 22.226562 23.703125 22.539062 24.496094 C 22.632812 24.730469 22.621094 24.847656 22.324219 24.917969 C 21.714844 25.070312 21.121094 25.285156 20.519531 25.46875 C 20.390625 25.507812 20.257812 25.53125 20.121094 25.5625 C 20.277344 23.628906 20.433594 21.726562 20.589844 19.839844 Z M 22.757812 25.9375 C 21.851562 26.042969 20.941406 26.148438 19.882812 26.273438 C 20.035156 26.09375 20.109375 25.9375 20.222656 25.890625 C 21.023438 25.570312 21.835938 25.273438 22.679688 24.953125 C 22.796875 25.398438 22.902344 25.808594 23.03125 26.3125 C 21.984375 26.484375 20.957031 26.652344 19.933594 26.820312 C 19.90625 26.777344 19.878906 26.738281 19.855469 26.695312 C 19.929688 26.632812 19.996094 26.53125 20.082031 26.515625 C 20.425781 26.445312 20.777344 26.398438 21.128906 26.351562 C 21.578125 26.292969 22.027344 26.242188 22.476562 26.179688 C 22.582031 26.164062 22.679688 26.113281 22.78125 26.078125 C 22.773438 26.03125 22.765625 25.984375 22.757812 25.9375 Z M 19.832031 27.097656 C 20.058594 27.070312 20.300781 27.039062 20.542969 27.007812 C 20.949219 28.042969 21.152344 28.167969 22.253906 28.09375 C 21.375 28.304688 20.5 28.535156 19.578125 28.351562 C 19.667969 27.914062 19.746094 27.523438 19.832031 27.097656 Z M 12.332031 25.925781 C 12.363281 25.875 12.394531 25.824219 12.425781 25.773438 C 12.769531 25.988281 13.113281 26.203125 13.457031 26.417969 C 13.429688 26.453125 13.40625 26.488281 13.378906 26.523438 C 13.03125 26.324219 12.679688 26.125 12.332031 25.925781 Z M 12.890625 26.542969 C 13.007812 26.71875 13.15625 26.882812 13.226562 27.078125 C 13.398438 27.53125 13.621094 27.921875 14.085938 28.132812 C 14.203125 28.183594 14.316406 28.253906 14.429688 28.316406 C 13.199219 28.074219 12.792969 27.621094 12.796875 26.605469 C 12.828125 26.582031 12.859375 26.5625 12.890625 26.542969 Z M 12.871094 28.058594 C 13.289062 28.230469 13.621094 28.382812 13.964844 28.507812 C 14.480469 28.691406 14.53125 28.691406 14.417969 29.230469 C 14.207031 30.21875 13.929688 31.191406 13.683594 32.171875 C 13.632812 32.167969 13.585938 32.164062 13.535156 32.164062 C 12.984375 30.859375 13.203125 29.441406 12.871094 28.058594 Z M 13.855469 33.425781 C 13.574219 33.230469 13.5625 32.9375 13.667969 32.605469 C 13.957031 31.695312 14.171875 30.761719 14.488281 29.859375 C 14.878906 28.742188 14.5 27.730469 14.195312 26.691406 C 14.132812 26.46875 14.136719 26.226562 14.105469 25.914062 C 14.03125 26.050781 13.996094 26.117188 13.949219 26.203125 C 13.140625 25.78125 12.421875 25.246094 11.863281 24.527344 C 11.734375 24.359375 11.648438 24.117188 11.636719 23.90625 C 11.542969 22.449219 11.441406 20.992188 11.414062 19.53125 C 11.40625 18.875 11.570312 18.214844 11.660156 17.5 C 12.359375 17.871094 12.890625 18.320312 13.320312 18.871094 C 13.535156 19.148438 13.71875 19.167969 14.011719 19.027344 C 14.480469 18.804688 14.964844 18.625 15.441406 18.425781 C 15.648438 18.339844 15.800781 18.375 15.886719 18.609375 C 16.382812 19.96875 16.9375 21.308594 17.363281 22.6875 C 17.695312 23.753906 17.871094 24.875 18.105469 25.96875 C 18.148438 26.160156 18.140625 26.300781 17.878906 26.398438 C 17.234375 26.636719 16.601562 26.875 15.882812 26.699219 C 16.171875 27.058594 16.605469 27.140625 16.976562 27.125 C 17.375 27.101562 17.757812 26.867188 18.21875 26.703125 C 18.097656 27.769531 18.375 28.777344 18.351562 29.804688 C 18.328125 30.867188 18.347656 31.933594 18.347656 33 C 18.394531 33.007812 18.445312 33.015625 18.492188 33.027344 C 18.863281 31.554688 19.234375 30.085938 19.617188 28.578125 C 20.054688 28.578125 20.574219 28.472656 21.027344 28.601562 C 21.964844 28.867188 22.625 28.433594 23.347656 27.894531 C 23.441406 28.292969 23.542969 28.675781 23.617188 29.066406 C 23.847656 30.292969 24.078125 31.519531 24.285156 32.75 C 24.375 33.285156 24.414062 33.828125 24.464844 34.371094 C 24.546875 35.226562 24.613281 36.082031 24.699219 36.941406 C 24.71875 37.140625 24.660156 37.265625 24.476562 37.363281 C 23.390625 37.945312 22.273438 38.433594 21.058594 38.660156 C 20.429688 38.777344 19.792969 38.855469 19.160156 38.953125 C 18.34375 39.074219 17.746094 38.75 17.378906 38.027344 C 17.199219 37.679688 17.105469 37.289062 16.921875 36.945312 C 16.828125 36.765625 16.636719 36.621094 16.464844 36.496094 C 16.203125 36.304688 16.128906 36.070312 16.210938 35.761719 C 16.34375 35.753906 16.46875 35.746094 16.648438 35.734375 C 16.277344 35.371094 15.605469 35.484375 15.527344 34.851562 C 15.46875 34.339844 15.582031 33.910156 16.148438 33.675781 C 16.113281 33.652344 16.082031 33.625 16.050781 33.601562 C 15.941406 33.644531 15.835938 33.695312 15.722656 33.734375 C 15.046875 33.964844 14.417969 33.820312 13.855469 33.425781 Z M 15.375 37.867188 C 15.429688 38.007812 15.511719 38.144531 15.542969 38.289062 C 15.578125 38.429688 15.621094 38.613281 15.558594 38.722656 C 15.3125 39.171875 15.03125 39.597656 14.707031 40.121094 C 14.597656 38.480469 14.5 36.945312 14.398438 35.414062 C 14.417969 35.40625 14.433594 35.402344 14.449219 35.398438 C 14.757812 36.222656 15.066406 37.046875 15.375 37.867188 Z M 14.71875 34.179688 C 14.953125 34.167969 15.09375 34.164062 15.277344 34.15625 C 15.277344 34.382812 15.277344 34.554688 15.277344 34.8125 C 15.078125 34.589844 14.925781 34.414062 14.71875 34.179688 Z M 24.488281 41.671875 C 24.375 41.84375 24.140625 41.941406 23.945312 42.054688 C 23.785156 42.148438 23.609375 42.21875 23.382812 42.324219 C 23.417969 42.019531 23.453125 41.746094 23.484375 41.476562 C 23.445312 41.46875 23.40625 41.457031 23.367188 41.449219 C 23.320312 41.652344 23.242188 41.855469 23.238281 42.058594 C 23.234375 42.324219 23.125 42.480469 22.902344 42.601562 C 22.535156 42.796875 22.175781 43.011719 21.816406 43.222656 L 21.816406 43.21875 C 21.824219 42.394531 21.921875 41.585938 22.289062 40.824219 C 22.1875 40.886719 22.136719 40.964844 22.09375 41.046875 C 21.71875 41.734375 21.609375 42.457031 21.816406 43.21875 C 20.714844 43.871094 19.59375 44.484375 18.335938 44.78125 C 17.996094 44.863281 17.644531 44.894531 17.226562 44.957031 C 17.28125 44.683594 17.316406 44.480469 17.355469 44.273438 C 17.332031 44.265625 17.308594 44.253906 17.285156 44.246094 C 17.222656 44.34375 17.121094 44.4375 17.105469 44.542969 C 17.050781 44.929688 16.796875 44.9375 16.5 44.917969 C 15.527344 44.847656 14.550781 44.804688 13.578125 44.722656 C 13.066406 44.675781 12.902344 44.40625 13.023438 43.90625 C 13.269531 42.898438 13.820312 42.042969 14.359375 41.148438 C 14.472656 41.398438 14.570312 41.609375 14.703125 41.90625 C 14.75 41.757812 14.777344 41.71875 14.765625 41.691406 C 14.410156 40.527344 15.203125 39.765625 15.746094 38.851562 C 16.335938 40.542969 16.90625 42.179688 17.476562 43.816406 C 17.527344 43.808594 17.574219 43.796875 17.625 43.789062 C 17.625 42.152344 17.625 40.515625 17.625 38.8125 C 18.585938 39.425781 19.523438 39.171875 20.453125 39.015625 C 20.933594 38.933594 21.40625 38.789062 21.882812 38.675781 C 22.328125 38.570312 22.488281 38.972656 22.726562 39.203125 C 22.796875 39.269531 22.730469 39.511719 22.683594 39.660156 C 22.632812 39.839844 22.535156 40.003906 22.457031 40.175781 C 22.492188 40.191406 22.523438 40.207031 22.558594 40.222656 C 22.710938 39.984375 22.867188 39.75 23.058594 39.460938 C 23.269531 39.851562 23.917969 39.929688 23.664062 40.621094 C 23.792969 40.535156 23.867188 40.480469 23.941406 40.429688 C 24.246094 40.539062 24.664062 41.414062 24.488281 41.671875 Z M 26.71875 40.585938 C 26.089844 40.925781 25.449219 41.242188 24.777344 41.582031 C 24.78125 40.769531 24.203125 40.339844 23.777344 39.820312 C 23.667969 39.6875 23.566406 39.546875 23.460938 39.410156 C 23.890625 39.046875 24.320312 38.683594 24.746094 38.320312 C 24.75 38.324219 24.753906 38.324219 24.761719 38.328125 C 24.410156 38.691406 24.058594 39.054688 23.710938 39.414062 C 23.734375 39.4375 23.753906 39.460938 23.777344 39.484375 C 23.878906 39.40625 23.980469 39.324219 24.082031 39.246094 C 24.097656 39.257812 24.113281 39.265625 24.125 39.277344 C 24.058594 39.378906 23.992188 39.476562 23.925781 39.578125 C 23.949219 39.605469 23.972656 39.632812 23.996094 39.65625 C 24.671875 39.03125 25.351562 38.40625 26.027344 37.777344 C 26.003906 37.746094 25.980469 37.714844 25.957031 37.683594 C 25.882812 37.722656 25.804688 37.757812 25.628906 37.847656 C 25.804688 37.65625 25.902344 37.546875 26.003906 37.433594 C 25.671875 36.972656 26.242188 36.902344 26.390625 36.515625 C 26.011719 36.785156 25.714844 37 25.417969 37.210938 C 25.398438 37.183594 25.378906 37.152344 25.355469 37.125 C 25.703125 36.871094 26.050781 36.617188 26.449219 36.324219 C 26.503906 36.765625 26.558594 37.148438 26.597656 37.535156 C 26.6875 38.441406 26.769531 39.347656 26.84375 40.257812 C 26.851562 40.367188 26.796875 40.542969 26.71875 40.585938 Z M 30.089844 31.464844 C 30.355469 30.039062 30.652344 28.621094 30.878906 27.1875 C 31.070312 25.980469 31.15625 24.75 31.339844 23.539062 C 31.390625 23.21875 31.644531 22.929688 31.804688 22.625 C 31.84375 22.636719 31.882812 22.648438 31.921875 22.660156 C 31.910156 22.734375 31.898438 22.8125 31.886719 22.886719 C 31.902344 22.898438 31.921875 22.910156 31.9375 22.917969 C 32.066406 22.757812 32.191406 22.59375 32.328125 22.441406 C 32.878906 21.824219 33.523438 21.4375 34.402344 21.613281 C 34.730469 21.679688 34.921875 21.871094 34.984375 22.179688 C 35.335938 23.855469 35.363281 25.472656 34.3125 26.972656 C 33.894531 27.5625 33.632812 28.261719 33.300781 28.910156 C 33.105469 29.296875 32.800781 29.613281 32.359375 29.554688 C 31.480469 29.441406 31.027344 29.800781 30.863281 30.640625 C 30.808594 30.90625 30.664062 31.160156 30.535156 31.40625 C 30.375 31.703125 30.1875 31.988281 29.933594 32.257812 C 29.984375 31.992188 30.039062 31.730469 30.089844 31.464844 Z M 31.394531 31.199219 C 31.4375 31.101562 31.480469 31.007812 31.523438 30.910156 C 31.507812 30.894531 31.488281 30.878906 31.472656 30.863281 C 31.257812 31.054688 31.042969 31.246094 30.832031 31.441406 C 30.808594 31.417969 30.785156 31.394531 30.765625 31.375 C 31.050781 31.105469 31.339844 30.839844 31.625 30.570312 C 31.65625 30.585938 31.6875 30.601562 31.71875 30.613281 C 31.679688 30.792969 31.644531 30.96875 31.605469 31.148438 C 31.535156 31.164062 31.464844 31.179688 31.394531 31.199219 Z M 34.457031 36.894531 C 32.492188 37.839844 30.515625 38.753906 28.539062 39.683594 C 28.496094 39.703125 28.449219 39.714844 28.335938 39.75 C 28.429688 39.269531 28.515625 38.835938 28.605469 38.398438 C 28.875 37.140625 29.144531 35.882812 29.417969 34.628906 C 29.535156 34.085938 29.5625 33.5 29.792969 33.011719 C 30.101562 32.363281 30.503906 31.734375 31.195312 31.386719 C 30.960938 31.640625 30.730469 31.890625 30.496094 32.144531 C 30.523438 32.171875 30.554688 32.199219 30.582031 32.226562 C 30.925781 31.867188 31.269531 31.507812 31.613281 31.144531 C 31.609375 31.144531 31.609375 31.144531 31.609375 31.144531 C 31.730469 30.925781 31.855469 30.703125 31.980469 30.484375 C 32.0625 30.332031 32.140625 30.179688 32.242188 29.992188 C 32.535156 30.808594 32.804688 31.570312 33.078125 32.332031 C 33.09375 32.378906 33.117188 32.425781 33.144531 32.46875 C 33.328125 32.757812 33.480469 33.050781 33.277344 33.417969 C 33.328125 33.324219 33.378906 33.234375 33.460938 33.078125 C 33.539062 33.324219 33.554688 33.46875 33.628906 33.574219 C 33.707031 33.691406 33.828125 33.796875 33.953125 33.855469 C 34.148438 33.949219 34.367188 34.003906 34.578125 34.074219 C 34.566406 34.109375 34.558594 34.140625 34.546875 34.175781 C 34.441406 34.164062 34.335938 34.15625 34.207031 34.140625 C 34.25 34.320312 34.28125 34.464844 34.3125 34.613281 C 34.269531 34.632812 34.222656 34.65625 34.179688 34.675781 C 33.996094 34.457031 33.816406 34.234375 33.578125 33.945312 C 33.632812 34.464844 34.222656 35.046875 34.667969 35.128906 C 35.054688 35.199219 35.191406 35.136719 35.34375 34.820312 C 35.613281 35.015625 35.878906 35.207031 36.175781 35.417969 C 35.671875 36.003906 35.148438 36.558594 34.457031 36.894531 Z M 34.601562 34.875 C 34.6875 34.703125 34.761719 34.5625 34.84375 34.40625 C 34.9375 34.484375 35.074219 34.601562 35.210938 34.71875 C 35.054688 35.082031 34.820312 35.011719 34.601562 34.875 Z M 42.25 28.773438 C 41.78125 29.957031 40.894531 30.8125 40.015625 31.671875 C 39.453125 32.222656 38.882812 32.757812 38.277344 33.332031 C 38.167969 32.671875 38.113281 32.019531 37.46875 31.652344 C 38.082031 32.277344 37.75 33.0625 37.890625 33.765625 C 37.652344 33.160156 37.714844 32.410156 36.949219 32.082031 C 36.929688 32.144531 36.910156 32.183594 36.914062 32.1875 C 37.507812 32.628906 37.523438 33.28125 37.539062 33.929688 C 37.542969 34.019531 37.492188 34.128906 37.429688 34.195312 C 37.132812 34.507812 36.828125 34.816406 36.507812 35.105469 C 36.449219 35.160156 36.269531 35.167969 36.199219 35.121094 C 35.726562 34.808594 35.273438 34.476562 34.808594 34.152344 C 34.839844 34.109375 34.867188 34.066406 34.898438 34.023438 C 35.324219 34.300781 35.75 34.578125 36.1875 34.863281 C 36.007812 34.378906 35.589844 34.144531 35.164062 34.019531 C 34.628906 33.863281 34.480469 33.570312 34.507812 33.054688 C 34.542969 32.386719 34.515625 31.714844 34.515625 30.976562 C 34.8125 31.304688 35.097656 31.621094 35.425781 31.984375 C 35.371094 31.085938 35.320312 30.269531 35.265625 29.355469 C 35.546875 29.671875 35.777344 29.9375 36.074219 30.277344 C 36.097656 30.082031 36.128906 29.976562 36.121094 29.878906 C 36.050781 28.996094 35.96875 28.117188 35.914062 27.234375 C 35.90625 27.121094 36.007812 26.917969 36.097656 26.898438 C 36.9375 26.679688 37.773438 26.410156 38.628906 26.335938 C 39.109375 26.292969 39.632812 26.550781 40.105469 26.753906 C 40.824219 27.0625 41.5 27.449219 42.078125 28 C 42.324219 28.238281 42.371094 28.464844 42.25 28.773438 Z M 42.25 28.773438 "/>
<path style=" stroke:none;fill-rule:nonzero;fill:rgb(0%,0%,0%);fill-opacity:1;" d="M 16.90625 35.816406 C 17.757812 35.945312 18.644531 35.753906 19.425781 36.253906 C 19.128906 35.703125 17.945312 35.503906 16.90625 35.816406 Z M 16.90625 35.816406 "/>
<path style=" stroke:none;fill-rule:nonzero;fill:rgb(0%,0%,0%);fill-opacity:1;" d="M 35.671875 31.042969 C 36.089844 31.148438 36.496094 31.25 36.972656 31.367188 C 36.5625 30.976562 36.023438 30.855469 35.671875 31.042969 Z M 35.671875 31.042969 "/>
<path style=" stroke:none;fill-rule:nonzero;fill:rgb(0%,0%,0%);fill-opacity:1;" d="M 32.585938 24.355469 C 33.007812 24.511719 33.429688 24.664062 33.847656 24.824219 C 34.160156 24.945312 34.246094 25.175781 34.089844 25.457031 C 33.820312 25.953125 33.535156 26.4375 33.226562 26.910156 C 33.152344 27.023438 32.964844 27.09375 32.816406 27.117188 C 32.46875 27.179688 32.238281 27.371094 32.019531 27.65625 C 32.402344 27.519531 32.730469 27.402344 33.054688 27.277344 C 33.132812 27.246094 33.226562 27.207031 33.265625 27.140625 C 33.640625 26.558594 34.015625 25.980469 34.355469 25.382812 C 34.421875 25.261719 34.398438 24.984375 34.304688 24.90625 C 33.820312 24.480469 33.21875 24.335938 32.585938 24.355469 Z M 32.585938 24.355469 "/>
<path style=" stroke:none;fill-rule:nonzero;fill:rgb(0%,0%,0%);fill-opacity:1;" d="M 34.644531 22.523438 C 34.683594 22.550781 34.75 22.539062 34.820312 22.546875 C 34.632812 22.144531 34.15625 21.925781 33.773438 22.046875 C 32.929688 22.3125 32.175781 23.429688 32.058594 24.253906 C 32.417969 23.738281 32.738281 23.21875 33.113281 22.742188 C 33.539062 22.210938 34.070312 22.160156 34.644531 22.523438 Z M 34.644531 22.523438 "/>
<path style=" stroke:none;fill-rule:nonzero;fill:rgb(0%,0%,0%);fill-opacity:1;" d="M 32.050781 25.265625 C 32.140625 25.644531 32.34375 26.039062 32.289062 26.394531 C 32.234375 26.769531 31.925781 27.101562 31.679688 27.542969 C 32.625 26.738281 32.753906 26.179688 32.050781 25.265625 Z M 32.050781 25.265625 "/>
<path style=" stroke:none;fill-rule:nonzero;fill:rgb(0%,0%,0%);fill-opacity:1;" d="M 33.96875 23.613281 C 33.996094 23.40625 33.980469 23.195312 33.980469 22.988281 C 33.941406 22.988281 33.90625 22.988281 33.867188 22.988281 C 33.847656 23.167969 33.828125 23.34375 33.808594 23.527344 C 33.507812 23.429688 33.234375 23.34375 32.957031 23.253906 C 32.941406 23.3125 32.921875 23.371094 32.90625 23.429688 C 33.179688 23.519531 33.453125 23.625 33.734375 23.699219 C 33.804688 23.71875 33.964844 23.652344 33.96875 23.613281 Z M 33.96875 23.613281 "/>
<path style=" stroke:none;fill-rule:nonzero;fill:rgb(0%,0%,0%);fill-opacity:1;" d="M 32.761719 28.121094 C 32.800781 28.152344 32.839844 28.179688 32.878906 28.210938 C 33.050781 27.996094 33.21875 27.78125 33.390625 27.566406 C 33.351562 27.535156 33.3125 27.503906 33.273438 27.472656 C 33.101562 27.6875 32.933594 27.90625 32.761719 28.121094 Z M 32.761719 28.121094 "/>
<path style=" stroke:none;fill-rule:nonzero;fill:rgb(0%,0%,0%);fill-opacity:1;" d="M 24.007812 39.796875 C 24.039062 39.828125 24.066406 39.863281 24.097656 39.894531 C 24.496094 39.535156 24.894531 39.179688 25.292969 38.820312 C 25.265625 38.792969 25.234375 38.765625 25.207031 38.734375 C 24.808594 39.089844 24.410156 39.445312 24.007812 39.796875 Z M 24.007812 39.796875 "/>
</g>
</svg>
