<svg width="49" height="18" viewBox="0 0 49 18" fill="none" xmlns="http://www.w3.org/2000/svg">
<path d="M47.2617 14.875C46.8867 14.8984 46.5117 14.8828 46.1367 14.8828C46.1328 14.8516 46.1328 14.8242 46.1289 14.7969C46.7031 14.6328 47.2734 14.4688 47.9023 14.2852C47.4102 13.8125 46.9648 13.3867 46.5273 12.9648C46.3984 13.0469 46.4023 13.1484 46.375 13.2383C46.3555 13.3086 46.418 13.4531 46.2617 13.4258C46.1484 13.4063 46.0625 13.3281 46.1055 13.1914C46.2305 12.8203 46.3281 12.4414 46.4961 12.0938C46.6367 11.7969 46.9062 11.6484 47.2617 11.5781C47.8906 11.4453 48.0078 11.0039 47.5703 10.5781C47.3711 10.3789 47.1758 10.1758 46.9844 9.96875C46.9062 9.88281 46.8164 9.80078 46.9883 9.67969C47.6172 9.23437 47.5859 8.60156 47.4336 7.95312C47.332 7.51562 47.0312 7.24609 46.5859 7.19922C46.1641 7.15234 45.8398 7.35547 45.5938 7.69922C45.5156 7.80859 45.5391 8.03125 45.2891 8C45.2773 7.94141 45.2656 7.88281 45.2656 7.82812C45.2578 7.75 45.2578 7.67188 45.2617 7.59375C45.2734 7.33594 45.1836 7.15625 44.8984 7.16016C44.6367 7.16016 44.4688 7.30859 44.5 7.57031C44.5547 7.99609 44.3477 8.08203 43.9883 8.03125C43.9141 8.01953 43.832 8.01953 43.7539 8.03125C43.4727 8.07031 43.4375 7.92187 43.4961 7.69922C43.5937 7.30469 43.7031 6.91406 43.875 6.54688C44.4219 5.38672 45.3008 4.55078 46.4453 3.91016C46.457 4.125 46.4688 4.27734 46.4844 4.51953C46.9531 4 47.3672 3.53906 47.8281 3.03125C47.0859 2.83594 46.4258 2.66016 45.6758 2.46484C45.8516 2.70703 45.9609 2.85937 46.082 3.02734C44.0508 3.64844 42.7109 4.96484 42.0117 6.94922C41.9766 6.62109 41.9844 6.32422 41.9766 6.03125C41.957 5.5625 42.0508 5.08594 41.9219 4.63281C41.6367 3.625 40.8711 3.21094 39.9141 3.07031C38.9922 2.9375 38 3.43359 37.5586 4.20312C37.4844 4.33203 37.4844 4.50781 37.2852 4.61328C37.2852 4.1875 37.2734 3.78906 37.2891 3.39453C37.3008 3.13281 37.2187 3.04297 36.9492 3.04688C35.418 3.05859 33.8867 3.05078 32.3555 3.05469C32.3164 3.05469 32.2812 3.09375 32.2305 3.12109C32.4375 3.32812 32.6953 3.48047 32.6797 3.80859C32.9336 4.44531 32.9023 5.12891 32.918 5.78516C32.957 7.83203 32.9375 9.87891 32.9375 11.9219C32.9375 12.043 32.8984 12.1641 32.8789 12.2891C32.7383 12.2188 32.6758 12.1172 32.6523 12.0039C32.6484 12.043 32.6406 12.082 32.6367 12.125C32.6523 12.7578 32.5742 13.3672 32.2539 13.9375C32.2344 13.9727 32.2148 14.0117 32.1992 14.0508C32.1719 13.9492 32.1094 13.8516 32.0156 13.7617C31.8125 13.5742 31.6445 13.3398 31.6992 13.0625C31.8125 12.4961 31.5664 11.8164 32.1797 11.3906C32.2266 11.3555 32.2656 11.2734 32.2461 11.2227C32.0039 10.5508 32.4688 9.97266 32.4844 9.33594C32.4922 9.09375 32.3789 8.84766 32.5586 8.61328C32.6133 8.54297 32.6563 8.46875 32.6914 8.39453C32.7148 8.17969 32.7461 7.96484 32.7891 7.75391C32.8594 7.08984 32.8164 6.45313 32.332 5.92578C32.0859 5.65625 31.8047 5.43359 31.4531 5.33594C31.0508 5.22266 31.1797 5.11328 31.3438 4.83203C31.6406 4.32031 32.0859 4.08594 32.5938 3.90234C32.1445 3.82031 31.6914 3.80859 31.375 3.35156C31.1406 3.01172 30.5078 2.97656 30.2422 3.28906C29.9219 3.67188 29.5195 3.83984 29.0352 3.93359C29.2969 4.17969 29.7109 4.00781 29.8438 4.32812C29.9492 4.58594 30.0898 4.78516 30.3047 4.95312C30.4727 5.08203 30.4648 5.23047 30.25 5.29297C29.5039 5.51562 29.0313 5.98828 28.8008 6.73828C28.7656 6.83984 28.7695 6.64844 28.7188 6.62891C28.7227 6.17578 28.7617 5.72266 28.7266 5.27344C28.6367 4.0625 28.1133 2.94141 26.3789 3.04688C25.9102 3.07422 25.4414 3.05078 24.9727 3.05078C24.2461 3.05078 24.2461 3.05078 24.3906 3.77734C24.4023 3.83594 24.4102 3.89844 24.4141 3.96094C24.5859 6.77344 24.5742 9.58594 24.3828 12.3906C24.3359 13.0781 24.4492 13.8516 23.8125 14.4531C24.3398 14.4531 24.8672 14.4531 25.4375 14.4531C25.168 14.8242 24.8672 14.8945 24.5 14.8867C23.4531 14.8672 22.4023 14.8672 21.3555 14.8906C20.9922 14.8984 20.75 14.7617 20.4805 14.4375C21.2578 14.4375 21.9687 14.4414 22.6836 14.4336C22.8242 14.4336 23.0273 14.4961 23.0312 14.2461C23.0352 13.4922 23.0312 12.7383 23.0312 11.875C22.8594 12.0781 22.7773 12.1875 22.6836 12.2852C22.2891 12.7148 21.6641 12.8477 21.0898 12.6328C20.5 12.4141 20.2695 12.0703 20.2656 11.375C20.2656 10.6719 20.293 9.96875 20.2773 9.26562C20.2734 8.92188 20.418 8.875 20.7109 8.93359C21.1367 9.01562 21.4414 9.26562 21.6953 9.59375C21.7578 9.67188 21.7812 9.79688 21.9375 9.75391C22.1094 9.71094 22.0977 9.59375 22.0977 9.46484C22.0938 8.85547 22.0898 8.24609 22.0859 7.63672C22.082 7.51172 22.1094 7.37109 21.9609 7.3125C21.7773 7.23828 21.7148 7.39844 21.6328 7.50391C21.3945 7.81641 21.0664 7.98047 20.7109 8.11328C20.3672 8.24609 20.2031 8.1875 20.2305 7.76562C20.2773 7.07812 20.2695 6.39062 20.293 5.70312C20.3125 5.07031 20.625 4.69531 21.2461 4.55469C21.8828 4.41016 22.4336 4.64453 22.6992 5.19141C22.7539 5.30469 22.7578 5.42969 22.9375 5.40625C23.1289 5.37891 23.0859 5.23828 23.0898 5.12109C23.0937 4.55859 23.0742 3.99609 23.0977 3.43359C23.1133 3.12109 23.0078 3.04297 22.707 3.04297C20.625 3.05469 18.5469 3.0625 16.4688 3.03906C16.0742 3.03516 16.0273 3.1875 16.0703 3.50391C16.125 3.91406 16.2227 4.32812 16.0234 4.77344C15.9062 4.30078 15.8516 3.86719 15.8867 3.42969C15.9141 3.11328 15.793 3.02344 15.4922 3.04297C15.3398 3.05078 15.0703 3.16406 15.0664 2.84766C15.0664 2.58203 14.9062 2.39453 14.75 2.13281C15.1055 2.13281 15.3984 2.13281 15.6914 2.13281C17.1914 2.13281 18.6914 2.13281 20.1914 2.13281C20.543 2.13281 20.7656 1.96875 20.7695 1.60547C20.7695 1.23828 20.5508 1.07812 20.1953 1.07812C20.1172 1.07812 20.0391 1.07812 19.9609 1.07812C14.2266 1.07812 8.48828 1.08203 2.75 1.07031C2.28906 1.07031 1.89844 1.29297 1.45703 1.35547C1.17187 1.39453 1.03125 1.65625 0.96875 1.92969C0.945312 2.03906 0.945312 2.16797 0.808594 2.17969C0.414062 2.21094 0.265625 2.55078 0.0273438 2.78125C0.0273438 2.9375 0.0273438 3.09375 0.0273438 3.25C0.273438 4.0625 0.273438 4.0625 1.14062 4.13672C1.1875 4.14062 1.23437 4.14453 1.28125 4.15234C2.01953 4.29297 2.39453 5.05859 2.01562 5.67969C1.64844 6.27734 1.42578 6.92188 1.27734 7.59766C1.21094 7.89063 1.09766 8.14453 0.832031 8.33203C0.507812 8.5625 0.515625 8.77344 0.832031 8.99219C1.04687 9.14062 1.16016 9.33203 1.17969 9.57422C1.26562 10.543 1.60156 11.4258 2.08984 12.2578C2.17969 12.4102 2.24219 12.5664 2.17969 12.7461C2.05859 13.0859 1.47656 13.5078 1.09375 13.5312C0.292969 13.5742 0.210938 13.6406 0.0273438 14.4141C0.0273438 14.5703 0.0273438 14.7266 0.0273438 14.8828C0.328125 15.4258 1.00781 15.6289 1.23437 16.2461C1.25781 16.3086 1.39453 16.3281 1.47266 16.375C1.79297 16.5703 2.38672 16.3516 2.42187 16.9922C2.42187 17 2.53516 17.0195 2.58594 17C2.73828 16.9453 2.82031 17.0391 2.8125 17.1484C2.78516 17.582 3.125 17.4766 3.31641 17.4531C3.61719 17.418 3.49609 17.1367 3.48437 16.957C3.44922 16.418 3.95703 15.8359 4.50391 15.832C6.39453 15.832 8.28516 15.8398 10.1758 15.8281C10.4492 15.8242 10.6523 15.9297 10.8672 16.0625C11.5625 16.5 12.3047 16.8008 13.1484 16.7695C13.8789 16.7422 14.5117 16.4492 15.1094 16.0781C15.418 15.8906 15.7227 15.8242 16.0781 15.8281C17.3438 15.8438 18.6094 15.8438 19.8789 15.8281C20.2969 15.8203 20.6523 15.9141 21.0195 16.1289C22.043 16.7148 23.1523 16.9844 24.2188 16.3516C24.9922 15.8906 25.7695 15.7891 26.6172 15.8281C27.0859 15.8516 27.5586 15.8438 28.0234 15.8281C28.3203 15.8164 28.5586 15.8906 28.8008 16.0703C29.7813 16.7891 30.875 17.0469 31.9453 16.3945C32.8477 15.8438 33.7773 15.7891 34.7617 15.832C35.1211 15.8438 35.4844 15.8633 35.8398 15.8242C36.3906 15.7656 36.8086 15.9531 37.2383 16.2969C39.3125 17.9453 41.1445 18.1641 43.2344 16.6992C44.3008 15.9492 45.332 15.7578 46.5273 15.832C46.793 15.8477 47.0586 15.8164 47.3242 15.8359C47.625 15.8594 47.875 15.7813 48.0625 15.5391C48.0625 15.4141 48.0625 15.2891 48.0625 15.1641C47.8398 14.9414 47.582 14.8555 47.2617 14.875ZM2.64062 2.33594C2.70312 2.03125 2.91797 2.13672 3.07812 2.13672C6.08984 2.13281 9.10156 2.14062 12.1133 2.12109C12.4727 2.12109 12.5664 2.29688 12.6523 2.60156C12.6406 2.625 12.6172 2.67969 12.582 2.72266C12.5352 2.78516 12.4766 2.83594 12.418 2.89062C12.0703 3.22656 11.7773 3.70313 11.3633 3.86328C10.918 4.03516 10.5586 3.48437 10.1328 3.30469C8.03906 2.42578 6.03516 2.54688 4.12891 3.78125C3.83203 3.97266 3.66406 3.97656 3.44141 3.71094C3.23437 3.46094 3.00391 3.21484 2.74219 3.02344C2.44922 2.80469 2.59375 2.58984 2.64062 2.33594ZM10.8945 7.00781C8.63281 6.60156 6.38672 6.61719 4.13281 6.93359C4.41797 5.97656 5.85547 5.00391 7.05469 4.94141C8.80859 4.84766 10.332 5.65234 10.8945 7.00781ZM1.87109 3.72656C1.67969 3.51563 1.52734 3.40234 1.20703 3.5625C0.804688 3.76172 0.394531 3.45312 0.40625 2.96484C0.433594 2.72266 0.585938 2.52734 0.894531 2.5C1.14062 2.47656 1.30469 2.4375 1.26953 2.12109C1.24219 1.89062 1.375 1.71094 1.60937 1.62109C1.84766 1.53125 2.04687 1.61328 2.20703 1.77344C2.37109 1.9375 2.4375 2.16797 2.29297 2.37109C2.01562 2.75781 2.19141 3 2.5 3.24609C2.73047 3.42969 2.92969 3.65234 3.14453 3.85938C3.5 4.20312 3.45703 4.45703 3.01562 4.71094C2.84375 4.8125 2.78906 4.67969 2.71094 4.60156C2.42578 4.3125 2.14062 4.02344 1.87109 3.72656ZM1.67187 8.55469C4.51562 7.42969 7.45312 7.35547 10.4375 7.76953C11.4102 7.875 12.3438 8.14062 13.3359 8.49219C12.957 8.71094 12.6016 8.74609 12.2734 8.84375C11.9688 8.93359 11.7422 8.99609 11.6133 8.52734C11.4844 8.05859 10.9375 8.03906 10.5156 7.94531C10.3203 7.90234 10.1094 7.94141 9.91797 7.85156C8.28125 7.84766 6.64062 7.78125 5.00391 7.93359C4.55078 7.97656 4.10937 8.05078 3.70312 8.27344C3.67578 8.28906 3.64062 8.30469 3.62891 8.32812C3.08203 9.32812 2.32812 8.53906 1.67187 8.55469ZM13.875 8.36328C13.7188 8.34766 13.6602 8.22266 13.6328 8.02734C13.5039 7.01953 13.125 6.10547 12.5234 5.28906C12.3867 5.10156 12.3672 4.99219 12.543 4.82422C12.8516 4.53906 13.1328 4.22266 13.4297 3.92188C13.5117 3.83594 13.5859 3.68359 13.7227 3.73438C13.8789 3.78516 13.8711 3.96484 13.8711 4.09375C13.8789 5.51172 13.875 6.92969 13.875 8.36328ZM13.875 8.71484C14.043 8.71484 13.9922 8.875 13.9883 8.96875C13.9492 10.582 13.8711 12.1953 13.5938 13.8281C13.2188 13.4648 12.8789 13.1289 12.5312 12.8047C12.3984 12.6797 12.4805 12.5859 12.5508 12.4883C13.3125 11.4492 13.6445 10.2695 13.7227 9C13.7305 8.88281 13.6953 8.71875 13.875 8.71484ZM12.1211 14.4688C12.2305 14.5742 12.375 14.6445 12.4531 14.8008C11.7344 14.8164 10.9727 15.1484 10.4844 14.3555C11.3633 13.7305 11.3633 13.7344 12.1211 14.4688ZM2.52344 14.3828C2.24219 14.6445 1.92969 14.8437 2.24219 15.3398C2.44922 15.6719 2.17969 16.0352 1.78516 16.0781C1.40625 16.1172 1.19531 15.9023 1.24219 15.5547C1.28516 15.1875 1.05078 15.2461 0.855469 15.2031C0.523438 15.1289 0.304688 14.9297 0.355469 14.582C0.394531 14.2852 0.582031 14.0742 0.914062 14.0508C1.77734 14.4805 2.01953 13.6484 2.44922 13.2617C2.74609 12.9922 2.89453 12.9141 3.19141 13.2539C3.39844 13.4922 3.35547 13.5898 3.16016 13.7617C2.9375 13.957 2.73828 14.1758 2.52344 14.3828ZM3.26953 16.2422C3.19922 16.2734 3.05469 16.1289 3.0625 16.043C3.08594 15.8594 3.23047 15.707 3.39844 15.6523C3.53125 15.6094 3.50391 15.8047 3.57812 15.8789C3.55469 16.0625 3.41016 16.1758 3.26953 16.2422ZM3.98047 15.5586C3.90234 15.6289 3.83984 15.668 3.76953 15.5391C3.55859 15.1445 4.00391 15.1055 4.11719 14.8008C4.39453 15.1875 4.19141 15.375 3.98047 15.5586ZM2.54297 14.8555C2.83984 14.4492 3.22266 14.1641 3.55078 13.8281C3.65234 13.7188 3.73437 13.7695 3.82812 13.8398C3.97656 13.9531 4.13672 14.0508 4.32422 14.1719C3.64453 14.9336 3.64453 14.9336 2.54297 14.8555ZM3.6875 9.78906C3.46094 8.75391 3.65234 8.48047 4.70703 8.3125C5.74219 8.14844 6.78516 8.13672 7.83203 8.13672C8.81641 8.13281 9.79688 8.12891 10.7695 8.32422C11.2148 8.41016 11.4141 8.63672 11.3906 9.13281C11.3125 10.9961 9.80859 12.6289 7.96094 12.8047C5.85547 13.0039 4.12891 11.7852 3.6875 9.78906ZM9.09375 13.5508C8.96094 13.6992 8.82031 13.8164 8.5625 13.6992C8.72266 13.5117 8.91797 13.5625 9.09375 13.5508ZM8.8125 12.9414C8.96875 12.9141 8.9375 13.0859 9.01172 13.1172C9.03906 13.293 8.92578 13.2773 8.83984 13.2969C8.6875 13.332 8.65625 13.2383 8.64453 13.1172C8.63281 12.9922 8.72266 12.9609 8.8125 12.9414ZM8.42969 14.0781C8.42969 14.0898 8.29297 14.1484 8.23438 14.1328C8 14.0703 8.05859 13.875 8.02344 13.6641C8.25781 13.7578 8.40234 13.8672 8.42969 14.0781ZM7.91016 13.293C7.89844 13.0742 8.0625 13.1055 8.20703 13.0898C8.33984 13.0586 8.40234 13.1445 8.39453 13.2656C8.375 13.457 8.19531 13.418 8.07812 13.4492C7.96094 13.4766 7.91406 13.4023 7.91016 13.293ZM7.42188 13.6797C7.72266 13.6797 7.76172 13.8789 7.77344 14.0664C7.78906 14.3398 7.55469 14.2148 7.42969 14.2188C7.30859 14.2227 7.09766 14.3125 7.08984 14.0664C7.16406 13.8867 7.13672 13.6836 7.42188 13.6797ZM7.26172 13.3125C7.25781 13.1836 7.3125 13.1094 7.44531 13.1094C7.5625 13.1055 7.66016 13.125 7.66406 13.2734C7.66406 13.3945 7.61719 13.4727 7.48047 13.4727C7.36719 13.4727 7.26562 13.4609 7.26172 13.3125ZM6.83203 13.418C6.72656 13.3711 6.51562 13.4727 6.51953 13.2461C6.52344 13.1289 6.60156 13.043 6.73828 13.082C6.85937 13.1133 7.04297 13.0391 7.04688 13.2617C7.03906 13.4062 6.95703 13.4766 6.83203 13.418ZM6.85156 13.6484C6.8125 13.9922 6.80078 14.2813 6.35547 14.0039C6.46484 13.8242 6.63281 13.75 6.85156 13.6484ZM6.30469 13.1055C6.30469 13.2383 6.22266 13.2969 6.09375 13.2852C6.01562 13.2813 5.92188 13.2617 5.9375 13.1641C5.94922 13.0586 6.00781 12.9492 6.13281 12.9414C6.23437 12.9297 6.30859 12.9883 6.30469 13.1055ZM5.05859 14.5703C5.03516 14.6094 4.99609 14.6367 4.96094 14.6641C4.84375 14.7617 4.72266 14.8555 4.60156 14.957C4.44922 14.6055 4.57812 14.2656 4.88281 14.1445C4.95312 14.1172 5.00391 14.1094 5.03516 14.1758C5.10156 14.3008 5.12891 14.4336 5.05859 14.5703ZM5.49609 14.3047C5.21094 13.918 5.32031 13.7227 5.60547 13.5508C5.74609 13.4648 5.82812 13.4648 5.89062 13.6133C6.07422 14.0352 5.58594 13.9922 5.49609 14.3047ZM8.85938 14.8047C8.46094 15.168 8.02344 15.4492 7.33984 15.4531C6.75781 15.4609 6.25781 15.0664 5.78906 14.6211C5.73047 14.5703 5.66406 14.4961 5.75 14.4297C5.85156 14.3516 5.93359 14.2148 6.10938 14.2812C6.9375 14.5938 7.78125 14.6094 8.62891 14.3789C8.81641 14.3281 8.89063 14.4414 8.97266 14.5469C9.07422 14.6797 8.92969 14.7422 8.85938 14.8047ZM8.97266 14.0547C9.37891 13.6992 9.60156 13.9414 9.80859 14.2422C9.375 14.5352 9.375 14.5352 8.97266 14.0547ZM10.3789 15.0039C9.98438 15.3242 9.92188 14.8555 9.69141 14.7539C9.98828 14.4531 10.2266 14.5508 10.4492 14.8008C10.5508 14.9102 10.4492 14.9453 10.3789 15.0039ZM10.4648 15.3711C10.8008 14.9648 11.0195 15.2422 11.25 15.4336C10.9336 15.7695 10.9336 15.7695 10.4648 15.3711ZM11.3008 15.9336C11.543 15.5312 11.8047 15.6875 12.0781 15.8711C11.8164 16.3398 11.5664 16.0937 11.3008 15.9336ZM12.1914 16.3438C12.3359 15.9492 12.5977 15.9727 12.8906 16.0352C12.8438 16.5977 12.5117 16.3945 12.1914 16.3438ZM13.7969 16.2031C13.7109 16.5469 13.3906 16.3594 13.1523 16.5547C13.1641 16.1016 13.3516 15.9883 13.6367 15.9805C13.8047 15.9766 13.8203 16.1094 13.7969 16.2031ZM14.1328 16.168C14.1133 16.1641 14.0859 16.0352 14.1094 16.0039C14.25 15.8359 14.4219 15.9219 14.6445 15.9375C14.4688 16.1055 14.3281 16.207 14.1328 16.168ZM14.207 15.3164C13.8672 15.3438 13.7539 15.7695 13.3945 15.7109C13.3164 15.6992 13.2383 15.7188 13.0859 15.7266C12.793 15.7813 12.7188 15.5898 12.8984 15.3359C13.125 15.0195 12.9805 14.8516 12.7539 14.6484C12.4297 14.3594 12.1328 14.0391 11.8125 13.7422C11.4609 13.418 11.8945 13.3477 11.9922 13.1758C12.1055 12.9766 12.2383 12.9453 12.4141 13.1484C12.625 13.3984 12.8711 13.6172 13.1016 13.8516C13.1328 13.8828 13.1914 13.9141 13.1953 13.9492C13.2344 14.6719 13.7812 14.3828 14.1562 14.4414C14.3711 14.4727 14.6992 14.2891 14.75 14.6914C14.7969 15.0859 14.5469 15.2891 14.207 15.3164ZM14.7344 2.95312C14.6758 3.11328 14.5234 3.04297 14.4062 3.04688C14.082 3.05469 13.7539 3.05078 13.2891 3.05078C13.5469 3.28906 13.4844 3.4375 13.3164 3.59375C12.9961 3.89453 12.6719 4.19531 12.3984 4.53125C12.1133 4.88672 11.9883 4.60156 11.7852 4.44922C11.5 4.23437 11.6094 4.09375 11.8125 3.91016C12.1367 3.61719 12.4336 3.29297 12.7578 3.00391C12.9922 2.79688 13.1133 2.61719 12.8984 2.30859C12.7461 2.09375 12.7461 1.83984 12.9609 1.62891C13.1367 1.45703 13.3516 1.42187 13.5703 1.49609C13.7773 1.57031 13.9141 1.74219 13.8906 1.96094C13.8594 2.25781 13.9687 2.33984 14.2461 2.34375C14.3711 2.34766 14.5078 2.44531 14.6133 2.53125C14.7383 2.63281 14.7969 2.79297 14.7344 2.95312ZM15.7891 14.5078C15.6328 14.5977 15.4766 14.6992 15.3125 14.7812C15.2422 14.8164 15.1562 14.9297 15.0781 14.8164C15.0391 14.7617 15.0508 14.668 15.0469 14.5898C15.043 14.4687 15.1211 14.4336 15.2266 14.4297C15.4102 14.4219 15.5977 14.4102 15.7852 14.4023C15.6641 13.75 15.5508 13.0977 15.707 12.3633C15.918 12.9766 16.1133 13.5117 16.2852 14.0586C16.4414 14.543 15.9844 14.3867 15.7891 14.5078ZM16.7656 14.793C16.6836 14.8047 16.6094 14.8008 16.6172 14.6875C16.625 14.5859 16.6836 14.5234 16.7891 14.5156C16.875 14.5117 16.9453 14.5352 16.9453 14.6328C16.9492 14.75 16.8633 14.7773 16.7656 14.793ZM17.4375 14.6094C17.3516 14.6328 17.2812 14.6055 17.2812 14.5117C17.2812 14.3672 17.4102 14.3594 17.5117 14.3359C17.6016 14.3203 17.6602 14.3594 17.6641 14.4531C17.6719 14.6172 17.5469 14.6016 17.4375 14.6094ZM18.2852 3.38281C18.9609 4.66797 18.875 13.1562 18.1719 13.9961C17.9609 10.4414 17.9141 6.97266 18.2852 3.38281ZM18.293 14.4531C18.2695 14.5469 18.207 14.582 18.1211 14.5742C18.0273 14.5625 17.9883 14.5 18.0039 14.4102C18.0195 14.3125 18.1016 14.3047 18.1641 14.293C18.2734 14.3086 18.3164 14.3594 18.293 14.4531ZM18.8242 14.6211C18.7305 14.6094 18.5977 14.6211 18.6094 14.4531C18.6172 14.2812 18.7383 14.3242 18.8438 14.3164C18.9141 14.3398 19.0547 14.2734 19.0352 14.4258C19.0234 14.5273 18.9531 14.6367 18.8242 14.6211ZM19.4102 14.793C19.332 14.7852 19.2422 14.7578 19.293 14.6523C19.3437 14.5508 19.3828 14.4063 19.543 14.4414C19.6211 14.457 19.6875 14.5195 19.7617 14.5664C19.6562 14.707 19.5664 14.8086 19.4102 14.793ZM20.043 15.0859C19.9766 15.0937 19.8633 15.0742 19.8672 14.9844C19.875 14.8242 20.0234 14.7656 20.1445 14.7227C20.2188 14.6992 20.3125 14.7695 20.3594 14.8633C20.2891 14.9883 20.1797 15.0625 20.043 15.0859ZM20.9922 15.5312C20.6836 15.7734 20.5859 15.418 20.3789 15.3477C20.5742 15.0117 20.7656 15.1055 20.9805 15.2852C21.0898 15.3789 21.1055 15.4453 20.9922 15.5312ZM22.0977 16.082C22.0273 16.1797 21.9375 16.2188 21.8164 16.1602C21.6094 16.0625 21.3984 15.9688 21.1328 15.8477C21.3945 15.668 22.043 15.7578 22.1445 15.9219C22.1914 16.0039 22.1289 16.0352 22.0977 16.082ZM22.9023 16.1641C22.9141 16.3672 22.7969 16.3828 22.6602 16.3711C22.5586 16.3594 22.3906 16.3672 22.4062 16.2461C22.4219 16.1289 22.5391 16.0039 22.7031 16.0039C22.8242 16.0078 22.9258 16.0313 22.9023 16.1641ZM23.6016 16.0898C23.6172 16.2578 23.4961 16.3125 23.3438 16.332C23.1953 16.3555 23.2148 16.2422 23.2031 16.1523C23.1836 15.9609 23.3008 15.918 23.4609 15.9023C23.5937 15.8945 23.6211 15.9609 23.6016 16.0898ZM23.9922 16.0938C23.9844 16.0938 23.9492 15.9688 23.9727 15.9375C24.0742 15.7891 24.2188 15.8477 24.375 15.8711C24.2773 16.0352 24.1445 16.0859 23.9922 16.0938ZM31.4922 6.70312C32.0625 7.14844 32.0625 7.82031 31.4922 8.28516C31.4922 7.75 31.4922 7.23828 31.4922 6.70312ZM30.0039 6.71875C30.0039 7.24609 30.0039 7.72266 30.0039 8.25C29.5508 7.71875 29.5469 7.29297 30.0039 6.71875ZM26.1836 14.75C26.0703 14.9883 25.8555 14.8008 25.6914 14.832C25.8086 14.6563 25.9531 14.5586 26.1406 14.5508C26.1562 14.5508 26.207 14.6992 26.1836 14.75ZM26.2852 9.79297C26.0781 9.71875 26.1836 9.49609 26.1797 9.33984C26.1719 7.875 26.1836 6.40625 26.1719 4.9375C26.168 4.57031 26.2773 4.5 26.6016 4.64453C26.9414 4.79688 27.1133 5.03906 27.1094 5.40625C27.1094 5.96875 27.1094 6.53125 27.1094 7.21875C27.0742 7.76172 27.168 8.43359 27.0625 9.10156C27.0312 9.29297 26.9766 9.46484 26.832 9.59766C26.6758 9.73828 26.4883 9.86328 26.2852 9.79297ZM26.625 14.7812C26.4805 14.8047 26.4961 14.6836 26.4922 14.5977C26.4844 14.457 26.5352 14.3516 26.6914 14.3281C26.8086 14.3125 26.8711 14.3594 26.8594 14.4727C26.8711 14.6484 26.7852 14.75 26.625 14.7812ZM27.2812 14.707C27.1094 14.625 27.125 14.4883 27.1992 14.4102C27.4023 14.1953 27.6133 14.3516 27.8398 14.4258C27.707 14.6875 27.582 14.8438 27.2812 14.707ZM28.0039 15.043C27.8398 14.8789 27.957 14.793 28.0547 14.7148C28.375 14.4492 28.4727 14.8281 28.7031 14.918C28.4766 15.1523 28.293 15.3437 28.0039 15.043ZM29.25 15.7031C28.9102 16.0078 28.8008 15.5742 28.457 15.5195C28.75 15.375 28.8594 15.0039 29.1367 15.3516C29.2109 15.4453 29.4531 15.5195 29.25 15.7031ZM29.8828 16.293C29.7305 16.2266 29.4805 16.2266 29.4258 16.0195C29.3945 15.9102 29.5938 15.7734 29.7266 15.8359C29.8828 15.9062 30.1406 15.8437 30.1836 16.0586C30.2031 16.1484 30.0977 16.3242 29.8828 16.293ZM30.6758 16.4453C30.5742 16.418 30.4023 16.4688 30.4453 16.2969C30.4844 16.1289 30.5937 15.9922 30.8086 16.0039C30.9531 16.0117 31.0586 16.0273 31.0508 16.2031C31.0391 16.4727 30.8125 16.3906 30.6758 16.4453ZM31.5195 16.2656C31.3438 16.2969 31.3672 16.1797 31.3594 16.0938C31.3516 15.9492 31.3984 15.8516 31.5625 15.8438C31.7109 15.8359 31.7578 15.9258 31.7578 16.0469C31.7617 16.2188 31.5938 16.2031 31.5195 16.2656ZM29.7695 14.6484C29.457 14.6484 29.1367 14.6172 28.8867 14.4062C28.3594 13.9648 27.7461 13.7578 27.0781 13.7266C26.6875 13.707 26.5039 13.5195 26.4609 13.1602C26.418 12.8047 26.4141 12.4453 26.3711 12.0898C26.3359 11.8008 26.4844 11.6172 26.7695 11.5391C26.9688 11.4883 27.1641 11.4453 27.3594 11.3789C28.2305 11.082 28.8438 10.5703 28.9258 9.60547C28.9414 9.75 28.9844 9.88281 29.0703 9.98047C29.3438 10.2852 29.3008 10.5664 29.2109 10.8867C29.1328 11.1719 29.1484 11.4102 29.4609 11.5547C29.6719 11.6484 29.7148 11.8555 29.7227 12.0664C29.7305 12.332 29.7148 12.5977 29.7617 12.8633C29.8164 13.1445 29.707 13.3516 29.4453 13.4727C29.2461 13.5664 29.0664 13.6953 28.9414 13.8789C28.7578 14.1563 28.8867 14.4531 29.2148 14.5156C29.3711 14.5469 29.5352 14.5469 29.6758 14.4805C30.2969 14.1797 30.8945 14.0508 31.5078 14.5195C31.6875 14.6563 31.9766 14.6953 32.1367 14.4375C32.1523 14.4102 32.168 14.3828 32.1797 14.3555C32.2109 14.4609 32.2969 14.5625 32.4531 14.6445C31.5234 14.6563 30.6445 14.6523 29.7695 14.6484ZM46.3125 11.7656C46.1289 11.8125 46.0469 11.6758 45.8477 11.5C46.1055 11.5234 46.2891 11.4062 46.3906 11.6211C46.4141 11.6719 46.3828 11.7461 46.3125 11.7656ZM45.6211 10.9141C45.625 10.8281 45.6484 10.7461 45.7422 10.7812C45.8906 10.8359 46.1055 10.8008 46.1211 11.0469C46.1289 11.1953 46.0156 11.1562 45.9336 11.1523C45.7812 11.1406 45.6133 11.1445 45.6211 10.9141ZM46.3086 9.70312C46.4492 9.77344 46.5898 9.83594 46.5039 10C46.4844 10.0391 46.3789 10.0781 46.3477 10.0586C46.1914 9.96484 46.3242 9.82422 46.3086 9.70312ZM46.7031 11.0977C46.9961 10.9492 47.1758 10.8555 47.4609 10.7109C47.2773 11.0742 47.0859 11.1602 46.7031 11.0977ZM46.625 10.3008C46.8555 10.2773 47.0391 10.3984 47.0156 10.5234C46.9688 10.7617 46.6797 10.7617 46.4961 10.8047C46.2969 10.8516 46.2773 10.6289 46.2852 10.4844C46.3008 10.2109 46.5391 10.3516 46.625 10.3008ZM46.2539 8.22266C46.4492 8.21094 46.4961 8.36328 46.5234 8.48438C46.5586 8.62891 46.4648 8.79687 46.3359 8.80469C46.1953 8.81641 46.0391 8.68359 46.0039 8.54297C45.9609 8.375 46.125 8.28906 46.2539 8.22266ZM45.8086 8.91016C45.9609 8.99219 46.1289 9.07031 46.1562 9.25C46.168 9.32812 46.1289 9.50781 46.0078 9.48828C45.8711 9.46484 45.6875 9.39063 45.668 9.22656C45.6523 9.13281 45.6758 8.98047 45.8086 8.91016ZM45.6875 9.70703C45.9141 9.73828 46.0508 9.91406 46 10.1797C45.9727 10.3125 46.0625 10.5 45.7891 10.4727C45.4766 10.4414 45.5391 10.2227 45.5312 10.0234C45.5781 9.91797 45.4414 9.67188 45.6875 9.70703ZM45.6406 12.5703C45.7148 12.5352 45.9258 12.6641 45.8867 12.8281C45.8437 13.0273 45.7383 13.2109 45.6562 13.4102C45.4922 13.3203 45.3555 13.2227 45.3633 13.0938C45.375 12.8906 45.4492 12.6641 45.6406 12.5703ZM44.2188 8.96484C44.4609 8.98047 44.4883 9.07812 44.4961 9.28125C44.5195 9.91016 44.5977 9.96875 45.2305 9.87109C45.2227 10.4336 45.2578 10.9766 45.4766 11.5156C45.6172 11.8516 45.375 12.2148 45.2188 12.5234C45.1055 12.75 44.9883 12.4805 44.9219 12.4102C44.2461 11.6758 43.8164 10.8047 43.5664 9.84375C43.5586 9.8125 43.5625 9.78125 43.5547 9.75C43.3711 8.94141 43.3984 8.91797 44.2188 8.96484ZM39.457 5.28906C39.6719 5.18359 39.9336 5.17578 39.9766 5.46484C40.0508 5.95312 40.125 6.45312 39.9922 6.94922C39.9375 7.14844 39.7773 7.25 39.5898 7.48438C40.2461 7.48438 40.8203 7.50391 41.3906 7.47656C41.7656 7.45703 41.957 7.5 41.8789 7.96484C41.8086 8.375 41.8359 8.80859 41.8633 9.22656C41.8867 9.52344 41.7891 9.60547 41.5039 9.59766C40.9258 9.57813 40.3516 9.58984 39.6953 9.58984C39.9844 10.1992 40.0039 10.7969 40.0156 11.3945C40.0234 11.7109 39.9883 12.043 39.5898 12.0469C39.2031 12.0508 39.1484 11.7266 39.1484 11.4102C39.1484 9.58203 39.1523 7.75391 39.1484 5.92578C39.1484 5.65625 39.2031 5.41797 39.457 5.28906ZM37.2734 12.4961C37.3555 12.707 37.3867 12.7891 37.4141 12.8711C37.8164 14.0156 38.7266 14.6367 39.7383 14.4688C41.1133 14.2383 41.9648 13.3281 41.9766 12.0781C41.9805 11.5312 41.9766 10.9844 41.9766 10.4336C42.1211 10.418 42.1211 10.5234 42.1484 10.6055C42.5664 11.793 43.3086 12.7305 44.3555 13.4258C44.5937 13.582 44.6367 13.6875 44.4727 13.957C44.0703 14.625 43.5859 14.9453 42.7422 14.9062C41.0117 14.8242 39.2734 14.8711 37.5391 14.8906C37.1523 14.8945 36.8516 14.7773 36.582 14.5234C36.6055 14.4922 36.6211 14.4531 36.6406 14.4492C37.2734 14.4023 37.2734 14.4062 37.2734 13.7422C37.2734 13.3711 37.2734 13.0039 37.2734 12.4961ZM42.4609 15.8711C41.3711 16.75 39.9687 16.7695 38.7305 15.8711C40.0039 15.8711 41.2227 15.8711 42.4609 15.8711ZM34.6328 14.5859C34.6016 14.6797 34.582 14.8086 34.4609 14.8242C34.3398 14.8398 34.3242 14.7266 34.3242 14.6328C34.3242 14.5117 34.3594 14.4219 34.5078 14.4297C34.6055 14.4375 34.6406 14.4883 34.6328 14.5859ZM34.4727 11.5547C34.4531 10.8086 34.4727 10.0547 34.4648 9.30859C34.4609 9.04297 34.5117 8.9375 34.8125 9.02734C35.2227 9.15625 35.5898 9.33984 35.875 9.66406C35.9727 9.77734 36.0625 9.875 36.2266 9.81641C36.3984 9.75781 36.332 9.60938 36.332 9.5C36.3398 8.89062 36.3398 8.28125 36.3359 7.67188C36.3359 7.53516 36.375 7.375 36.1992 7.3125C36.0039 7.24219 35.9492 7.41016 35.8828 7.51953C35.6367 7.92969 35.25 8.09375 34.8047 8.18359C34.5742 8.23047 34.4609 8.1875 34.4648 7.91406C34.4766 7.16406 34.457 6.41406 34.4727 5.66406C34.4844 5.09375 34.8242 4.71094 35.3789 4.56641C35.9844 4.41016 36.5195 4.67578 36.8789 5.05859C37.3164 5.51953 37.2578 6.03125 37.2578 6.55859C37.2617 7.26172 37.2617 7.96484 37.2617 8.66797C37.2617 9.60547 37.2617 10.543 37.2578 11.4805C37.2578 12.1484 36.625 12.7148 35.8867 12.7227C35.0703 12.7344 34.4883 12.2695 34.4727 11.5547ZM35.1406 14.6953C35.0625 14.6875 34.9258 14.7227 34.9648 14.5664C35 14.4336 35.1211 14.4336 35.2344 14.4336C35.3125 14.4375 35.3867 14.4414 35.4062 14.5273C35.3555 14.6641 35.2617 14.707 35.1406 14.6953ZM35.9688 14.9648C35.8555 14.9492 35.6914 14.9258 35.7031 14.7773C35.7109 14.6758 35.8008 14.5352 35.9453 14.5703C36.0625 14.6016 36.168 14.6914 36.2812 14.7539C36.1914 14.9023 36.0977 14.9883 35.9688 14.9648ZM36.6953 15.4297C36.5547 15.4336 36.4062 15.3281 36.375 15.2109C36.3398 15.0859 36.5078 15.0078 36.6172 15C36.7539 14.9844 36.8594 15.0977 36.9531 15.2031C36.8945 15.3086 36.8203 15.4258 36.6953 15.4297ZM37.1133 15.8125C37.0313 15.7227 36.9727 15.6641 37.0859 15.5469C37.3398 15.2812 37.4844 15.5469 37.7266 15.6758C37.5078 15.8438 37.3672 16.0664 37.1133 15.8125ZM37.8398 16.3555C37.7656 16.2852 37.5742 16.2539 37.7227 16.0938C37.9922 15.7969 38.2344 15.9414 38.4766 16.1719C38.3086 16.3984 38.1562 16.6484 37.8398 16.3555ZM38.9062 16.9492C38.7383 16.9336 38.4844 16.8672 38.4648 16.6836C38.4492 16.543 38.6563 16.3828 38.8164 16.3633C38.9766 16.3477 39.125 16.4688 39.2539 16.582C39.1484 16.75 39.1055 16.9727 38.9062 16.9492ZM40.0586 16.9219C40.0195 17.1016 39.9023 17.3008 39.6367 17.2266C39.5117 17.1953 39.3086 17.1992 39.375 17.0156C39.4258 16.8828 39.4961 16.6406 39.7578 16.7422C39.8633 16.8047 40.1016 16.707 40.0586 16.9219ZM41.0078 17.0703C40.8711 17.4961 40.543 17.2773 40.2656 17.3086C40.3594 16.9297 40.5742 16.793 40.9258 16.8555C41.0703 16.8789 41.0313 16.9883 41.0078 17.0703ZM41.3359 17.1758C41.3164 16.6211 41.7891 16.6641 42.1133 16.5117C42.1602 17.0352 42.1133 17.0742 41.3359 17.1758ZM43.1484 16.4414C42.9336 16.5508 42.75 16.7344 42.4805 16.7539C42.3516 16.2383 42.7578 16.1523 43.0156 15.9648C43.1367 15.875 43.1641 15.9961 43.1953 16.082C43.2461 16.2109 43.3281 16.3438 43.1484 16.4414ZM43.6914 16.0625C43.582 16.1523 43.5273 16.0664 43.4844 15.9727C43.3906 15.7695 43.3906 15.5859 43.6055 15.457C43.7266 15.3828 43.7695 15.1445 43.9492 15.2383C44.0547 15.293 44.1016 15.4609 44.1875 15.5977C44.0742 15.8086 43.8633 15.918 43.6914 16.0625ZM44.4727 15.3242C44.0234 14.9141 44.2969 14.6328 44.6016 14.3516C44.9844 14.7969 44.9844 14.7969 44.4727 15.3242ZM45.0625 13.582C45.1562 13.4492 45.2031 13.4766 45.3008 13.5703C45.6719 13.9453 45.1875 14.1172 45.1641 14.4219C44.7344 14.1406 44.8477 13.875 45.0625 13.582ZM45.9961 14.4883C45.8828 14.8164 45.6797 14.9727 45.2695 14.8398C45.3867 14.6328 45.4922 14.4453 45.5938 14.2539C45.6914 14.0703 45.8164 14.1641 45.9492 14.207C46.168 14.2773 46.0352 14.3828 45.9961 14.4883ZM45.9688 12.3555C45.8398 12.3086 45.707 12.2578 45.7188 12.082C45.7266 11.9961 45.7695 11.9141 45.8555 11.9492C45.9766 11.9922 46.1211 12.043 46.1055 12.1641C46.0859 12.3008 46.0781 12.3906 45.9688 12.3555Z" fill="#00C5A1"/>
<path d="M47.2812 1.0625C42.8125 1.07031 38.3437 1.06641 33.875 1.06641C33.7812 1.06641 33.6875 1.06641 33.5937 1.07422C33.2695 1.09766 33.1211 1.28906 33.125 1.60156C33.1289 2.07422 33.4375 2.14062 33.8242 2.14062C38.3242 2.13672 42.8242 2.13672 47.3242 2.14453C47.6328 2.14453 47.8633 2.05469 48.0625 1.83984C48.0625 1.68359 48.0625 1.52734 48.0625 1.37109C47.8594 1.125 47.6016 1.0625 47.2812 1.0625Z" fill="#00C5A1"/>
<path d="M23.8477 2.09765C23.543 2.1328 23.5547 2.27343 23.543 2.49218C23.5313 2.74999 23.6445 2.80468 23.8789 2.80077C24.7656 2.78124 25.4727 2.47655 25.8398 1.57812C25.875 1.74999 25.875 1.89843 25.8789 2.05077C25.8867 2.64452 26.043 2.80859 26.6211 2.8203C27.0273 2.82812 27.4336 2.80859 27.8398 2.82421C28.1133 2.83593 28.1797 2.72655 28.1797 2.47265C28.1836 2.19921 28.0859 2.11718 27.8281 2.1328C27.5313 2.15234 27.2344 2.12499 26.9375 2.14062C26.7148 2.14843 26.6445 2.06249 26.6367 1.84374C26.6172 1.51562 26.6602 1.29687 27.0742 1.35155C27.3203 1.38671 27.5742 1.35937 27.8242 1.35937C27.9141 1.36327 28.0547 1.34765 28.0547 1.45702C28.0508 1.86327 28.3438 1.73827 28.5469 1.74609C28.9844 1.7539 29.4219 1.74999 29.8594 1.74609C30.4805 1.74609 30.4805 1.74609 30.4336 1.10937C30.8242 0.99218 31.2383 0.937491 31.5938 1.13671C31.7422 1.21874 31.1055 1.97265 30.7422 2.09765C30.7148 2.10546 30.6797 2.11718 30.6523 2.11718C30.2188 2.0664 30.3281 2.38671 30.3359 2.60546C30.3437 2.96093 30.6133 2.79687 30.7891 2.80468C30.9805 2.80859 31.1914 2.76952 31.3164 2.64843C31.6797 2.28124 31.9805 2.30468 32.3086 2.6914C32.3945 2.79296 32.5547 2.8789 32.7773 2.83984C32.6758 2.60155 32.8984 2.29687 32.6289 2.10937C32.25 1.84765 32.2656 1.54687 32.3633 1.14452C32.5391 0.421867 32.4492 0.339835 31.7344 0.339835C31.4492 0.339835 31.168 0.351553 30.8867 0.335929C30.6289 0.320303 30.457 0.363272 30.5039 0.683585C30.5234 0.812491 30.4922 0.941398 30.3281 0.937492C30.2891 0.925773 30.2461 0.92968 30.1992 0.937492C30.0547 0.933586 29.9063 0.937492 29.7578 0.941398C29.543 0.937492 29.3242 0.949211 29.1094 0.957023C28.7969 0.957023 28.4844 0.941398 28.1758 0.878898C28.2031 0.589836 28.2305 0.277336 27.8984 0.160148C27.6211 0.0624919 27.4063 0.164054 27.2656 0.472648C27.1641 0.699211 26.7461 0.656242 26.6523 0.414054C26.5938 0.269523 26.5273 0.234367 26.3906 0.207023C25.9414 0.121086 25.668 0.64843 25.2188 0.531242C25.1992 0.605461 25.1719 0.675773 25.1641 0.753898C25.0508 1.74609 24.8555 1.97655 23.8477 2.09765ZM27.5117 0.531242C27.5273 0.402336 27.6016 0.335929 27.7305 0.339835C27.8828 0.347647 27.9375 0.449211 27.9688 0.566398C27.9258 0.71093 27.8555 0.812492 27.7031 0.796867C27.5547 0.777336 27.4961 0.671867 27.5117 0.531242Z" fill="#00C5A1"/>
<path d="M21.332 1.46094C21.5859 1.47656 21.8281 1.54687 21.8633 1.10937C21.8945 0.734374 22.2891 0.945311 22.5156 0.92578C22.7852 0.902343 22.6875 1.10547 22.6602 1.2539C22.5391 1.83984 22.2617 2.0625 21.5117 2.11328C21.293 2.1289 21.1797 2.19531 21.2344 2.41015C21.2695 2.5625 21.0781 2.80469 21.3867 2.86719C22.1016 3.0039 23.0351 2.43359 23.3086 1.73828C23.4141 1.46875 23.2578 1.0625 23.5391 0.941405C23.8008 0.824218 24.1523 0.906248 24.4648 0.902342C24.4805 0.902342 24.4961 0.902342 24.5117 0.902342C24.8086 0.949217 24.9102 0.835936 24.9062 0.523436C24.9023 0.22656 24.8125 0.152343 24.5273 0.164061C24.0312 0.187499 23.5312 0.171874 23.0312 0.171874C22.6758 0.171874 22.3164 0.171874 21.957 0.171874C21.125 0.171874 21.1133 0.171873 21.1367 0.996092C21.1406 1.16015 20.9805 1.4414 21.332 1.46094Z" fill="#00C5A1"/>
<path d="M5.66015 11.4101C6.34765 11.4258 6.95703 10.832 6.95703 10.1445C6.95703 9.47655 6.3789 8.89061 5.70703 8.87889C5.01562 8.86718 4.44531 9.41014 4.42578 10.0976C4.41015 10.8203 4.94531 11.3945 5.66015 11.4101Z" fill="#00C5A1"/>
<path d="M9.26954 11.4102C9.96875 11.4102 10.5469 10.8203 10.5352 10.1211C10.5234 9.44141 9.94922 8.87891 9.27344 8.87891C8.60157 8.87891 8.01563 9.44922 8 10.1211C7.98828 10.8086 8.57813 11.4102 9.26954 11.4102Z" fill="#00C5A1"/>
<path d="M7.47266 12.2422C7.77344 12.2539 7.94141 12.043 8 11.7344C7.95313 11.4648 7.81641 11.2461 7.50782 11.2305C7.19922 11.2148 7 11.3945 6.97657 11.6953C6.95313 12.0273 7.16016 12.2305 7.47266 12.2422Z" fill="#00C5A1"/>
</svg>
