<svg width="50" height="50" viewBox="0 0 50 50" fill="none" xmlns="http://www.w3.org/2000/svg">
<path d="M42.2344 27.7656C41.8047 27.4375 41.3515 27.1406 40.8789 26.8789C40.4062 26.6133 39.8984 26.4141 39.3672 26.168C39.7969 26.1055 40.1679 26.0508 40.6328 25.9805C39.4492 24.8711 38 24.4141 36.6484 23.7266C38.3828 22.3242 40.4219 21.3633 42.0312 19.8008C41.1679 19.8008 40.3672 19.8164 39.5703 19.7969C38.789 19.7812 38.0117 19.7266 37.2304 19.6875C39.0898 17.8359 40.8554 16.0195 42.4726 13.9453C41.0625 14.2695 39.7617 14.5703 38.4609 14.8711C39.0351 13.8633 39.9414 13.1719 40.4453 12.1406C39.4414 12.5 38.4922 12.8398 37.5156 13.1875C38.7773 10.8281 40.0078 8.52734 41.2422 6.21875C40.4023 6.33594 39.625 6.8125 38.6445 6.80859C39.4687 5.32031 40.6719 4.25 41.75 2.94531C38.957 3.80859 36.2695 4.63672 33.582 5.46484C33.5703 5.43359 33.5586 5.40625 33.5469 5.375C34.9804 4.375 36.414 3.37109 37.8437 2.37109C37.8359 2.33594 37.8242 2.30078 37.8164 2.26953C34.0312 3.59766 30.0937 3.69141 26.1367 3.75C27.3008 2.85547 28.4648 1.96094 29.6289 1.06641C29.6172 1.04297 29.6054 1.02344 29.5937 1C27.7695 1.80078 25.9414 2.60156 24.1172 3.40234C24.0937 3.36719 24.0703 3.33594 24.0508 3.30078C24.5547 2.77344 25.0625 2.24219 25.6367 1.64062C25.2148 1.82422 24.8867 1.99219 24.5429 2.10938C23.0976 2.59375 21.6445 3.05469 20.2031 3.54297C18.8437 4 17.4492 4.37891 16.2422 5.19531C13.3203 7.16406 10.8359 9.60938 8.57029 12.2852C8.21873 12.6992 7.93357 13.2109 7.7617 13.7227C7.56248 14.3125 7.52342 14.957 7.42185 15.5781C7.16013 17.1602 7.28904 18.7461 7.48435 20.3203C7.59373 21.2188 7.78904 22.1094 7.96482 22.9961C8.16404 23.9961 8.36717 24.9961 8.60545 25.9883C8.97263 27.5313 9.37107 29.0664 9.74998 30.6094C9.84763 31 9.93357 31.3984 10.0273 31.793C10.0547 31.7891 10.082 31.7852 10.1094 31.7812C10.1094 30.6523 10.1094 29.5273 10.1094 28.3984C10.1953 28.4961 10.2422 28.6016 10.2695 28.7109C10.4648 29.4648 10.6289 30.2344 10.8554 30.9805C11.3242 32.5352 11.789 34.0938 12.3203 35.6289C12.8984 37.2891 13.5508 38.9219 14.1523 40.5742C14.207 40.7187 14.1797 40.9414 14.1015 41.0781C13.6211 41.9062 13.0508 42.6797 12.789 43.625C12.6133 44.2578 12.6094 44.8359 13.0664 45.3281C13.4883 45.7852 13.9375 46.2188 14.3984 46.6328C15.1992 47.3555 16.0312 48.043 16.8242 48.7695C17.0195 48.9453 17.1719 49.0273 17.4101 48.9219C17.5156 48.875 17.6289 48.8516 17.7344 48.8125C21.2187 47.5938 24.7031 46.3672 28.1914 45.1602C31.4219 44.0391 34.664 42.9609 37.789 41.5547C38.789 41.1016 39.7031 40.5195 40.5156 39.7812C40.9609 39.3789 41.2031 38.9062 41.1797 38.2734C41.1601 37.7578 41.1601 37.2188 41.2851 36.7266C41.9179 34.2266 42.3203 31.6875 42.6797 29.1406C42.7578 28.6055 42.6875 28.1055 42.2344 27.7656ZM26.0156 32.9062C26.0312 32.9023 26.0469 32.8984 26.0625 32.8945C26.1758 33.8555 26.2929 34.8164 26.3906 35.7812C26.4023 35.8984 26.3437 36.0586 26.2578 36.1367C26.0429 36.3437 25.7929 36.5156 25.5351 36.7188C25.6992 35.4219 25.8594 34.1641 26.0156 32.9062ZM23.4531 39.4102C23.4336 39.4102 23.4062 39.4141 23.3906 39.4023C23.2969 39.3398 23.2031 39.2734 23.0429 39.1602C23.6289 38.6016 24.1445 38.1094 24.6601 37.6211C24.6914 37.6523 24.7265 37.6875 24.7617 37.7188C24.5469 37.9258 24.332 38.1367 24.1172 38.3398C23.9765 38.4727 23.8398 38.6055 23.6914 38.7227C23.4609 38.9023 23.3086 39.1016 23.4531 39.4102ZM20.5898 19.8398C20.9219 20.5742 21.2812 21.3359 21.6054 22.1094C21.9336 22.8984 22.2265 23.7031 22.539 24.4961C22.6328 24.7305 22.6211 24.8477 22.3242 24.918C21.7148 25.0703 21.1211 25.2852 20.5195 25.4688C20.3906 25.5078 20.2578 25.5312 20.1211 25.5625C20.2773 23.6289 20.4336 21.7266 20.5898 19.8398ZM22.7578 25.9375C21.8515 26.043 20.9414 26.1484 19.8828 26.2734C20.0351 26.0937 20.1094 25.9375 20.2226 25.8906C21.0234 25.5703 21.8359 25.2734 22.6797 24.9531C22.7969 25.3984 22.9023 25.8086 23.0312 26.3125C21.9844 26.4844 20.957 26.6523 19.9336 26.8203C19.9062 26.7773 19.8789 26.7383 19.8554 26.6953C19.9297 26.6328 19.9961 26.5312 20.082 26.5156C20.4258 26.4453 20.7773 26.3984 21.1289 26.3516C21.5781 26.293 22.0273 26.2422 22.4765 26.1797C22.582 26.1641 22.6797 26.1133 22.7812 26.0781C22.7734 26.0312 22.7656 25.9844 22.7578 25.9375ZM19.832 27.0977C20.0586 27.0703 20.3008 27.0391 20.5429 27.0078C20.9492 28.043 21.1523 28.168 22.2539 28.0938C21.375 28.3047 20.5 28.5352 19.5781 28.3516C19.6679 27.9141 19.7461 27.5234 19.832 27.0977ZM12.332 25.9258C12.3633 25.875 12.3945 25.8242 12.4258 25.7734C12.7695 25.9883 13.1133 26.2031 13.457 26.418C13.4297 26.4531 13.4062 26.4883 13.3789 26.5234C13.0312 26.3242 12.6797 26.125 12.332 25.9258ZM12.8906 26.543C13.0078 26.7187 13.1562 26.8828 13.2265 27.0781C13.3984 27.5312 13.6211 27.9219 14.0859 28.1328C14.2031 28.1836 14.3164 28.2539 14.4297 28.3164C13.1992 28.0742 12.7929 27.6211 12.7969 26.6055C12.8281 26.582 12.8594 26.5625 12.8906 26.543ZM12.8711 28.0586C13.289 28.2305 13.6211 28.3828 13.9648 28.5078C14.4804 28.6914 14.5312 28.6914 14.4179 29.2305C14.207 30.2187 13.9297 31.1914 13.6836 32.1719C13.6328 32.168 13.5859 32.1641 13.5351 32.1641C12.9844 30.8594 13.2031 29.4414 12.8711 28.0586ZM13.8554 33.4258C13.5742 33.2305 13.5625 32.9375 13.6679 32.6055C13.957 31.6953 14.1719 30.7617 14.4883 29.8594C14.8789 28.7422 14.5 27.7305 14.1953 26.6914C14.1328 26.4688 14.1367 26.2266 14.1054 25.9141C14.0312 26.0508 13.9961 26.1172 13.9492 26.2031C13.1406 25.7812 12.4219 25.2461 11.8633 24.5273C11.7344 24.3594 11.6484 24.1172 11.6367 23.9062C11.5429 22.4492 11.4414 20.9922 11.414 19.5312C11.4062 18.875 11.5703 18.2148 11.6601 17.5C12.3594 17.8711 12.8906 18.3203 13.3203 18.8711C13.5351 19.1484 13.7187 19.168 14.0117 19.0273C14.4804 18.8047 14.9648 18.625 15.4414 18.4258C15.6484 18.3398 15.8008 18.375 15.8867 18.6094C16.3828 19.9688 16.9375 21.3086 17.3633 22.6875C17.6953 23.7539 17.8711 24.875 18.1054 25.9688C18.1484 26.1602 18.1406 26.3008 17.8789 26.3984C17.2344 26.6367 16.6015 26.875 15.8828 26.6992C16.1719 27.0586 16.6054 27.1406 16.9765 27.125C17.375 27.1016 17.7578 26.8672 18.2187 26.7031C18.0976 27.7695 18.375 28.7773 18.3515 29.8047C18.3281 30.8672 18.3476 31.9336 18.3476 33C18.3945 33.0078 18.4453 33.0156 18.4922 33.0273C18.8633 31.5547 19.2344 30.0859 19.6172 28.5781C20.0547 28.5781 20.5742 28.4727 21.0273 28.6016C21.9648 28.8672 22.625 28.4336 23.3476 27.8945C23.4414 28.293 23.5429 28.6758 23.6172 29.0664C23.8476 30.293 24.0781 31.5195 24.2851 32.75C24.375 33.2852 24.414 33.8281 24.4648 34.3711C24.5469 35.2266 24.6133 36.082 24.6992 36.9414C24.7187 37.1406 24.6601 37.2656 24.4765 37.3633C23.3906 37.9453 22.2734 38.4336 21.0586 38.6602C20.4297 38.7773 19.7929 38.8555 19.1601 38.9531C18.3437 39.0742 17.7461 38.75 17.3789 38.0273C17.1992 37.6797 17.1054 37.2891 16.9219 36.9453C16.8281 36.7656 16.6367 36.6211 16.4648 36.4961C16.2031 36.3047 16.1289 36.0703 16.2109 35.7617C16.3437 35.7539 16.4687 35.7461 16.6484 35.7344C16.2773 35.3711 15.6054 35.4844 15.5273 34.8516C15.4687 34.3398 15.582 33.9102 16.1484 33.6758C16.1133 33.6523 16.082 33.625 16.0508 33.6016C15.9414 33.6445 15.8359 33.6953 15.7226 33.7344C15.0469 33.9648 14.4179 33.8203 13.8554 33.4258ZM15.375 37.8672C15.4297 38.0078 15.5117 38.1445 15.5429 38.2891C15.5781 38.4297 15.6211 38.6133 15.5586 38.7227C15.3125 39.1719 15.0312 39.5977 14.707 40.1211C14.5976 38.4805 14.5 36.9453 14.3984 35.4141C14.4179 35.4063 14.4336 35.4023 14.4492 35.3984C14.7578 36.2227 15.0664 37.0469 15.375 37.8672ZM14.7187 34.1797C14.9531 34.168 15.0937 34.1641 15.2773 34.1562C15.2773 34.3828 15.2773 34.5547 15.2773 34.8125C15.0781 34.5898 14.9258 34.4141 14.7187 34.1797ZM24.4883 41.6719C24.375 41.8438 24.1406 41.9414 23.9453 42.0547C23.7851 42.1484 23.6094 42.2187 23.3828 42.3242C23.4179 42.0195 23.4531 41.7461 23.4844 41.4766C23.4453 41.4688 23.4062 41.457 23.3672 41.4492C23.3203 41.6523 23.2422 41.8555 23.2383 42.0586C23.2344 42.3242 23.125 42.4805 22.9023 42.6016C22.5351 42.7969 22.1758 43.0117 21.8164 43.2227V43.2188C21.8242 42.3945 21.9219 41.5859 22.289 40.8242C22.1875 40.8867 22.1367 40.9648 22.0937 41.0469C21.7187 41.7344 21.6094 42.457 21.8164 43.2188C20.7148 43.8711 19.5937 44.4844 18.3359 44.7812C17.9961 44.8633 17.6445 44.8945 17.2265 44.957C17.2812 44.6836 17.3164 44.4805 17.3554 44.2734C17.332 44.2656 17.3086 44.2539 17.2851 44.2461C17.2226 44.3437 17.1211 44.4375 17.1054 44.543C17.0508 44.9297 16.7969 44.9375 16.5 44.918C15.5273 44.8477 14.5508 44.8047 13.5781 44.7227C13.0664 44.6758 12.9023 44.4062 13.0234 43.9062C13.2695 42.8984 13.8203 42.043 14.3594 41.1484C14.4726 41.3984 14.5703 41.6094 14.7031 41.9062C14.75 41.7578 14.7773 41.7188 14.7656 41.6914C14.4101 40.5273 15.2031 39.7656 15.7461 38.8516C16.3359 40.543 16.9062 42.1797 17.4765 43.8164C17.5273 43.8086 17.5742 43.7969 17.625 43.7891C17.625 42.1523 17.625 40.5156 17.625 38.8125C18.5859 39.4258 19.5234 39.1719 20.4531 39.0156C20.9336 38.9336 21.4062 38.7891 21.8828 38.6758C22.3281 38.5703 22.4883 38.9727 22.7265 39.2031C22.7969 39.2695 22.7304 39.5117 22.6836 39.6602C22.6328 39.8398 22.5351 40.0039 22.457 40.1758C22.4922 40.1914 22.5234 40.207 22.5586 40.2227C22.7109 39.9844 22.8672 39.75 23.0586 39.4609C23.2695 39.8516 23.9179 39.9297 23.664 40.6211C23.7929 40.5352 23.8672 40.4805 23.9414 40.4297C24.2461 40.5391 24.664 41.4141 24.4883 41.6719ZM26.7187 40.5859C26.0898 40.9258 25.4492 41.2422 24.7773 41.582C24.7812 40.7695 24.2031 40.3398 23.7773 39.8203C23.6679 39.6875 23.5664 39.5469 23.4609 39.4102C23.8906 39.0469 24.3203 38.6836 24.7461 38.3203C24.75 38.3242 24.7539 38.3242 24.7617 38.3281C24.4101 38.6914 24.0586 39.0547 23.7109 39.4141C23.7344 39.4375 23.7539 39.4609 23.7773 39.4844C23.8789 39.4062 23.9804 39.3242 24.082 39.2461C24.0976 39.2578 24.1133 39.2656 24.125 39.2773C24.0586 39.3789 23.9922 39.4766 23.9258 39.5781C23.9492 39.6055 23.9726 39.6328 23.9961 39.6562C24.6719 39.0312 25.3515 38.4062 26.0273 37.7773C26.0039 37.7461 25.9804 37.7148 25.957 37.6836C25.8828 37.7227 25.8047 37.7578 25.6289 37.8477C25.8047 37.6563 25.9023 37.5469 26.0039 37.4336C25.6719 36.9727 26.2422 36.9023 26.3906 36.5156C26.0117 36.7852 25.7148 37 25.4179 37.2109C25.3984 37.1836 25.3789 37.1523 25.3554 37.125C25.7031 36.8711 26.0508 36.6172 26.4492 36.3242C26.5039 36.7656 26.5586 37.1484 26.5976 37.5352C26.6875 38.4414 26.7695 39.3477 26.8437 40.2578C26.8515 40.3672 26.7969 40.543 26.7187 40.5859ZM30.0898 31.4648C30.3554 30.0391 30.6523 28.6211 30.8789 27.1875C31.0703 25.9805 31.1562 24.75 31.3398 23.5391C31.3906 23.2188 31.6445 22.9297 31.8047 22.625C31.8437 22.6367 31.8828 22.6484 31.9219 22.6602C31.9101 22.7344 31.8984 22.8125 31.8867 22.8867C31.9023 22.8984 31.9219 22.9102 31.9375 22.918C32.0664 22.7578 32.1914 22.5938 32.3281 22.4414C32.8789 21.8242 33.5234 21.4375 34.4023 21.6133C34.7304 21.6797 34.9219 21.8711 34.9844 22.1797C35.3359 23.8555 35.3633 25.4727 34.3125 26.9727C33.8945 27.5625 33.6328 28.2617 33.3008 28.9102C33.1054 29.2969 32.8008 29.6133 32.3594 29.5547C31.4804 29.4414 31.0273 29.8008 30.8633 30.6406C30.8086 30.9062 30.664 31.1602 30.5351 31.4062C30.375 31.7031 30.1875 31.9883 29.9336 32.2578C29.9844 31.9922 30.039 31.7305 30.0898 31.4648ZM31.3945 31.1992C31.4375 31.1016 31.4804 31.0078 31.5234 30.9102C31.5078 30.8945 31.4883 30.8789 31.4726 30.8633C31.2578 31.0547 31.0429 31.2461 30.832 31.4414C30.8086 31.418 30.7851 31.3945 30.7656 31.375C31.0508 31.1055 31.3398 30.8398 31.625 30.5703C31.6562 30.5859 31.6875 30.6016 31.7187 30.6133C31.6797 30.793 31.6445 30.9687 31.6054 31.1484C31.5351 31.1641 31.4648 31.1797 31.3945 31.1992ZM34.457 36.8945C32.4922 37.8398 30.5156 38.7539 28.539 39.6836C28.4961 39.7031 28.4492 39.7148 28.3359 39.75C28.4297 39.2695 28.5156 38.8359 28.6054 38.3984C28.875 37.1406 29.1445 35.8828 29.4179 34.6289C29.5351 34.0859 29.5625 33.5 29.7929 33.0117C30.1015 32.3633 30.5039 31.7344 31.1953 31.3867C30.9609 31.6406 30.7304 31.8906 30.4961 32.1445C30.5234 32.1719 30.5547 32.1992 30.582 32.2266C30.9258 31.8672 31.2695 31.5078 31.6133 31.1445C31.6094 31.1445 31.6094 31.1445 31.6094 31.1445C31.7304 30.9258 31.8554 30.7031 31.9804 30.4844C32.0625 30.332 32.1406 30.1797 32.2422 29.9922C32.5351 30.8086 32.8047 31.5703 33.0781 32.332C33.0937 32.3789 33.1172 32.4258 33.1445 32.4688C33.3281 32.7578 33.4804 33.0508 33.2773 33.418C33.3281 33.3242 33.3789 33.2344 33.4609 33.0781C33.539 33.3242 33.5547 33.4687 33.6289 33.5742C33.707 33.6914 33.8281 33.7969 33.9531 33.8555C34.1484 33.9492 34.3672 34.0039 34.5781 34.0742C34.5664 34.1094 34.5586 34.1406 34.5469 34.1758C34.4414 34.1641 34.3359 34.1562 34.207 34.1406C34.25 34.3203 34.2812 34.4648 34.3125 34.6133C34.2695 34.6328 34.2226 34.6563 34.1797 34.6758C33.9961 34.457 33.8164 34.2344 33.5781 33.9453C33.6328 34.4648 34.2226 35.0469 34.6679 35.1289C35.0547 35.1992 35.1914 35.1367 35.3437 34.8203C35.6133 35.0156 35.8789 35.207 36.1758 35.418C35.6719 36.0039 35.1484 36.5586 34.457 36.8945ZM34.6015 34.875C34.6875 34.7031 34.7617 34.5625 34.8437 34.4062C34.9375 34.4844 35.0742 34.6016 35.2109 34.7188C35.0547 35.082 34.8203 35.0117 34.6015 34.875ZM42.25 28.7734C41.7812 29.957 40.8945 30.8125 40.0156 31.6719C39.4531 32.2227 38.8828 32.7578 38.2773 33.332C38.1679 32.6719 38.1133 32.0195 37.4687 31.6523C38.082 32.2773 37.75 33.0625 37.8906 33.7656C37.6523 33.1602 37.7148 32.4102 36.9492 32.082C36.9297 32.1445 36.9101 32.1836 36.914 32.1875C37.5078 32.6289 37.5234 33.2812 37.539 33.9297C37.5429 34.0195 37.4922 34.1289 37.4297 34.1953C37.1328 34.5078 36.8281 34.8164 36.5078 35.1055C36.4492 35.1602 36.2695 35.168 36.1992 35.1211C35.7265 34.8086 35.2734 34.4766 34.8086 34.1523C34.8398 34.1094 34.8672 34.0664 34.8984 34.0234C35.3242 34.3008 35.75 34.5781 36.1875 34.8633C36.0078 34.3789 35.5898 34.1445 35.164 34.0195C34.6289 33.8633 34.4804 33.5703 34.5078 33.0547C34.5429 32.3867 34.5156 31.7148 34.5156 30.9766C34.8125 31.3047 35.0976 31.6211 35.4258 31.9844C35.3711 31.0859 35.3203 30.2695 35.2656 29.3555C35.5469 29.6719 35.7773 29.9375 36.0742 30.2773C36.0976 30.082 36.1289 29.9766 36.1211 29.8789C36.0508 28.9961 35.9687 28.1172 35.914 27.2344C35.9062 27.1211 36.0078 26.918 36.0976 26.8984C36.9375 26.6797 37.7734 26.4102 38.6289 26.3359C39.1094 26.293 39.6328 26.5508 40.1054 26.7539C40.8242 27.0625 41.5 27.4492 42.0781 28C42.3242 28.2383 42.3711 28.4648 42.25 28.7734Z" fill="#00C5A1"/>
<path d="M16.9062 35.8164C17.7578 35.9453 18.6445 35.7539 19.4258 36.2539C19.1289 35.7031 17.9453 35.5039 16.9062 35.8164Z" fill="#00C5A1"/>
<path d="M35.6719 31.043C36.0898 31.1484 36.4961 31.25 36.9727 31.3672C36.5625 30.9766 36.0234 30.8555 35.6719 31.043Z" fill="#00C5A1"/>
<path d="M32.5859 24.3555C33.0078 24.5117 33.4297 24.6641 33.8477 24.8242C34.1602 24.9453 34.2461 25.1758 34.0898 25.457C33.8203 25.9531 33.5352 26.4375 33.2266 26.9102C33.1523 27.0234 32.9648 27.0937 32.8164 27.1172C32.4688 27.1797 32.2383 27.3711 32.0195 27.6562C32.4023 27.5195 32.7305 27.4023 33.0547 27.2773C33.1328 27.2461 33.2266 27.207 33.2656 27.1406C33.6406 26.5586 34.0156 25.9805 34.3555 25.3828C34.4219 25.2617 34.3984 24.9844 34.3047 24.9062C33.8203 24.4805 33.2187 24.3359 32.5859 24.3555Z" fill="#00C5A1"/>
<path d="M34.6445 22.5234C34.6836 22.5508 34.75 22.5391 34.8203 22.5469C34.6328 22.1445 34.1562 21.9258 33.7734 22.0469C32.9297 22.3125 32.1758 23.4297 32.0586 24.2539C32.418 23.7383 32.7383 23.2187 33.1133 22.7422C33.5391 22.2109 34.0703 22.1601 34.6445 22.5234Z" fill="#00C5A1"/>
<path d="M32.0508 25.2656C32.1406 25.6445 32.3438 26.0391 32.2891 26.3945C32.2344 26.7695 31.9258 27.1016 31.6797 27.543C32.625 26.7383 32.7539 26.1797 32.0508 25.2656Z" fill="#00C5A1"/>
<path d="M33.9688 23.6133C33.9961 23.4063 33.9805 23.1953 33.9805 22.9883C33.9414 22.9883 33.9062 22.9883 33.8672 22.9883C33.8477 23.168 33.8281 23.3437 33.8086 23.5273C33.5078 23.4297 33.2344 23.3438 32.957 23.2539C32.9414 23.3125 32.9219 23.3711 32.9062 23.4297C33.1797 23.5195 33.4531 23.625 33.7344 23.6992C33.8047 23.7187 33.9648 23.6523 33.9688 23.6133Z" fill="#00C5A1"/>
<path d="M32.7617 28.1211C32.8008 28.1523 32.8398 28.1797 32.8789 28.2109C33.0508 27.9961 33.2188 27.7813 33.3906 27.5664C33.3516 27.5352 33.3125 27.5039 33.2734 27.4727C33.1016 27.6875 32.9336 27.9062 32.7617 28.1211Z" fill="#00C5A1"/>
<path d="M24.0078 39.7969C24.0391 39.8281 24.0664 39.8633 24.0977 39.8945C24.4961 39.5352 24.8945 39.1797 25.293 38.8203C25.2656 38.793 25.2344 38.7656 25.207 38.7344C24.8086 39.0898 24.4102 39.4453 24.0078 39.7969Z" fill="#00C5A1"/>
</svg>
