<svg width="491" height="491" viewBox="0 0 491 491" fill="none" xmlns="http://www.w3.org/2000/svg">
<g clip-path="url(#clip0)">
<path d="M138.667 192H96C90.112 192 85.333 196.779 85.333 202.667V288C85.333 293.888 90.112 298.667 96 298.667C101.888 298.667 106.667 293.888 106.667 288V213.333H138.667C144.555 213.333 149.334 208.554 149.334 202.666C149.334 196.778 144.555 192 138.667 192Z" fill="#23D997"/>
<path d="M117.333 234.667H96C90.112 234.667 85.333 239.446 85.333 245.334C85.333 251.222 90.112 256 96 256H117.333C123.221 256 128 251.221 128 245.333C128 239.445 123.221 234.667 117.333 234.667Z" fill="#23D997"/>
<path d="M245.333 0C110.059 0 0 110.059 0 245.333C0 380.607 110.059 490.666 245.333 490.666C380.607 490.666 490.666 380.607 490.666 245.333C490.666 110.059 380.608 0 245.333 0ZM245.333 469.333C121.813 469.333 21.333 368.853 21.333 245.333C21.333 121.813 121.813 21.333 245.333 21.333C368.853 21.333 469.333 121.813 469.333 245.333C469.333 368.853 368.853 469.333 245.333 469.333Z" fill="#23D997"/>
<path d="M386.752 131.989C352.085 88.789 300.544 64 245.333 64C190.122 64 138.581 88.789 103.914 131.989C100.223 136.576 100.949 143.296 105.557 146.986C110.144 150.677 116.864 149.951 120.533 145.343C151.146 107.199 196.629 85.332 245.333 85.332C294.037 85.332 339.52 107.199 370.112 145.343C372.224 147.967 375.317 149.332 378.432 149.332C380.8 149.332 383.147 148.564 385.109 146.985C389.717 143.296 390.443 136.576 386.752 131.989Z" fill="#23D997"/>
<path d="M376.405 354.923C372.181 350.891 365.397 351.062 361.344 355.328C330.731 387.563 289.536 405.333 245.333 405.333C201.13 405.333 159.936 387.562 129.344 355.328C125.312 351.019 118.528 350.891 114.283 354.923C109.974 358.976 109.824 365.739 113.878 370.006C148.545 406.55 195.222 426.667 245.334 426.667C295.446 426.667 342.123 406.55 376.811 370.006C380.864 365.739 380.693 358.976 376.405 354.923Z" fill="#23D997"/>
<path d="M206.805 255.723C222.506 253.696 234.666 240.235 234.666 224C234.666 206.357 220.309 192 202.666 192H181.333C175.445 192 170.666 196.779 170.666 202.667V245.248C170.666 245.291 170.666 245.355 170.666 245.397V288C170.666 293.888 175.445 298.667 181.333 298.667C187.221 298.667 192 293.888 192 288V271.083L216.448 295.552C218.539 297.621 221.269 298.667 224 298.667C226.731 298.667 229.461 297.622 231.531 295.531C235.691 291.371 235.691 284.608 231.531 280.448L206.805 255.723ZM192 234.667V213.334H202.667C208.534 213.334 213.334 218.113 213.334 224.001C213.334 229.889 208.534 234.668 202.667 234.668H192V234.667Z" fill="#23D997"/>
<path d="M309.333 277.333H277.333V213.333H309.333C315.221 213.333 320 208.554 320 202.666C320 196.778 315.221 192 309.333 192H266.666C260.778 192 255.999 196.779 255.999 202.667V288C255.999 293.888 260.778 298.667 266.666 298.667H309.333C315.221 298.667 320 293.888 320 288C320 282.112 315.221 277.333 309.333 277.333Z" fill="#23D997"/>
<path d="M288 234.667H266.667C260.779 234.667 256 239.446 256 245.334C256 251.222 260.779 256 266.667 256H288C293.888 256 298.667 251.221 298.667 245.333C298.667 239.445 293.888 234.667 288 234.667Z" fill="#23D997"/>
<path d="M394.667 277.333H362.667V213.333H394.667C400.555 213.333 405.334 208.554 405.334 202.666C405.334 196.778 400.555 192 394.667 192H352C346.112 192 341.333 196.779 341.333 202.667V288C341.333 293.888 346.112 298.667 352 298.667H394.667C400.555 298.667 405.334 293.888 405.334 288C405.334 282.112 400.555 277.333 394.667 277.333Z" fill="#23D997"/>
<path d="M373.333 234.667H352C346.112 234.667 341.333 239.446 341.333 245.334C341.333 251.222 346.112 256 352 256H373.333C379.221 256 384 251.221 384 245.333C384 239.445 379.221 234.667 373.333 234.667Z" fill="#23D997"/>
</g>
<defs>
<clipPath id="clip0">
<rect width="490.667" height="490.667" fill="white"/>
</clipPath>
</defs>
</svg>
