<?xml version="1.0" encoding="UTF-8"?>
<svg xmlns="http://www.w3.org/2000/svg" xmlns:xlink="http://www.w3.org/1999/xlink" width="61pt" height="50pt" viewBox="0 0 61 50" version="1.1">
<g id="surface1">
<path style=" stroke:none;fill-rule:nonzero;fill:rgb(0%,0%,0%);fill-opacity:1;" d="M 53.933594 37.933594 C 51.871094 37.382812 49.8125 36.835938 47.589844 36.242188 C 52.164062 33.671875 56.578125 31.1875 60.996094 28.703125 C 60.976562 28.65625 60.960938 28.609375 60.941406 28.5625 C 57.882812 28.378906 54.824219 28.191406 51.59375 27.996094 C 53.484375 26.289062 55.242188 24.703125 57.109375 23.015625 C 52.878906 23.339844 48.84375 23.652344 44.785156 23.960938 C 43.503906 20.058594 40.675781 17.945312 36.933594 16.9375 C 37.023438 13.699219 36.433594 10.484375 35.207031 7.488281 C 34.351562 5.382812 33.089844 3.640625 30.949219 2.699219 C 29.902344 2.238281 28.84375 1.777344 27.753906 1.4375 C 26.058594 0.914062 24.335938 0.496094 22.503906 0 C 23.992188 4.613281 25.292969 9.105469 24.617188 14.003906 C 24.277344 13.808594 24.128906 13.464844 23.878906 13.222656 C 21.695312 11.113281 19.289062 9.324219 16.429688 8.226562 C 15.011719 7.679688 13.578125 7.339844 12.035156 7.734375 C 7.671875 8.84375 3.820312 11.011719 0.00390625 13.402344 C 0.113281 13.53125 0.140625 13.582031 0.179688 13.601562 C 0.445312 13.757812 0.710938 13.90625 0.980469 14.054688 C 4.734375 16.121094 8.234375 18.53125 11.140625 21.722656 C 12.601562 23.332031 13.835938 25.105469 14.539062 27.238281 C 9.707031 28.105469 5.5 30.347656 1.125 32.777344 C 6.070312 33.871094 10.789062 34.90625 15.199219 37.347656 C 13.214844 38.496094 11.351562 39.570312 9.347656 40.730469 C 10.128906 40.8125 10.726562 40.875 11.328125 40.9375 C 14.191406 41.226562 17.066406 41.464844 19.917969 41.847656 C 20.691406 41.953125 21.464844 42.394531 21.753906 43.320312 C 21.878906 43.734375 22.101562 44.113281 22.40625 44.421875 C 23.789062 45.777344 25.1875 47.121094 26.628906 48.410156 C 28.480469 50.058594 30.726562 50.371094 32.9375 49.597656 C 34.277344 49.132812 35.496094 48.128906 36.578125 47.152344 C 37.8125 46.035156 38.828125 44.675781 39.957031 43.441406 C 40.136719 43.277344 40.363281 43.183594 40.605469 43.171875 C 42.183594 43.097656 43.765625 43.046875 45.347656 43 C 45.984375 42.980469 46.625 42.996094 47.265625 42.996094 C 47.265625 42.925781 47.269531 42.855469 47.273438 42.78125 C 46.195312 42.253906 45.117188 41.726562 43.882812 41.121094 C 47.351562 40.078125 50.648438 39.09375 53.941406 38.105469 Z M 40.144531 30.195312 C 40.234375 30.511719 40.445312 30.851562 40.394531 31.144531 C 40.164062 32.394531 39.863281 33.636719 39.578125 34.878906 C 39.539062 35.050781 39.484375 35.222656 39.417969 35.441406 L 38.996094 34.761719 L 35.878906 36.507812 C 37.492188 34.539062 38.921875 32.425781 40.144531 30.195312 Z M 26.546875 29.570312 L 26.546875 37.015625 L 23.605469 35.367188 C 23.621094 31.644531 24.25 30.484375 26.546875 29.570312 Z M 42.25 39.140625 C 41.746094 39.902344 41.125 40.585938 40.550781 41.300781 C 40.503906 41.359375 40.445312 41.449219 40.386719 41.453125 C 39.238281 41.542969 39.300781 42.5625 38.945312 43.277344 C 38.746094 43.664062 38.476562 44.007812 38.148438 44.296875 C 36.585938 45.671875 35.105469 47.191406 33.378906 48.332031 C 31.785156 49.378906 29.886719 49.285156 28.214844 48.304688 C 26.21875 47.128906 24.570312 45.503906 23.09375 43.730469 C 22.660156 43.210938 22.503906 42.460938 22.183594 41.730469 C 19.929688 41.074219 17.902344 37.503906 19.582031 34.425781 C 20.238281 35.15625 20.875 35.871094 21.6875 36.773438 C 21.625 35.921875 21.574219 35.289062 21.511719 34.457031 C 21.78125 34.695312 22.035156 34.921875 22.285156 35.140625 L 21.738281 36.019531 L 29.730469 39.789062 L 29.574219 38.710938 L 26.867188 37.195312 C 29.144531 33.71875 31.65625 30.460938 35.339844 28.042969 C 35.988281 31.1875 35.332031 34.097656 34.917969 37.046875 L 31.945312 38.710938 L 31.789062 39.789062 L 39.78125 36.019531 L 39.605469 35.738281 C 40.101562 35.421875 40.53125 35.148438 41.085938 34.796875 C 40.75 35.585938 40.488281 36.199219 40.226562 36.808594 C 40.261719 36.84375 40.292969 36.878906 40.328125 36.914062 C 41.042969 36.429688 41.757812 35.949219 42.636719 35.355469 C 42.652344 36.746094 43.003906 38.003906 42.25 39.140625 Z M 42.25 39.140625 "/>
</g>
</svg>
