<svg width="50" height="50" viewBox="0 0 50 50" fill="none" xmlns="http://www.w3.org/2000/svg">
<path d="M24.8945 41.7539C25.2305 42.1523 25.5156 42.5078 25.8242 42.8398C26.293 43.3437 26.2969 43.8516 25.8594 44.3945C25.75 44.3203 25.6289 44.2422 25.4727 44.1367C25.1875 44.6172 25.3164 45.0781 25.418 45.5312C25.6328 46.457 25.2656 47.2656 24.9258 48.0781C24.8984 48.1367 24.8398 48.1875 24.7891 48.2266C24.75 48.2578 24.6953 48.2656 24.5117 48.3359C24.0039 46.1328 23.5039 43.9531 23 41.7656C15.3867 41.1016 9.83594 37.3672 6.38672 30.543C8.10937 33.2852 10.3555 35.5156 13.1992 37.1016C16.0586 38.6992 19.1328 39.457 22.5078 39.3633C21.7617 36.3672 21.0391 33.4258 19.9375 30.5352C18.7656 30.9102 17.6602 31.3086 16.5312 31.6133C15.5156 31.8867 14.4805 32.1484 13.4375 32.2539C12.418 32.3633 11.9961 31.8984 11.8867 30.8594C11.7695 29.7188 12.0781 28.6523 12.4844 27.6172C12.7812 26.8594 13.1367 26.1172 13.5156 25.3945C13.8945 24.668 14.332 23.9766 14.8086 23.1602C14.5742 22.9141 14.2891 22.6523 14.0547 22.3477C13.9883 22.2578 14.0156 22.0195 14.0898 21.9102C14.2578 21.6563 14.4844 21.4414 14.6875 21.2109C15.3945 20.4141 15.8281 19.4805 16.0664 18.4492C16.0977 18.3242 16.1094 18.168 16.0586 18.0586C15.3008 16.3984 15.3594 14.6445 15.4453 12.8867C15.4687 12.3867 15.5625 11.9219 15.2539 11.4219C14.8945 10.8398 15.3242 10.082 16.0859 9.75391C17.0742 9.33203 18.0625 8.91797 19.0547 8.50781C19.6719 8.25781 20.1719 7.875 20.5586 7.32422C20.7695 7.02344 20.7578 6.77734 20.5664 6.48438C19.9414 5.52734 19.9453 5.52734 20.6055 4.59766C20.6992 4.46484 20.7812 4.31641 20.8711 4.16406C21.4141 4.26172 21.543 4.21094 21.8711 3.65234C19.7617 3.51953 17.832 4.01953 15.9102 4.58203C17.207 3.9375 18.5781 3.52734 19.9805 3.19141C20.4609 3.07813 21.0508 3.22266 21.3945 2.6875C21.4219 2.64453 21.5781 2.69531 21.6758 2.69141C21.9727 2.68359 22.1094 2.55078 21.9531 2.19922C22.7812 2.23437 23.5898 1.52734 24.3906 2.46094C24.3711 2.15625 24.3594 1.99609 24.3477 1.83594C24.3828 1.82812 24.4141 1.82031 24.4492 1.8125C24.5273 2.12109 24.6016 2.42969 24.6914 2.78906C30.2266 3.07813 34.9258 5.25391 38.6289 9.42188C41.5586 12.7227 43.1641 16.6328 43.418 21.0273C43.7344 26.4375 42.1055 31.2383 38.4727 35.2812C34.8633 39.3047 30.2852 41.3828 24.8945 41.7539ZM31.8359 31.2031C32.625 32.4648 32.5391 32.8398 31.4531 32.9102C31.3945 33.0742 31.332 33.2344 31.2734 33.3984C31.2344 33.3867 31.1953 33.3789 31.1523 33.3672C31.1914 33.1289 31.2266 32.8945 31.2617 32.6719C31.4844 32.6992 31.6602 32.7227 31.9453 32.7617C31.7188 32.1211 31.5273 31.5742 31.3008 30.9258C31.5313 30.9883 31.5938 31.0156 31.6562 31.0195C31.7305 31.0195 31.8008 30.9961 31.9492 30.9648C31.3828 30.1602 30.793 29.4766 29.8906 29.2109C29.4141 29.0742 28.9844 28.9531 28.625 28.5781C28.5039 28.4531 28.1445 28.4883 27.9141 28.5391C26.668 28.8086 25.4219 29.1055 24.1797 29.3945C23.6406 29.5195 23.1016 29.6523 22.582 29.7773C22.8633 30.3906 23.168 30.9297 23.3594 31.5039C24.0664 33.6016 24.1367 35.7852 24.1367 37.9727C24.1367 38.3789 24.1719 38.7812 24.1875 39.1875C32.3672 38.3164 40.0859 30.9609 39.7969 20.9141C39.5352 11.9531 32.7227 5.49219 26.2422 4.26953C26.3086 4.41797 26.4023 4.55859 26.5312 4.61328C27.0703 4.83984 27.3867 5.31641 27.3477 5.90234C27.3164 6.4375 26.9805 6.86719 26.418 6.97266C26.1055 7.03125 25.9883 7.17188 25.9531 7.46484C25.7422 9.24219 25.5117 11.0156 25.3203 12.793C25.293 13.0312 25.3828 13.3398 25.5312 13.5234C26.4375 14.6328 27.3984 15.6992 28.3008 16.8086C29.25 17.9727 30.0977 19.2188 31.0977 20.332C31.8906 21.2148 32.8516 21.9492 33.7305 22.7539C33.8594 22.8711 33.9492 23.0273 34.0586 23.168C34.0234 23.1953 33.9922 23.2227 33.9609 23.25C33.7266 23.1211 33.4883 22.9883 33.2461 22.8516C33.3633 23.2031 33.4648 23.5039 33.5664 23.8008C33.7578 24.1445 34.1133 24.4297 34.3516 24.793C34.9766 25.7305 35.4453 26.7773 36.3281 27.5312C36.3516 27.5508 36.3828 27.5937 36.375 27.6172C36.3398 27.7656 36.3281 27.9414 36.2422 28.0547C36.1758 28.1367 36.0117 28.1484 35.8828 28.1914C35.9688 28.457 36.0352 28.6836 36.1172 28.9062C36.2539 29.2969 36.2227 29.5703 35.7188 29.6055C35.6211 29.6133 35.5313 29.75 35.4453 29.832C35.3398 29.9336 35.2422 30.043 35.1367 30.1445C35.5664 29.4023 35.668 28.6875 35.1914 27.8828C35.5391 27.8828 35.7852 27.8828 36.0977 27.8828C35.832 27.7227 35.6211 27.6172 35.4414 27.4766C34.75 26.9531 34.0117 26.5508 33.1289 26.4688C32.9805 26.4531 32.8125 26.3437 32.707 26.2305C31.8672 25.3164 30.8516 24.6797 29.6875 24.2773C28.8828 23.9961 28.0781 23.7227 27.2695 23.4531C27.1719 23.418 27.0664 23.4062 26.8828 23.3672C27.0039 23.5977 27.0664 23.7617 27.1641 23.8906C27.9023 24.8711 28.625 25.8633 29.4023 26.8086C29.6602 27.1172 30.0781 27.2891 30.4141 27.5273C30.5781 27.6406 30.8828 27.8477 30.8672 27.8789C30.6484 28.3008 31.0781 28.3633 31.2266 28.5742C31.3945 28.8203 31.5938 29.0547 31.7344 29.3164C31.875 29.5781 31.9414 29.8828 32.082 30.1445C32.3438 30.6406 32.3125 30.8438 31.8359 31.2031ZM21.5117 22.8047C21.7109 24.6289 21.8984 26.3867 22.0977 28.2266C22.5703 28.1875 23.2109 28.3242 23.543 28.0664C24.2031 27.5508 25.0508 27.2109 25.4648 26.4062C25.5039 26.332 25.5664 26.2617 25.6367 26.2148C25.8828 26.043 25.8398 25.8633 25.7461 25.6016C25.3398 24.4688 24.9727 23.3203 24.5938 22.1758C24.5156 21.9336 24.5117 21.6484 24.375 21.4492C23.9297 20.7969 23.4414 20.1758 22.9688 19.543C22.3828 19.9258 21.9883 20.375 22.3945 21.1211C22.4336 21.1953 22.4297 21.2891 22.457 21.3711C22.5313 21.6172 22.4883 21.8047 22.207 21.875C21.75 21.9922 21.6094 22.2734 21.8047 22.7266C21.6758 22.7617 21.5664 22.793 21.5117 22.8047ZM31.1602 22.9062C31.1992 22.8594 31.2383 22.8125 31.2812 22.7656C31.1289 22.1094 30.8984 21.4961 30.3672 21.0156C29.2305 19.9883 28.0781 18.9766 26.9961 17.8945C26.332 17.2383 25.7812 16.4648 25.1562 15.7148C25.1523 17.1797 25.2617 18.6289 25.6328 20.0469C25.6914 20.2773 25.8789 20.5586 26.082 20.6523C27.7656 21.4219 29.4648 22.1602 31.1602 22.9062ZM22.7188 18.8984C22.625 18.1211 22.457 17.3984 22.4727 16.6797C22.4922 15.6641 22.6133 14.6445 22.7617 13.6406C22.8359 13.1562 22.5547 12.8398 22.2695 12.7422C21.918 12.625 21.4727 12.3047 21.0664 12.7461C20.6289 13.2227 20.1445 13.6523 19.7031 14.1289C19.3008 14.5625 19.3242 15.0938 19.3672 15.6719C20.2539 15.1289 20.5273 15.2422 20.8242 16.2031C20.8516 16.2969 20.8945 16.3984 20.957 16.4727C21.2539 16.8359 21.3438 17.2148 21.0391 17.5977C21.6133 18.0391 22.1484 18.457 22.7188 18.8984ZM18.8945 28.2227C18.6094 27.2578 18.3281 26.3047 18.0352 25.3047C17.0547 26.5234 16.0938 27.7148 15.0625 28.9961C16.4414 28.7187 17.6523 28.4766 18.8945 28.2227ZM21.8828 8.70703C22.5195 9.19141 23.1133 9.64844 23.7344 10.1172C23.9492 9.54688 24.1758 8.94922 24.4336 8.26562C23.5234 8.60938 22.7344 8.64062 21.9844 8.10938C21.9375 8.37109 21.9023 8.58203 21.8828 8.70703ZM31.7031 22.2891C31.7656 23.0938 32.1797 23.4531 33.2188 23.6445C32.7109 22.668 32.3203 22.3125 31.7031 22.2891ZM23.832 14.293C23.7734 14.3086 23.7109 14.3281 23.6523 14.3438C23.7227 15.3633 23.7891 16.3828 23.8594 17.4062C23.9141 17.4023 23.9727 17.3984 24.0273 17.3984C24.0273 16.4844 24.0352 15.5664 24.0195 14.6523C24.0156 14.5312 23.8984 14.4141 23.832 14.293Z" fill="#00C5A1"/>
</svg>
