<?xml version="1.0" encoding="UTF-8"?>
<svg xmlns="http://www.w3.org/2000/svg" xmlns:xlink="http://www.w3.org/1999/xlink" width="50pt" height="50pt" viewBox="0 0 50 50" version="1.1">
<g id="surface1">
<path style=" stroke:none;fill-rule:nonzero;fill:rgb(0%,0%,0%);fill-opacity:1;" d="M 24.894531 41.753906 C 25.230469 42.152344 25.515625 42.507812 25.824219 42.839844 C 26.292969 43.34375 26.296875 43.851562 25.859375 44.394531 C 25.75 44.320312 25.628906 44.242188 25.472656 44.136719 C 25.1875 44.617188 25.316406 45.078125 25.417969 45.53125 C 25.632812 46.457031 25.265625 47.265625 24.925781 48.078125 C 24.898438 48.136719 24.839844 48.1875 24.789062 48.226562 C 24.75 48.257812 24.695312 48.265625 24.511719 48.335938 C 24.003906 46.132812 23.503906 43.953125 23 41.765625 C 15.386719 41.101562 9.835938 37.367188 6.386719 30.542969 C 8.109375 33.285156 10.355469 35.515625 13.199219 37.101562 C 16.058594 38.699219 19.132812 39.457031 22.507812 39.363281 C 21.761719 36.367188 21.039062 33.425781 19.9375 30.535156 C 18.765625 30.910156 17.660156 31.308594 16.53125 31.613281 C 15.515625 31.886719 14.480469 32.148438 13.4375 32.253906 C 12.417969 32.363281 11.996094 31.898438 11.886719 30.859375 C 11.769531 29.71875 12.078125 28.652344 12.484375 27.617188 C 12.78125 26.859375 13.136719 26.117188 13.515625 25.394531 C 13.894531 24.667969 14.332031 23.976562 14.808594 23.160156 C 14.574219 22.914062 14.289062 22.652344 14.054688 22.347656 C 13.988281 22.257812 14.015625 22.019531 14.089844 21.910156 C 14.257812 21.65625 14.484375 21.441406 14.6875 21.210938 C 15.394531 20.414062 15.828125 19.480469 16.066406 18.449219 C 16.097656 18.324219 16.109375 18.167969 16.058594 18.058594 C 15.300781 16.398438 15.359375 14.644531 15.445312 12.886719 C 15.46875 12.386719 15.5625 11.921875 15.253906 11.421875 C 14.894531 10.839844 15.324219 10.082031 16.085938 9.753906 C 17.074219 9.332031 18.0625 8.917969 19.054688 8.507812 C 19.671875 8.257812 20.171875 7.875 20.558594 7.324219 C 20.769531 7.023438 20.757812 6.777344 20.566406 6.484375 C 19.941406 5.527344 19.945312 5.527344 20.605469 4.597656 C 20.699219 4.464844 20.78125 4.316406 20.871094 4.164062 C 21.414062 4.261719 21.542969 4.210938 21.871094 3.652344 C 19.761719 3.519531 17.832031 4.019531 15.910156 4.582031 C 17.207031 3.9375 18.578125 3.527344 19.980469 3.191406 C 20.460938 3.078125 21.050781 3.222656 21.394531 2.6875 C 21.421875 2.644531 21.578125 2.695312 21.675781 2.691406 C 21.972656 2.683594 22.109375 2.550781 21.953125 2.199219 C 22.78125 2.234375 23.589844 1.527344 24.390625 2.460938 C 24.371094 2.15625 24.359375 1.996094 24.347656 1.835938 C 24.382812 1.828125 24.414062 1.820312 24.449219 1.8125 C 24.527344 2.121094 24.601562 2.429688 24.691406 2.789062 C 30.226562 3.078125 34.925781 5.253906 38.628906 9.421875 C 41.558594 12.722656 43.164062 16.632812 43.417969 21.027344 C 43.734375 26.4375 42.105469 31.238281 38.472656 35.28125 C 34.863281 39.304688 30.285156 41.382812 24.894531 41.753906 Z M 31.835938 31.203125 C 32.625 32.464844 32.539062 32.839844 31.453125 32.910156 C 31.394531 33.074219 31.332031 33.234375 31.273438 33.398438 C 31.234375 33.386719 31.195312 33.378906 31.152344 33.367188 C 31.191406 33.128906 31.226562 32.894531 31.261719 32.671875 C 31.484375 32.699219 31.660156 32.722656 31.945312 32.761719 C 31.71875 32.121094 31.527344 31.574219 31.300781 30.925781 C 31.53125 30.988281 31.59375 31.015625 31.65625 31.019531 C 31.730469 31.019531 31.800781 30.996094 31.949219 30.964844 C 31.382812 30.160156 30.792969 29.476562 29.890625 29.210938 C 29.414062 29.074219 28.984375 28.953125 28.625 28.578125 C 28.503906 28.453125 28.144531 28.488281 27.914062 28.539062 C 26.667969 28.808594 25.421875 29.105469 24.179688 29.394531 C 23.640625 29.519531 23.101562 29.652344 22.582031 29.777344 C 22.863281 30.390625 23.167969 30.929688 23.359375 31.503906 C 24.066406 33.601562 24.136719 35.785156 24.136719 37.972656 C 24.136719 38.378906 24.171875 38.78125 24.1875 39.1875 C 32.367188 38.316406 40.085938 30.960938 39.796875 20.914062 C 39.535156 11.953125 32.722656 5.492188 26.242188 4.269531 C 26.308594 4.417969 26.402344 4.558594 26.53125 4.613281 C 27.070312 4.839844 27.386719 5.316406 27.347656 5.902344 C 27.316406 6.4375 26.980469 6.867188 26.417969 6.972656 C 26.105469 7.03125 25.988281 7.171875 25.953125 7.464844 C 25.742188 9.242188 25.511719 11.015625 25.320312 12.792969 C 25.292969 13.03125 25.382812 13.339844 25.53125 13.523438 C 26.4375 14.632812 27.398438 15.699219 28.300781 16.808594 C 29.25 17.972656 30.097656 19.21875 31.097656 20.332031 C 31.890625 21.214844 32.851562 21.949219 33.730469 22.753906 C 33.859375 22.871094 33.949219 23.027344 34.058594 23.167969 C 34.023438 23.195312 33.992188 23.222656 33.960938 23.25 C 33.726562 23.121094 33.488281 22.988281 33.246094 22.851562 C 33.363281 23.203125 33.464844 23.503906 33.566406 23.800781 C 33.757812 24.144531 34.113281 24.429688 34.351562 24.792969 C 34.976562 25.730469 35.445312 26.777344 36.328125 27.53125 C 36.351562 27.550781 36.382812 27.59375 36.375 27.617188 C 36.339844 27.765625 36.328125 27.941406 36.242188 28.054688 C 36.175781 28.136719 36.011719 28.148438 35.882812 28.191406 C 35.96875 28.457031 36.035156 28.683594 36.117188 28.90625 C 36.253906 29.296875 36.222656 29.570312 35.71875 29.605469 C 35.621094 29.613281 35.53125 29.75 35.445312 29.832031 C 35.339844 29.933594 35.242188 30.042969 35.136719 30.144531 C 35.566406 29.402344 35.667969 28.6875 35.191406 27.882812 C 35.539062 27.882812 35.785156 27.882812 36.097656 27.882812 C 35.832031 27.722656 35.621094 27.617188 35.441406 27.476562 C 34.75 26.953125 34.011719 26.550781 33.128906 26.46875 C 32.980469 26.453125 32.8125 26.34375 32.707031 26.230469 C 31.867188 25.316406 30.851562 24.679688 29.6875 24.277344 C 28.882812 23.996094 28.078125 23.722656 27.269531 23.453125 C 27.171875 23.417969 27.066406 23.40625 26.882812 23.367188 C 27.003906 23.597656 27.066406 23.761719 27.164062 23.890625 C 27.902344 24.871094 28.625 25.863281 29.402344 26.808594 C 29.660156 27.117188 30.078125 27.289062 30.414062 27.527344 C 30.578125 27.640625 30.882812 27.847656 30.867188 27.878906 C 30.648438 28.300781 31.078125 28.363281 31.226562 28.574219 C 31.394531 28.820312 31.59375 29.054688 31.734375 29.316406 C 31.875 29.578125 31.941406 29.882812 32.082031 30.144531 C 32.34375 30.640625 32.3125 30.84375 31.835938 31.203125 Z M 21.511719 22.804688 C 21.710938 24.628906 21.898438 26.386719 22.097656 28.226562 C 22.570312 28.1875 23.210938 28.324219 23.542969 28.066406 C 24.203125 27.550781 25.050781 27.210938 25.464844 26.40625 C 25.503906 26.332031 25.566406 26.261719 25.636719 26.214844 C 25.882812 26.042969 25.839844 25.863281 25.746094 25.601562 C 25.339844 24.46875 24.972656 23.320312 24.59375 22.175781 C 24.515625 21.933594 24.511719 21.648438 24.375 21.449219 C 23.929688 20.796875 23.441406 20.175781 22.96875 19.542969 C 22.382812 19.925781 21.988281 20.375 22.394531 21.121094 C 22.433594 21.195312 22.429688 21.289062 22.457031 21.371094 C 22.53125 21.617188 22.488281 21.804688 22.207031 21.875 C 21.75 21.992188 21.609375 22.273438 21.804688 22.726562 C 21.675781 22.761719 21.566406 22.792969 21.511719 22.804688 Z M 31.160156 22.90625 C 31.199219 22.859375 31.238281 22.8125 31.28125 22.765625 C 31.128906 22.109375 30.898438 21.496094 30.367188 21.015625 C 29.230469 19.988281 28.078125 18.976562 26.996094 17.894531 C 26.332031 17.238281 25.78125 16.464844 25.15625 15.714844 C 25.152344 17.179688 25.261719 18.628906 25.632812 20.046875 C 25.691406 20.277344 25.878906 20.558594 26.082031 20.652344 C 27.765625 21.421875 29.464844 22.160156 31.160156 22.90625 Z M 22.71875 18.898438 C 22.625 18.121094 22.457031 17.398438 22.472656 16.679688 C 22.492188 15.664062 22.613281 14.644531 22.761719 13.640625 C 22.835938 13.15625 22.554688 12.839844 22.269531 12.742188 C 21.917969 12.625 21.472656 12.304688 21.066406 12.746094 C 20.628906 13.222656 20.144531 13.652344 19.703125 14.128906 C 19.300781 14.5625 19.324219 15.09375 19.367188 15.671875 C 20.253906 15.128906 20.527344 15.242188 20.824219 16.203125 C 20.851562 16.296875 20.894531 16.398438 20.957031 16.472656 C 21.253906 16.835938 21.34375 17.214844 21.039062 17.597656 C 21.613281 18.039062 22.148438 18.457031 22.71875 18.898438 Z M 18.894531 28.222656 C 18.609375 27.257812 18.328125 26.304688 18.035156 25.304688 C 17.054688 26.523438 16.09375 27.714844 15.0625 28.996094 C 16.441406 28.71875 17.652344 28.476562 18.894531 28.222656 Z M 21.882812 8.707031 C 22.519531 9.191406 23.113281 9.648438 23.734375 10.117188 C 23.949219 9.546875 24.175781 8.949219 24.433594 8.265625 C 23.523438 8.609375 22.734375 8.640625 21.984375 8.109375 C 21.9375 8.371094 21.902344 8.582031 21.882812 8.707031 Z M 31.703125 22.289062 C 31.765625 23.09375 32.179688 23.453125 33.21875 23.644531 C 32.710938 22.667969 32.320312 22.3125 31.703125 22.289062 Z M 23.832031 14.292969 C 23.773438 14.308594 23.710938 14.328125 23.652344 14.34375 C 23.722656 15.363281 23.789062 16.382812 23.859375 17.40625 C 23.914062 17.402344 23.972656 17.398438 24.027344 17.398438 C 24.027344 16.484375 24.035156 15.566406 24.019531 14.652344 C 24.015625 14.53125 23.898438 14.414062 23.832031 14.292969 Z M 23.832031 14.292969 "/>
</g>
</svg>
