<svg width="512" height="512" viewBox="0 0 512 512" fill="none" xmlns="http://www.w3.org/2000/svg">
<g clip-path="url(#clip0)">
<path d="M404.669 176.632C395.707 176.632 387.457 179.727 380.916 184.893C378.357 166.186 362.281 151.722 342.883 151.722C332.595 151.722 323.24 155.788 316.339 162.399C310.428 148.788 296.856 139.246 281.096 139.246C272.3 139.246 264.191 142.226 257.709 147.221V73.3031C257.709 52.1302 240.484 34.9042 219.31 34.9042C198.136 34.9042 180.911 52.1302 180.911 73.3031V197.479C180.911 201.625 184.272 204.985 188.417 204.985C192.562 204.985 195.922 201.625 195.922 197.479V73.3031C195.922 60.4074 206.414 49.9155 219.31 49.9155C232.206 49.9155 242.697 60.4074 242.697 73.3031V241.64C242.697 245.785 246.058 249.145 250.203 249.145C254.348 249.145 257.709 245.785 257.709 241.64V177.644C257.709 164.748 268.201 154.256 281.096 154.256C293.992 154.256 304.484 164.747 304.484 177.644V241.64C304.484 245.785 307.844 249.145 311.99 249.145C316.135 249.145 319.495 245.785 319.495 241.64V190.121C319.495 177.225 329.986 166.733 342.883 166.733C355.78 166.733 366.27 177.225 366.27 190.121V241.64C366.27 245.785 369.631 249.145 373.776 249.145C377.921 249.145 381.282 245.785 381.282 241.64V215.03C381.282 202.134 391.774 191.642 404.669 191.642C417.565 191.642 428.057 202.133 428.057 215.03V325.615L428.021 357.506C427.659 383.719 422.632 409.357 413.079 433.709L410.686 439.809C409.088 443.884 408.277 448.169 408.277 452.547V504.494C408.277 508.639 411.638 512 415.783 512C419.928 512 423.288 508.639 423.288 504.494V452.547C423.288 450.053 423.75 447.613 424.66 445.292L427.053 439.191C437.268 413.152 442.644 385.738 443.031 357.618L443.067 325.623V215.03C443.068 193.857 425.842 176.632 404.669 176.632V176.632Z" fill="#23D997"/>
<path d="M220.982 435.353C199.82 430.708 181.429 418.301 169.199 400.418L88.3875 282.262C81.0249 271.496 83.0384 257.093 93.072 248.76C103.373 240.204 118.544 241.223 127.608 251.082L175.12 302.75C178.486 306.411 183.658 307.61 188.293 305.803C192.927 303.996 195.922 299.613 195.922 294.639V229.466C195.922 225.32 192.562 221.96 188.417 221.96C184.272 221.96 180.911 225.32 180.911 229.466V286.871L138.658 240.92C124.176 225.172 99.9402 223.541 83.4798 237.212C67.4497 250.525 64.2323 273.536 75.9962 290.736L156.807 408.89C170.715 429.227 191.389 443.547 215.236 449.425V504.492C215.236 508.637 218.596 511.998 222.742 511.998C226.887 511.998 230.247 508.637 230.247 504.492V446.873C230.248 441.377 226.351 436.532 220.982 435.353V435.353Z" fill="#23D997"/>
<path d="M288.29 83.5468C288.29 94.5781 285.731 105.127 280.684 114.9C278.783 118.584 280.226 123.112 283.909 125.013C285.011 125.581 286.187 125.851 287.347 125.851C290.065 125.851 292.689 124.37 294.022 121.788C300.179 109.864 303.301 96.9979 303.301 83.5468C303.301 65.2541 297.491 47.878 286.498 33.298C284.004 29.9885 279.297 29.328 275.986 31.8229C272.677 34.3188 272.017 39.0243 274.511 42.3348C283.526 54.2908 288.29 68.5415 288.29 83.5468Z" fill="#23D997"/>
<path d="M152.162 125.852C153.322 125.852 154.498 125.581 155.6 125.013C159.283 123.112 160.727 118.583 158.824 114.9C153.778 105.128 151.219 94.5791 151.219 83.5468C151.219 45.7564 181.964 15.0113 219.754 15.0113C231.249 15.0113 242.623 17.9165 252.648 23.4126C256.282 25.4061 260.845 24.0741 262.838 20.4394C264.831 16.8046 263.5 12.2432 259.864 10.2497C247.634 3.54465 233.765 -1.52588e-05 219.754 -1.52588e-05C173.686 -1.52588e-05 136.207 37.4792 136.207 83.5468C136.207 96.9989 139.33 109.865 145.487 121.788C146.82 124.371 149.444 125.852 152.162 125.852Z" fill="#23D997"/>
<path d="M110.128 143.067C111.208 143.067 112.304 142.832 113.344 142.338C117.088 140.559 118.68 136.081 116.901 132.337C109.625 117.031 105.938 100.616 105.938 83.5468C105.938 66.478 109.626 50.0626 116.901 34.7571C118.68 31.0133 117.088 26.5359 113.344 24.7556C109.598 22.9753 105.123 24.5685 103.343 28.3123C95.1035 45.6473 90.9264 64.2303 90.9264 83.5458C90.9264 102.861 95.1035 121.445 103.343 138.779C104.629 141.484 107.321 143.067 110.128 143.067V143.067Z" fill="#23D997"/>
<path d="M326.165 142.338C327.205 142.832 328.302 143.067 329.382 143.067C332.189 143.067 334.881 141.484 336.166 138.78C344.405 121.444 348.582 102.861 348.582 83.5468C348.582 64.2323 344.405 45.6493 336.166 28.3133C334.386 24.5685 329.909 22.9763 326.165 24.7556C322.421 26.5349 320.828 31.0123 322.608 34.7561C329.882 50.0626 333.571 66.478 333.571 83.5458C333.571 100.614 329.882 117.029 322.608 132.335C320.828 136.081 322.421 140.559 326.165 142.338Z" fill="#23D997"/>
</g>
<defs>
<clipPath id="clip0">
<rect width="512" height="512" fill="white"/>
</clipPath>
</defs>
</svg>
