<svg width="512" height="512" viewBox="0 0 512 512" fill="none" xmlns="http://www.w3.org/2000/svg">
<path d="M256 496C319.652 496 380.696 470.714 425.705 425.705C470.714 380.696 495.999 319.652 496 256C496 253.878 495.157 251.844 493.657 250.343C492.156 248.843 490.122 248 488 248H264V224H496V208H480V64C480 61.8783 479.157 59.8435 477.657 58.3433C476.156 56.843 474.122 56.0001 472 56H416C413.878 56.0001 411.844 56.843 410.343 58.3433C408.843 59.8435 408 61.8783 408 64V96H360C357.878 96.0001 355.844 96.843 354.343 98.3433C352.843 99.8435 352 101.878 352 104V144H304C301.878 144 299.844 144.843 298.343 146.343C296.843 147.844 296 149.878 296 152V208H264V128H304C306.122 128 308.157 127.157 309.657 125.657L403.313 32H464V16H400C397.878 16.0001 395.843 16.8427 394.343 18.3428L300.687 112H264V24C264 21.8783 263.157 19.8435 261.657 18.3433C260.156 16.843 258.122 16.0001 256 16C208.532 15.9998 162.131 30.0755 122.663 56.447C83.1952 82.8185 52.4338 120.301 34.2688 164.156C16.1038 208.01 11.3511 256.266 20.6116 302.821C29.8722 349.377 52.7302 392.141 86.2949 425.705C108.529 448.061 134.976 465.785 164.106 477.851C193.236 489.918 224.47 496.086 256 496V496ZM424 72H464V208H424V72ZM368 112H408V208H368V112ZM312 160H352V208H312V160ZM184.501 468.392L226.336 432.533C227.281 431.726 228.399 431.148 229.604 430.845L250.004 425.745C253.687 424.819 257.099 423.034 259.96 420.537C262.822 418.039 265.051 414.9 266.466 411.375L275.404 389.028C275.994 387.541 277.018 386.265 278.343 385.368C279.668 384.471 281.233 383.995 282.833 384H297.373C298.424 383.997 299.465 384.203 300.436 384.605C301.407 385.007 302.288 385.598 303.029 386.344L334.374 417.688C338.232 421.536 343.28 423.963 348.694 424.571L397.148 429.955C367.791 453.719 332.917 469.699 295.749 476.417C258.582 483.136 220.32 480.375 184.501 468.392H184.501ZM478.736 280H448C441.637 280.007 435.537 282.538 431.037 287.037C426.538 291.537 424.007 297.637 424 304V309.403C424.001 310.263 423.862 311.117 423.589 311.933L412.057 346.529C411.527 348.123 410.509 349.51 409.147 350.492C407.784 351.474 406.147 352.002 404.468 352H397.333C395.603 351.996 393.92 351.435 392.533 350.399L369.929 333.446C368.28 332.214 367.172 330.392 366.838 328.361L360.897 292.724C359.929 286.89 356.837 281.62 352.218 277.929L334.807 264H479.86C479.673 269.369 479.299 274.702 478.736 280ZM132.997 259.883L140.423 274.732C142.404 278.729 145.465 282.09 149.259 284.435C153.053 286.78 157.428 288.015 161.889 288H192C194.121 288.002 196.154 288.846 197.654 290.346C199.154 291.846 199.998 293.879 200 296V324.223C199.999 325.465 199.709 326.689 199.155 327.801L186.534 353.043C184.872 356.378 184.005 360.052 184 363.777V392C183.998 394.121 183.154 396.154 181.654 397.654C180.154 399.154 178.121 399.998 176 400H168.783C167.437 400.003 166.111 399.665 164.931 399.017C163.75 398.369 162.753 397.433 162.033 396.295L114.44 321.506C113.859 320.589 113.47 319.563 113.296 318.492C113.122 317.42 113.167 316.324 113.429 315.271L118.044 296.808C118.852 293.563 118.975 290.186 118.405 286.891C117.834 283.596 116.583 280.457 114.73 277.673L89.3438 239.593C88.4662 238.279 87.9985 236.735 88 235.155V208C87.9927 201.637 85.4618 195.537 80.9625 191.037C76.4632 186.538 70.363 184.007 64 184H43.7803C51.5901 160.934 63.1456 139.311 77.9827 120H119.438C120.755 119.999 122.052 120.323 123.213 120.945C124.375 121.566 125.364 122.466 126.094 123.562L128.469 127.125C132.004 132.416 137.493 136.088 143.733 137.336C149.972 138.584 156.452 137.305 161.75 133.781L164.712 131.807C165.886 131.026 167.245 130.569 168.653 130.481C170.06 130.394 171.466 130.679 172.728 131.308L193.043 141.466C196.377 143.128 200.052 143.995 203.777 144H227.155C228.735 143.999 230.28 144.466 231.594 145.344L244.438 153.906C245.534 154.636 246.434 155.625 247.055 156.787C247.677 157.948 248.001 159.245 248 160.562V165.449C248.001 167.015 247.542 168.547 246.68 169.854C245.818 171.162 244.591 172.187 243.151 172.803L202.44 190.25C200.64 191.024 198.617 191.108 196.758 190.486L180.994 185.232C178.547 184.416 175.983 183.999 173.403 184H168C161.637 184.007 155.537 186.538 151.037 191.037C146.538 195.537 144.007 201.637 144 208V219.155C144.001 220.735 143.534 222.28 142.656 223.594L134.494 235.837C132.152 239.359 130.781 243.437 130.518 247.659C130.255 251.881 131.11 256.097 132.997 259.883V259.883ZM248 80H219.532C217.853 80.0016 216.216 79.4738 214.853 78.4917C213.491 77.5096 212.473 76.1231 211.943 74.5293L210.12 69.0596C208.933 65.5291 206.945 62.3214 204.312 59.6879C201.678 57.0543 198.47 55.0664 194.939 53.8799L174.735 47.145C198.14 38.0614 222.909 32.9885 248 32.1396V80ZM153.239 56.8457L189.88 69.0596C191.057 69.4548 192.127 70.1175 193.005 70.9955C193.883 71.8735 194.545 72.943 194.94 74.1201L196.764 79.5898C198.353 84.371 201.408 88.5298 205.495 91.4757C209.582 94.4215 214.494 96.0046 219.532 96H248V137.052L240.47 132.031C236.529 129.399 231.895 127.996 227.155 128H203.777C202.535 127.999 201.311 127.709 200.199 127.155L179.882 116.997C176.096 115.11 171.88 114.255 167.658 114.518C163.437 114.781 159.359 116.152 155.837 118.494L152.875 120.469C151.109 121.643 148.949 122.07 146.869 121.654C144.789 121.238 142.96 120.014 141.781 118.25L139.406 114.688C137.218 111.397 134.249 108.699 130.765 106.834C127.281 104.97 123.389 103.996 119.438 104H91.4812C93.4815 101.839 95.5146 99.7021 97.6084 97.6084C113.943 81.238 132.707 67.4884 153.239 56.8457V56.8457ZM39.03 200H64C66.121 200.002 68.1544 200.846 69.6542 202.346C71.1539 203.846 71.9976 205.879 72 208V235.155C71.9955 239.894 73.3986 244.528 76.0313 248.469L101.417 286.547C102.034 287.475 102.452 288.521 102.642 289.62C102.832 290.718 102.792 291.844 102.522 292.926L97.9072 311.388C97.1225 314.549 96.9869 317.837 97.5085 321.053C98.0302 324.268 99.1984 327.344 100.942 330.096L148.535 404.886C150.695 408.299 153.686 411.109 157.227 413.052C160.768 414.996 164.744 416.01 168.783 416H176C182.363 415.993 188.463 413.462 192.963 408.963C197.462 404.463 199.993 398.363 200 392V363.777C200.002 362.535 200.291 361.311 200.845 360.199L213.466 334.957C215.128 331.622 215.995 327.948 216 324.223V296C215.993 289.637 213.462 283.537 208.963 279.037C204.463 274.538 198.363 272.007 192 272H161.889C160.402 272.005 158.943 271.593 157.679 270.812C156.414 270.03 155.394 268.909 154.733 267.577L147.308 252.728C146.679 251.466 146.394 250.06 146.482 248.653C146.569 247.246 147.026 245.886 147.807 244.712L155.969 232.47C158.601 228.529 160.004 223.895 160 219.155V208C160.002 205.879 160.846 203.846 162.346 202.346C163.846 200.846 165.879 200.002 168 200H173.403C174.263 200 175.118 200.138 175.934 200.411L191.698 205.666C197.275 207.528 203.341 207.275 208.743 204.957L248 188.133V256C248 258.122 248.843 260.156 250.343 261.657C251.844 263.157 253.878 264 256 264H309.194L342.223 290.423C343.762 291.653 344.793 293.41 345.115 295.354L351.056 330.992C352.06 337.084 355.383 342.551 360.329 346.247L382.934 363.2C387.093 366.306 392.142 367.989 397.333 368H404.468C409.506 368.005 414.418 366.422 418.505 363.476C422.592 360.53 425.647 356.371 427.236 351.59L438.768 316.994C439.584 314.547 440.001 311.983 440 309.403V304C440.002 301.879 440.846 299.846 442.346 298.346C443.846 296.846 445.879 296.002 448 296H476.456C468.399 340.895 446.732 382.227 414.392 414.392C413.973 414.811 413.543 415.216 413.122 415.631L350.462 408.669C348.657 408.466 346.974 407.657 345.688 406.374L314.344 375.029C312.12 372.794 309.476 371.021 306.562 369.815C303.649 368.608 300.526 367.991 297.373 368H282.833C278.033 367.984 273.339 369.415 269.364 372.107C265.389 374.798 262.317 378.624 260.549 383.087L251.61 405.434C251.139 406.608 250.395 407.655 249.442 408.487C248.488 409.32 247.351 409.915 246.123 410.224L225.723 415.323C222.11 416.232 218.757 417.964 215.926 420.384L167.502 461.891C118.412 440.684 78.5018 402.655 54.9508 354.646C31.3999 306.638 25.7544 251.8 39.03 200V200Z" fill="#23D997"/>
<path d="M496 16H480V32H496V16Z" fill="#23D997"/>
</svg>
