<svg width="878" height="657" viewBox="0 0 878 657" fill="none" xmlns="http://www.w3.org/2000/svg">
<g clip-path="url(#clip0)">
<rect width="877.056" height="657.001" fill="#1B1B1B"/>
<path d="M25.2845 25.2843V631.717H851.771V25.2843H25.2845Z" fill="#1B1B1B"/>
<path d="M635.07 63.6027V196.159H815.727V63.6027H635.07Z" fill="white"/>
<path d="M635.07 261.061V393.617H815.727V261.061H635.07Z" fill="white"/>
<path d="M635.07 458.519V591.075H815.727V458.519H635.07Z" fill="white"/>
<path d="M783.068 168.746L747.073 143.564H747.061L747.059 143.568C745.834 139.716 744.99 135.754 744.539 131.737C747.919 128.659 750.317 124.654 751.436 120.222C751.581 120.308 751.72 120.403 751.854 120.505C755.007 123.028 760.998 96.2252 750.908 91.18C750.908 91.18 743.34 74.783 728.835 78.5669C714.33 82.3508 706.131 88.0267 705.501 93.7026C704.87 99.3785 705.816 107.892 705.816 107.892C705.816 107.892 706.69 101.455 711.277 99.179C709.008 101.766 707.341 104.824 706.396 108.132C705.451 111.44 705.251 114.917 705.811 118.312C706.37 121.707 707.676 124.935 709.633 127.765C711.59 130.595 714.15 132.956 717.129 134.677C716.034 138.437 714.572 143.309 713.343 146.886H713.342L702.343 152.357L678.381 167.491C678.381 167.491 668.926 179.467 665.767 193.347C665.523 194.439 665.267 195.53 665 196.622H792.825C788.563 183.741 783.068 168.746 783.068 168.746Z" fill="#23D997"/>
<path d="M773.92 576.09C776.38 574.519 778.986 573.189 781.702 572.118L754.917 540.315L737.216 535.785C734.109 534.041 731.658 531.328 730.235 528.061L739.713 527.968L743.326 507.514C745.521 501.567 744.626 496.352 739.713 492.054C740.596 486.549 738.099 482.495 731.478 480.207C724.892 474.492 715.159 473.121 709.316 482.274C706.958 482.134 704.636 482.91 702.835 484.44C701.035 485.97 699.895 488.136 699.652 490.486C694.286 496.724 700.245 519.617 702.01 528.34L711.43 528.247C710.887 531.474 709.304 534.435 706.924 536.68L706.796 536.552L687.968 545.763L661.183 576.729C663.826 577.765 666.366 579.048 668.768 580.562L666.003 591.074H685.168L690.268 583.663H690.523C690.523 583.535 690.535 583.408 690.535 583.28L694.112 578.076C694.193 582.281 694.077 586.613 693.787 591.074H753.396C753.303 587.368 753.28 583.686 753.28 580.028L759.947 589.703C760.446 588.971 760.981 588.286 761.515 587.589L762.828 591.074H778.09L774.431 577.159C774.328 576.774 774.154 576.412 773.92 576.09V576.09Z" fill="#23D997"/>
<path d="M760.597 354.391L735.288 344.042C734.684 341.649 734.173 339.396 733.848 337.41C736.446 335.932 738.723 333.949 740.542 331.577C742.362 329.205 743.687 326.492 744.441 323.599L747.112 320.73C748.531 319.249 749.618 317.482 750.299 315.547C750.98 313.612 751.24 311.553 751.061 309.51C750.597 305.582 748.607 301.994 745.521 299.521C746.555 292.982 743.593 288.173 735.741 285.455C727.935 278.683 716.378 277.045 709.456 287.906C706.656 287.739 703.9 288.659 701.762 290.475C699.624 292.29 698.269 294.861 697.98 297.651C692.289 304.271 698.154 317.478 700.953 327.595C701.167 328.344 701.597 329.013 702.191 329.517C702.784 330.021 703.513 330.339 704.287 330.429C706.148 333.18 708.596 335.485 711.454 337.177C711.526 340.099 711.182 343.017 710.431 345.842L710.455 344.96L691.58 353.45L691.568 353.218L689.745 354.275L686.853 355.576C686.876 355.692 686.899 355.796 686.922 355.913L686.655 356.064C682.59 358.418 679.475 362.12 677.851 366.529L668.152 394.916H754.987C755.871 391.957 756.958 389.062 758.24 386.251L758.263 385.938L765.975 394.916H789.531L760.597 354.391Z" fill="#23D997"/>
<path d="M330.921 589.789C359.001 589.789 381.765 567.025 381.765 538.945C381.765 510.864 359.001 488.101 330.921 488.101C302.84 488.101 280.077 510.864 280.077 538.945C280.077 567.025 302.84 589.789 330.921 589.789Z" fill="#1B1B1B"/>
<path d="M330.921 577.925C352.449 577.925 369.901 560.473 369.901 538.945C369.901 517.416 352.449 499.964 330.921 499.964C309.392 499.964 291.94 517.416 291.94 538.945C291.94 560.473 309.392 577.925 330.921 577.925Z" fill="white"/>
<path d="M350.449 560.235C350.215 560.235 349.984 560.189 349.769 560.1C349.554 560.01 349.358 559.879 349.194 559.714L310.133 520.653C309.814 520.318 309.639 519.871 309.645 519.408C309.65 518.945 309.837 518.502 310.164 518.175C310.492 517.848 310.934 517.661 311.397 517.655C311.86 517.649 312.307 517.824 312.643 518.143L351.704 557.204C351.952 557.452 352.121 557.769 352.189 558.113C352.258 558.457 352.222 558.814 352.088 559.138C351.954 559.463 351.726 559.74 351.435 559.935C351.143 560.13 350.8 560.234 350.449 560.235H350.449Z" fill="#23D997"/>
<path d="M330.03 545.57L324.283 539.823C324.25 539.79 324.208 539.769 324.162 539.762C324.117 539.754 324.07 539.761 324.028 539.782C323.987 539.803 323.953 539.836 323.931 539.877C323.909 539.918 323.901 539.965 323.907 540.011C324.139 541.502 324.839 542.88 325.906 543.947C326.973 545.014 328.352 545.714 329.843 545.946C329.889 545.953 329.936 545.944 329.977 545.923C330.018 545.901 330.051 545.867 330.071 545.825C330.092 545.784 330.099 545.737 330.092 545.691C330.085 545.645 330.063 545.603 330.03 545.57L330.03 545.57Z" fill="#23D997"/>
<path d="M331.806 532.287L337.562 538.041C337.595 538.074 337.637 538.096 337.683 538.104C337.729 538.111 337.776 538.104 337.818 538.083C337.86 538.063 337.894 538.029 337.916 537.988C337.938 537.947 337.946 537.9 337.939 537.853C337.708 536.36 337.007 534.98 335.939 533.911C334.87 532.843 333.49 532.142 331.997 531.911C331.951 531.904 331.903 531.912 331.862 531.933C331.82 531.954 331.786 531.988 331.765 532.03C331.744 532.072 331.736 532.119 331.744 532.165C331.751 532.211 331.773 532.254 331.806 532.287V532.287Z" fill="#23D997"/>
<path d="M356.996 540.855C357.363 540.278 357.557 539.609 357.555 538.925C357.553 538.241 357.355 537.572 356.985 536.998C354.137 532.547 350.384 528.746 345.969 525.842C341.494 522.866 336.256 521.245 330.883 521.174C328.173 521.178 325.482 521.619 322.913 522.482C322.841 522.506 322.776 522.548 322.725 522.604C322.674 522.66 322.638 522.728 322.621 522.802C322.604 522.875 322.605 522.952 322.626 523.025C322.647 523.098 322.686 523.164 322.74 523.218L327.982 528.46C328.036 528.515 328.104 528.554 328.178 528.574C328.253 528.595 328.331 528.596 328.406 528.576C330.183 528.143 332.041 528.175 333.802 528.669C335.563 529.162 337.168 530.101 338.461 531.394C339.754 532.687 340.693 534.291 341.186 536.052C341.679 537.813 341.711 539.672 341.278 541.449C341.259 541.523 341.26 541.601 341.281 541.676C341.301 541.75 341.34 541.817 341.395 541.872L348.935 549.417C349.013 549.496 349.118 549.542 349.229 549.547C349.34 549.552 349.449 549.515 349.534 549.444C352.437 546.97 354.952 544.075 356.996 540.855V540.855Z" fill="#23D997"/>
<path d="M330.918 549.582C329.306 549.582 327.714 549.216 326.263 548.511C324.813 547.806 323.541 546.782 322.544 545.514C321.547 544.247 320.851 542.769 320.508 541.193C320.165 539.618 320.185 537.985 320.565 536.417C320.584 536.343 320.583 536.265 320.562 536.191C320.542 536.117 320.503 536.049 320.448 535.995L313.031 528.574C312.953 528.495 312.847 528.449 312.736 528.444C312.625 528.44 312.516 528.477 312.431 528.549C309.581 531.019 307.058 533.843 304.922 536.951C304.52 537.527 304.299 538.21 304.286 538.912C304.274 539.614 304.47 540.305 304.851 540.895C307.652 545.35 311.37 549.157 315.757 552.064C320.237 555.052 325.497 556.658 330.883 556.683C333.62 556.676 336.339 556.244 338.943 555.402C339.016 555.379 339.081 555.337 339.133 555.281C339.185 555.226 339.222 555.158 339.24 555.084C339.258 555.01 339.256 554.932 339.236 554.859C339.215 554.786 339.176 554.719 339.122 554.665L333.854 549.398C333.8 549.344 333.732 549.305 333.658 549.284C333.584 549.264 333.506 549.263 333.432 549.282C332.609 549.481 331.765 549.582 330.918 549.582V549.582Z" fill="#23D997"/>
<path d="M138.013 589.789C166.093 589.789 188.857 567.025 188.857 538.945C188.857 510.864 166.093 488.101 138.013 488.101C109.932 488.101 87.1685 510.864 87.1685 538.945C87.1685 567.025 109.932 589.789 138.013 589.789Z" fill="#1B1B1B"/>
<path d="M138.013 577.925C159.541 577.925 176.993 560.473 176.993 538.945C176.993 517.416 159.541 499.964 138.013 499.964C116.484 499.964 99.0322 517.416 99.0322 538.945C99.0322 560.473 116.484 577.925 138.013 577.925Z" fill="white"/>
<path d="M152.987 563.801C150.821 563.801 147.779 563.017 143.222 560.472C137.559 557.445 132.388 553.577 127.885 549C123.225 544.561 119.333 539.38 116.368 533.667C112.28 526.233 112.977 522.335 113.756 520.67C114.655 518.849 116.069 517.332 117.823 516.307C118.828 515.648 119.892 515.083 121.001 514.62C121.112 514.572 121.215 514.527 121.307 514.486C121.674 514.278 122.081 514.15 122.501 514.112C122.921 514.074 123.344 514.126 123.743 514.264C124.629 514.69 125.417 515.294 126.058 516.039C128.366 518.629 130.313 521.519 131.846 524.631C132.476 525.708 132.863 526.909 132.981 528.15C132.889 529.379 132.391 530.543 131.566 531.458C131.421 531.657 131.277 531.847 131.137 532.031C130.292 533.14 130.107 533.461 130.229 534.034C130.476 535.184 132.322 538.61 135.355 541.636C138.387 544.662 141.714 546.391 142.869 546.637C143.466 546.765 143.794 546.572 144.939 545.698C145.103 545.572 145.272 545.442 145.448 545.313C146.366 544.447 147.549 543.918 148.806 543.81H148.813C150.072 543.939 151.284 544.364 152.348 545.051C154.346 546.058 158.907 548.778 160.908 550.796C161.655 551.435 162.261 552.221 162.689 553.106C162.827 553.505 162.878 553.929 162.84 554.35C162.801 554.771 162.674 555.179 162.467 555.547C162.426 555.639 162.381 555.74 162.333 555.852C161.866 556.959 161.298 558.021 160.636 559.024C159.608 560.775 158.089 562.187 156.266 563.083C155.242 563.567 154.121 563.813 152.987 563.801V563.801Z" fill="#23D997"/>
<path d="M525.324 589.789C553.404 589.789 576.168 567.025 576.168 538.945C576.168 510.864 553.404 488.101 525.324 488.101C497.244 488.101 474.48 510.864 474.48 538.945C474.48 567.025 497.244 589.789 525.324 589.789Z" fill="#1B1B1B"/>
<path d="M525.324 577.925C546.852 577.925 564.304 560.473 564.304 538.945C564.304 517.416 546.852 499.964 525.324 499.964C503.796 499.964 486.344 517.416 486.344 538.945C486.344 560.473 503.796 577.925 525.324 577.925Z" fill="white"/>
<path d="M532.426 562.026H518.222C517.751 562.026 517.3 561.839 516.967 561.506C516.634 561.173 516.447 560.721 516.447 560.251C516.447 559.78 516.634 559.328 516.967 558.995C517.3 558.662 517.751 558.475 518.222 558.475H532.426C532.897 558.475 533.348 558.662 533.681 558.995C534.014 559.328 534.201 559.78 534.201 560.251C534.201 560.721 534.014 561.173 533.681 561.506C533.348 561.839 532.897 562.026 532.426 562.026V562.026Z" fill="#23D997"/>
<path d="M525.324 553.149C521.088 553.144 517.026 551.459 514.03 548.463C511.035 545.467 509.349 541.406 509.345 537.169V533.618C509.345 533.147 509.532 532.696 509.865 532.363C510.198 532.03 510.649 531.843 511.12 531.843C511.591 531.843 512.043 532.03 512.376 532.363C512.709 532.696 512.896 533.147 512.896 533.618V537.169C512.899 540.464 514.209 543.622 516.54 545.95C518.87 548.279 522.03 549.587 525.324 549.587C528.618 549.587 531.778 548.279 534.108 545.95C536.439 543.622 537.749 540.464 537.752 537.169V533.618C537.752 533.147 537.939 532.696 538.272 532.363C538.605 532.03 539.057 531.843 539.528 531.843C539.999 531.843 540.45 532.03 540.783 532.363C541.116 532.696 541.303 533.147 541.303 533.618V537.169C541.299 541.406 539.614 545.467 536.618 548.463C533.622 551.459 529.561 553.144 525.324 553.149V553.149Z" fill="#23D997"/>
<path d="M525.324 562.026C525.091 562.026 524.86 561.98 524.645 561.891C524.429 561.802 524.233 561.671 524.069 561.506C523.904 561.341 523.773 561.145 523.684 560.93C523.594 560.715 523.549 560.484 523.549 560.251V551.373C523.549 550.902 523.736 550.451 524.069 550.118C524.402 549.785 524.853 549.598 525.324 549.598C525.795 549.598 526.247 549.785 526.58 550.118C526.912 550.451 527.1 550.902 527.1 551.373V560.251C527.1 560.484 527.054 560.715 526.964 560.93C526.875 561.145 526.744 561.341 526.58 561.506C526.415 561.671 526.219 561.802 526.003 561.891C525.788 561.98 525.557 562.026 525.324 562.026V562.026Z" fill="#23D997"/>
<path d="M525.324 546.047C524.152 546.044 522.993 545.806 521.915 545.346C520.837 544.887 519.862 544.216 519.049 543.372C517.383 541.693 516.448 539.424 516.447 537.058V524.741C516.442 523.58 516.666 522.429 517.107 521.354C517.547 520.28 518.194 519.302 519.012 518.478C519.83 517.654 520.803 516.998 521.874 516.55C522.945 516.101 524.094 515.868 525.255 515.863C525.278 515.863 525.301 515.863 525.324 515.863C526.493 515.851 527.653 516.072 528.736 516.514C529.819 516.955 530.803 517.609 531.629 518.435C532.456 519.262 533.11 520.246 533.551 521.329C533.993 522.412 534.214 523.572 534.201 524.741V537.058C534.213 539.427 533.285 541.703 531.621 543.388C529.957 545.073 527.692 546.029 525.324 546.047V546.047Z" fill="#23D997"/>
<path d="M71.4012 58.3531C70.1708 58.3546 68.9911 58.844 68.1211 59.7141C67.251 60.5841 66.7616 61.7638 66.7601 62.9942V439.618C66.7616 440.848 67.251 442.028 68.1211 442.898C68.9911 443.768 70.1708 444.258 71.4012 444.259H577.28C578.51 444.258 579.69 443.768 580.56 442.898C581.43 442.028 581.92 440.848 581.921 439.618V62.9942C581.92 61.7638 581.43 60.5841 580.56 59.7141C579.69 58.844 578.51 58.3546 577.28 58.3531H71.4012Z" fill="#1B1B1B"/>
<path d="M81.6116 73.2045V429.408H567.069V73.2045H81.6116Z" fill="white"/>
<path d="M416.816 429.408L417.69 425.984L410.102 394.548L409.362 391.462L408.804 389.156L409.693 388.857L454.526 373.918L455.1 382.214L458.351 429.408H416.816Z" fill="#FFB9B9"/>
<path d="M238.579 394.548L230.991 425.984L231.865 429.408H190.33L193.581 382.214L194.155 373.918L239.878 389.156L238.579 394.548Z" fill="#FFB9B9"/>
<path d="M361.808 268.497L289.413 276.118C297.018 256.542 295.611 234.076 289.413 210.073H341.487C344.908 230.557 351.779 250.312 361.808 268.497V268.497Z" fill="#FFB9B9"/>
<path d="M316.085 240.555C337.83 240.555 355.458 222.928 355.458 201.183C355.458 179.438 337.83 161.81 316.085 161.81C294.34 161.81 276.712 179.438 276.712 201.183C276.712 222.928 294.34 240.555 316.085 240.555Z" fill="#FFB9B9"/>
<path d="M429.126 283.741C420.815 320.474 413.975 355.398 409.693 388.857C409.575 389.731 409.465 390.596 409.362 391.462C409.221 392.596 409.079 393.729 408.953 394.862C407.552 406.551 406.495 418.066 405.781 429.408H247.323C247.489 418.711 247.135 407.771 246.34 396.681C243.608 358.64 235.588 318.861 224.639 281.198L224.718 281.167L293.99 257.239L294.494 257.066C314.462 266.283 334.345 266.708 354.069 252.721C354.132 252.682 354.187 252.635 354.25 252.595L418.823 279.459L418.847 279.467L429.126 283.741Z" fill="#23D997"/>
<path d="M476.116 376.454L397.37 398.046L416.422 278.658L428.574 282.709C433.03 284.194 437.045 286.771 440.251 290.203C443.458 293.636 445.755 297.816 446.934 302.364L476.116 376.454Z" fill="#23D997"/>
<path d="M172.565 376.454L251.311 398.046L232.259 278.658L220.107 282.709C215.651 284.194 211.636 286.771 208.43 290.203C205.223 293.636 202.926 297.816 201.747 302.364L172.565 376.454Z" fill="#23D997"/>
<path d="M313.554 134.58C306.857 134.887 300.333 136.808 294.537 140.179C293.204 140.954 293.82 143.752 292.588 144.664C291.037 145.813 287.669 145.115 286.295 146.461C281.861 150.79 278.447 156.052 276.301 161.866C274.155 167.68 273.331 173.899 273.89 180.07L276.077 201.818L281.237 196.175C290.489 185.917 303.332 179.611 317.106 178.565C317.692 178.525 318.278 178.494 318.865 178.472L314.895 171.525L321.794 178.424C324.942 178.458 328.082 178.714 331.194 179.189L325.915 169.951L336.044 180.08L336.045 180.08C340.187 180.991 344.058 182.862 347.345 185.543C350.631 188.224 353.243 191.639 354.968 195.514L356.093 198.008L357.353 177.26C357.477 171.526 356.421 165.827 354.249 160.518C352.078 155.21 348.837 150.404 344.729 146.401C340.622 142.398 335.734 139.283 330.371 137.249C325.008 135.216 319.284 134.307 313.554 134.58V134.58Z" fill="#2F2E41"/>
<path d="M277.115 207.731C278.854 207.731 280.263 204.383 280.263 200.254C280.263 196.124 278.854 192.776 277.115 192.776C275.376 192.776 273.967 196.124 273.967 200.254C273.967 204.383 275.376 207.731 277.115 207.731Z" fill="#FFB9B9"/>
<path d="M355.824 205.37C357.563 205.37 358.973 202.022 358.973 197.892C358.973 193.763 357.563 190.415 355.824 190.415C354.085 190.415 352.676 193.763 352.676 197.892C352.676 202.022 354.085 205.37 355.824 205.37Z" fill="#FFB9B9"/>
</g>
<defs>
<clipPath id="clip0">
<rect width="877.056" height="657.001" fill="white"/>
</clipPath>
</defs>
</svg>
